SplineFontDB: 3.2
FontName: Vazirmatn-UI-ExtraLight
FullName: Vazirmatn UI ExtraLight
FamilyName: Vazirmatn UI ExtraLight
Weight: Extra-Light
Copyright: Copyright 2015 The Vazirmatn Project Authors (https://github.com/rastikerdar/vazirmatn)
Version: 33.003
ItalicAngle: 0
UnderlinePosition: -780
UnderlineWidth: 100
Ascent: 1638
Descent: 410
InvalidEm: 0
sfntRevision: 0x002100c5
LayerCount: 2
Layer: 0 1 "Back" 1
Layer: 1 1 "Fore" 0
XUID: [1021 361 -1614679662 523058]
StyleMap: 0x0040
FSType: 0
OS2Version: 4
OS2_WeightWidthSlopeOnly: 0
OS2_UseTypoMetrics: 1
CreationTime: 1431850356
ModificationTime: 1724682736
PfmFamily: 81
TTFWeight: 200
TTFWidth: 5
LineGap: 0
VLineGap: 0
Panose: 0 0 0 0 0 0 0 0 0 0
OS2TypoAscent: 1950
OS2TypoAOffset: 0
OS2TypoDescent: -970
OS2TypoDOffset: 0
OS2TypoLinegap: 0
OS2WinAscent: 1950
OS2WinAOffset: 0
OS2WinDescent: 970
OS2WinDOffset: 0
HheadAscent: 2100
HheadAOffset: 0
HheadDescent: -1100
HheadDOffset: 0
OS2SubXSize: 1331
OS2SubYSize: 1433
OS2SubXOff: 0
OS2SubYOff: 286
OS2SupXSize: 1331
OS2SupYSize: 1433
OS2SupXOff: 0
OS2SupYOff: 983
OS2StrikeYSize: 102
OS2StrikeYPos: 530
OS2CapHeight: 1638
OS2XHeight: 1082
OS2Vendor: '    '
OS2CodePages: 00000041.20080000
OS2UnicodeRanges: 80002003.80000000.00000008.00000000
Lookup: 1 0 0 "'c2sc' Capitals to Small Capitals lookup 0" { "'c2sc' Capitals to Small Capitals lookup 0 subtable"  } ['c2sc' ('DFLT' <'dflt' > 'cyrl' <'dflt' > 'grek' <'dflt' > 'latn' <'AZE ' 'CRT ' 'FRA ' 'MOL ' 'NAV ' 'ROM ' 'TRK ' 'dflt' > ) ]
Lookup: 1 0 0 "'smcp' Lowercase to Small Capitals lookup 1" { "'smcp' Lowercase to Small Capitals lookup 1 subtable"  } ['smcp' ('DFLT' <'dflt' > 'cyrl' <'dflt' > 'grek' <'dflt' > 'latn' <'AZE ' 'CRT ' 'FRA ' 'MOL ' 'NAV ' 'ROM ' 'TRK ' 'dflt' > ) ]
Lookup: 1 0 0 "'unic' Unicase lookup 2" { "'unic' Unicase lookup 2 subtable"  } ['unic' ('DFLT' <'dflt' > 'cyrl' <'dflt' > 'grek' <'dflt' > 'latn' <'AZE ' 'CRT ' 'FRA ' 'MOL ' 'NAV ' 'ROM ' 'TRK ' 'dflt' > ) ]

StartChar: A
Encoding: 65 65 2
Width: 1280
VWidth: 1798
GlyphClass: 2
Flags: W
AnchorPoint: "Anchor-1" 686 -250 basechar 0
AnchorPoint: "Anchor-0" 672 1351 basechar 0
LayerCount: 2
Fore
SplineSet
1121 -250 m 1,0,-1
 971 158 l 1,1,-1
 309 158 l 1,2,-1
 159 -250 l 1,3,-1
 31 -250 l 1,4,-1
 581 1206 l 1,5,-1
 699 1206 l 1,6,-1
 1250 -250 l 1,7,-1
 1121 -250 l 1,0,-1
348 264 m 1,8,-1
 932 264 l 1,9,-1
 640 1057 l 1,10,-1
 348 264 l 1,8,-1
EndSplineSet
Substitution2: "'unic' Unicase lookup 2 subtable" A.unic
Substitution2: "'c2sc' Capitals to Small Capitals lookup 0 subtable" A.smcp
Position2: "'cpsp' Capital Spacing lookup 0 subtable" dx=36 dy=0 dh=72 dv=0
EndChar

StartChar: A.smcp
Encoding: 65537 -1 3
Width: 1108
GlyphClass: 2
Flags: W
AnchorPoint: "Anchor-1" 592 0 basechar 0
AnchorPoint: "Anchor-0" 581 1320 basechar 0
LayerCount: 2
Fore
SplineSet
960 0 m 1,0,-1
 837 311 l 1,1,-1
 272 311 l 1,2,-1
 148 0 l 1,3,-1
 24 0 l 1,4,-1
 498 1165 l 1,5,-1
 612 1165 l 1,6,-1
 1083 0 l 1,7,-1
 960 0 l 1,0,-1
313 414 m 1,8,-1
 796 414 l 1,9,-1
 555 1022 l 1,10,-1
 313 414 l 1,8,-1
EndSplineSet
EndChar

StartChar: A.unic
Encoding: 65538 -1 4
Width: 1356
GlyphClass: 2
Flags: W
AnchorPoint: "Anchor-1" 682 0 basechar 0
AnchorPoint: "Anchor-0" 701 1632 basechar 0
LayerCount: 2
Fore
SplineSet
1090 0 m 1,0,1
 1078 37 1078 37 1072 93.5 c 128,-1,2
 1066 150 1066 150 1065 203 c 1,3,4
 996 116 996 116 868 48 c 128,-1,5
 740 -20 740 -20 556 -20 c 0,6,7
 423 -20 423 -20 323 30.5 c 128,-1,8
 223 81 223 81 168 170 c 128,-1,9
 113 259 113 259 113 375 c 0,10,11
 113 596 113 596 271 704 c 128,-1,12
 429 812 429 812 781 812 c 2,13,-1
 1065 812 l 1,14,-1
 1065 1011 l 2,15,16
 1065 1178 1065 1178 965 1272.5 c 128,-1,17
 865 1367 865 1367 672 1367 c 0,18,19
 555 1367 555 1367 463.5 1329.5 c 128,-1,20
 372 1292 372 1292 319.5 1221.5 c 128,-1,21
 267 1151 267 1151 267 1051 c 1,22,-1
 146 1052 l 1,23,24
 146 1174 146 1174 211.5 1269.5 c 128,-1,25
 277 1365 277 1365 396.5 1420.5 c 128,-1,26
 516 1476 516 1476 676 1476 c 0,27,28
 827 1476 827 1476 942 1425.5 c 128,-1,29
 1057 1375 1057 1375 1122 1271.5 c 128,-1,30
 1187 1168 1187 1168 1187 1009 c 2,31,-1
 1187 249 l 2,32,33
 1187 187 1187 187 1195.5 120.5 c 128,-1,34
 1204 54 1204 54 1220 13 c 1,35,-1
 1220 0 l 1,36,-1
 1090 0 l 1,0,1
569 88 m 0,37,38
 757 88 757 88 886 165.5 c 128,-1,39
 1015 243 1015 243 1065 354 c 1,40,-1
 1065 706 l 1,41,-1
 795 706 l 2,42,43
 491 706 491 706 363.5 627 c 128,-1,44
 236 548 236 548 236 380 c 0,45,46
 236 257 236 257 325 172.5 c 128,-1,47
 414 88 414 88 569 88 c 0,37,38
EndSplineSet
EndChar

StartChar: AE
Encoding: 198 198 5
Width: 1865
VWidth: 1798
GlyphClass: 2
Flags: W
AnchorPoint: "Anchor-0" 939 1362 basechar 0
LayerCount: 2
Fore
SplineSet
1824 -147 m 1,0,-1
 1824 -250 l 1,1,-1
 1006 -250 l 1,2,-1
 990 139 l 1,3,-1
 394 139 l 1,4,-1
 164 -250 l 1,5,-1
 18 -250 l 1,6,-1
 899 1206 l 1,7,-1
 1763 1206 l 1,8,-1
 1763 1103 l 1,9,-1
 1069 1103 l 1,10,-1
 1092 560 l 1,11,-1
 1681 560 l 1,12,-1
 1681 457 l 1,13,-1
 1096 457 l 1,14,-1
 1122 -147 l 1,15,-1
 1824 -147 l 1,0,-1
461 253 m 1,16,-1
 985 253 l 1,17,-1
 950 1080 l 1,18,-1
 461 253 l 1,16,-1
EndSplineSet
Substitution2: "'c2sc' Capitals to Small Capitals lookup 0 subtable" AE.smcp
Position2: "'cpsp' Capital Spacing lookup 0 subtable" dx=36 dy=0 dh=72 dv=0
EndChar

StartChar: AE.smcp
Encoding: 65539 -1 6
Width: 1574
GlyphClass: 2
Flags: W
AnchorPoint: "Anchor-1" 896 0 basechar 0
AnchorPoint: "Anchor-0" 896 1290 basechar 0
LayerCount: 2
Fore
SplineSet
1504 102 m 1,0,-1
 1504 0 l 1,1,-1
 772 0 l 1,2,-1
 766 324 l 1,3,-1
 333 324 l 1,4,-1
 147 0 l 1,5,-1
 15 0 l 1,6,-1
 703 1165 l 1,7,-1
 1483 1165 l 1,8,-1
 1483 1063 l 1,9,-1
 873 1063 l 1,10,-1
 880 657 l 1,11,-1
 1408 657 l 1,12,-1
 1408 555 l 1,13,-1
 881 555 l 1,14,-1
 889 102 l 1,15,-1
 1504 102 l 1,0,-1
392 426 m 1,16,-1
 765 426 l 1,17,-1
 754 1056 l 1,18,-1
 392 426 l 1,16,-1
EndSplineSet
EndChar

StartChar: Aogonek
Encoding: 260 260 27
Width: 1280
VWidth: 1798
GlyphClass: 2
Flags: W
AnchorPoint: "Anchor-1" 686 -250 basechar 0
AnchorPoint: "Anchor-0" 672 1351 basechar 0
LayerCount: 2
Fore
SplineSet
31 -250 m 1,0,-1
 581 1206 l 1,1,-1
 699 1206 l 1,2,-1
 1250 -250 l 1,3,-1
 1231 -250 l 1,4,5
 1163 -302 1163 -302 1107 -358.5 c 128,-1,6
 1051 -415 1051 -415 1051 -484 c 0,7,8
 1051 -518 1051 -518 1069.5 -543 c 128,-1,9
 1088 -568 1088 -568 1137 -568 c 0,10,11
 1173 -568 1173 -568 1199.5 -556.5 c 128,-1,12
 1226 -545 1226 -545 1242 -535 c 1,13,-1
 1257 -620 l 1,14,15
 1235 -635 1235 -635 1200.5 -649.5 c 128,-1,16
 1166 -664 1166 -664 1113 -664 c 0,17,18
 1040 -664 1040 -664 992 -621.5 c 128,-1,19
 944 -579 944 -579 944 -494 c 0,20,21
 944 -429 944 -429 991 -364 c 128,-1,22
 1038 -299 1038 -299 1119 -244 c 1,23,-1
 971 158 l 1,24,-1
 309 158 l 1,25,-1
 159 -250 l 1,26,-1
 31 -250 l 1,0,-1
348 264 m 1,27,-1
 932 264 l 1,28,-1
 640 1057 l 1,29,-1
 348 264 l 1,27,-1
EndSplineSet
Substitution2: "'locl' Localized Forms in Latin lookup 8 subtable" Aogonek.NAV
Substitution2: "'unic' Unicase lookup 2 subtable" Aogonek.unic
Substitution2: "'c2sc' Capitals to Small Capitals lookup 0 subtable" Aogonek.smcp
Position2: "'cpsp' Capital Spacing lookup 0 subtable" dx=36 dy=0 dh=72 dv=0
EndChar

StartChar: Aogonek.smcp
Encoding: 65554 -1 29
Width: 1108
GlyphClass: 2
Flags: W
AnchorPoint: "Anchor-1" 592 0 basechar 0
AnchorPoint: "Anchor-0" 581 1320 basechar 0
LayerCount: 2
Fore
SplineSet
24 0 m 1,0,-1
 498 1165 l 1,1,-1
 612 1165 l 1,2,-1
 1083 0 l 1,3,-1
 1063 0 l 1,4,5
 995 -52 995 -52 939 -108.5 c 128,-1,6
 883 -165 883 -165 883 -234 c 0,7,8
 883 -268 883 -268 901.5 -293 c 128,-1,9
 920 -318 920 -318 969 -318 c 0,10,11
 1005 -318 1005 -318 1031.5 -306.5 c 128,-1,12
 1058 -295 1058 -295 1074 -285 c 1,13,-1
 1089 -370 l 1,14,15
 1067 -385 1067 -385 1032.5 -399.5 c 128,-1,16
 998 -414 998 -414 945 -414 c 0,17,18
 872 -414 872 -414 824 -371.5 c 128,-1,19
 776 -329 776 -329 776 -244 c 0,20,21
 776 -178 776 -178 824.5 -112 c 128,-1,22
 873 -46 873 -46 956 10 c 1,23,-1
 837 311 l 1,24,-1
 272 311 l 1,25,-1
 148 0 l 1,26,-1
 24 0 l 1,0,-1
313 414 m 1,27,-1
 796 414 l 1,28,-1
 555 1022 l 1,29,-1
 313 414 l 1,27,-1
EndSplineSet
Substitution2: "'locl' Localized Forms in Latin lookup 8 subtable" Aogonek.smcp.NAV
EndChar

StartChar: B
Encoding: 66 66 41
Width: 1256
VWidth: 1798
GlyphClass: 2
Flags: W
AnchorPoint: "Anchor-1" 613 -240 basechar 0
AnchorPoint: "Anchor-0" 606 1362 basechar 0
LayerCount: 2
Fore
SplineSet
677 -250 m 2,0,-1
 185 -250 l 1,1,-1
 185 1206 l 1,2,-1
 615 1206 l 2,3,4
 837 1206 837 1206 963.5 1115 c 128,-1,5
 1090 1024 1090 1024 1090 826 c 0,6,7
 1090 714 1090 714 1029.5 630 c 128,-1,8
 969 546 969 546 861 510 c 1,9,10
 990 482 990 482 1066.5 385 c 128,-1,11
 1143 288 1143 288 1143 161 c 0,12,13
 1143 -38 1143 -38 1014.5 -144 c 128,-1,14
 886 -250 886 -250 677 -250 c 2,0,-1
615 1100 m 2,15,-1
 308 1100 l 1,16,-1
 308 555 l 1,17,-1
 628 555 l 2,18,19
 789 555 789 555 877.5 624.5 c 128,-1,20
 966 694 966 694 966 829 c 0,21,22
 966 1100 966 1100 615 1100 c 2,15,-1
1020 159 m 0,23,24
 1020 282 1020 282 938.5 366 c 128,-1,25
 857 450 857 450 687 450 c 2,26,-1
 308 450 l 1,27,-1
 308 -145 l 1,28,-1
 677 -145 l 2,29,30
 838 -145 838 -145 929 -64 c 128,-1,31
 1020 17 1020 17 1020 159 c 0,23,24
EndSplineSet
Substitution2: "'c2sc' Capitals to Small Capitals lookup 0 subtable" B.smcp
Position2: "'cpsp' Capital Spacing lookup 0 subtable" dx=36 dy=0 dh=72 dv=0
EndChar

StartChar: B.smcp
Encoding: 65563 -1 42
Width: 1085
GlyphClass: 2
Flags: W
AnchorPoint: "Anchor-1" 536 10 basechar 0
AnchorPoint: "Anchor-0" 529 1320 basechar 0
LayerCount: 2
Fore
SplineSet
583 0 m 2,0,-1
 155 0 l 1,1,-1
 155 1165 l 1,2,-1
 525 1165 l 2,3,4
 719 1165 719 1165 831.5 1090 c 128,-1,5
 944 1015 944 1015 944 856 c 0,6,7
 944 768 944 768 894 701.5 c 128,-1,8
 844 635 844 635 751 606 c 1,9,10
 862 583 862 583 925.5 504.5 c 128,-1,11
 989 426 989 426 989 328 c 0,12,13
 989 167 989 167 877.5 83.5 c 128,-1,14
 766 0 766 0 583 0 c 2,0,-1
525 1061 m 2,15,-1
 274 1061 l 1,16,-1
 274 648 l 1,17,-1
 540 648 l 2,18,19
 677 648 677 648 751 699.5 c 128,-1,20
 825 751 825 751 825 853 c 0,21,22
 825 1061 825 1061 525 1061 c 2,15,-1
869 328 m 0,23,24
 869 422 869 422 801.5 486.5 c 128,-1,25
 734 551 734 551 592 551 c 2,26,-1
 274 551 l 1,27,-1
 274 103 l 1,28,-1
 583 103 l 2,29,30
 718 103 718 103 793.5 162.5 c 128,-1,31
 869 222 869 222 869 328 c 0,23,24
EndSplineSet
EndChar

StartChar: C
Encoding: 67 67 43
Width: 1330
VWidth: 1798
GlyphClass: 2
Flags: W
AnchorPoint: "Anchor-1" 680 -260 basechar 0
AnchorPoint: "Anchor-0" 680 1383 basechar 0
LayerCount: 2
Fore
SplineSet
1092 205 m 1,0,-1
 1215 205 l 1,1,2
 1193 -17 1193 -17 1057 -143.5 c 128,-1,3
 921 -270 921 -270 680 -270 c 0,4,5
 515 -270 515 -270 391.5 -188 c 128,-1,6
 268 -106 268 -106 200 42 c 128,-1,7
 132 190 132 190 132 387 c 2,8,-1
 132 569 l 2,9,10
 132 766 132 766 200 914 c 128,-1,11
 268 1062 268 1062 393 1144 c 128,-1,12
 518 1226 518 1226 688 1226 c 0,13,14
 921 1226 921 1226 1057 1100.5 c 128,-1,15
 1193 975 1193 975 1215 751 c 1,16,-1
 1092 751 l 1,17,18
 1070 927 1070 927 973 1023.5 c 128,-1,19
 876 1120 876 1120 688 1120 c 0,20,21
 553 1120 553 1120 456 1051.5 c 128,-1,22
 359 983 359 983 307 859.5 c 128,-1,23
 255 736 255 736 255 571 c 2,24,-1
 255 387 l 2,25,26
 255 227 255 227 305 102.5 c 128,-1,27
 355 -22 355 -22 450 -93.5 c 128,-1,28
 545 -165 545 -165 680 -165 c 0,29,30
 874 -165 874 -165 971.5 -72 c 128,-1,31
 1069 21 1069 21 1092 205 c 1,0,-1
EndSplineSet
Substitution2: "'c2sc' Capitals to Small Capitals lookup 0 subtable" C.smcp
Position2: "'cpsp' Capital Spacing lookup 0 subtable" dx=36 dy=0 dh=72 dv=0
EndChar

StartChar: C.smcp
Encoding: 65564 -1 44
Width: 1145
GlyphClass: 2
Flags: W
AnchorPoint: "Anchor-1" 586 -4 basechar 0
AnchorPoint: "Anchor-0" 587 1320 basechar 0
LayerCount: 2
Fore
SplineSet
930 368 m 1,0,-1
 1050 368 l 1,1,2
 1031 190 1031 190 912.5 87 c 128,-1,3
 794 -16 794 -16 585 -16 c 0,4,5
 441 -16 441 -16 334 50 c 128,-1,6
 227 116 227 116 168.5 235.5 c 128,-1,7
 110 355 110 355 110 515 c 2,8,-1
 110 650 l 2,9,10
 110 810 110 810 169 929 c 128,-1,11
 228 1048 228 1048 336 1114.5 c 128,-1,12
 444 1181 444 1181 591 1181 c 0,13,14
 795 1181 795 1181 913 1078 c 128,-1,15
 1031 975 1031 975 1050 795 c 1,16,-1
 930 795 l 1,17,18
 912 931 912 931 831 1004.5 c 128,-1,19
 750 1078 750 1078 591 1078 c 0,20,21
 421 1078 421 1078 325 963 c 128,-1,22
 229 848 229 848 229 651 c 2,23,-1
 229 515 l 2,24,25
 229 324 229 324 321.5 205 c 128,-1,26
 414 86 414 86 585 86 c 0,27,28
 746 86 746 86 828.5 156.5 c 128,-1,29
 911 227 911 227 930 368 c 1,0,-1
EndSplineSet
EndChar

StartChar: D
Encoding: 68 68 54
Width: 1342
VWidth: 1798
GlyphClass: 2
Flags: W
AnchorPoint: "Anchor-1" 613 -240 basechar 0
AnchorPoint: "Anchor-0" 609 1362 basechar 0
LayerCount: 2
Fore
SplineSet
583 -250 m 2,0,-1
 185 -250 l 1,1,-1
 185 1206 l 1,2,-1
 592 1206 l 2,3,4
 774 1206 774 1206 914 1124 c 128,-1,5
 1054 1042 1054 1042 1134 893 c 128,-1,6
 1214 744 1214 744 1214 544 c 2,7,-1
 1214 412 l 2,8,9
 1214 212 1214 212 1134 63 c 128,-1,10
 1054 -86 1054 -86 912 -168 c 128,-1,11
 770 -250 770 -250 583 -250 c 2,0,-1
592 1100 m 2,12,-1
 308 1100 l 1,13,-1
 308 -145 l 1,14,-1
 583 -145 l 2,15,16
 739 -145 739 -145 853 -74.5 c 128,-1,17
 967 -4 967 -4 1029 121 c 128,-1,18
 1091 246 1091 246 1091 412 c 2,19,-1
 1091 547 l 2,20,21
 1091 715 1091 715 1029 839.5 c 128,-1,22
 967 964 967 964 854.5 1032 c 128,-1,23
 742 1100 742 1100 592 1100 c 2,12,-1
EndSplineSet
Substitution2: "'c2sc' Capitals to Small Capitals lookup 0 subtable" D.smcp
Position2: "'cpsp' Capital Spacing lookup 0 subtable" dx=36 dy=0 dh=72 dv=0
EndChar

StartChar: D.smcp
Encoding: 65569 -1 55
Width: 1152
GlyphClass: 2
Flags: W
AnchorPoint: "Anchor-1" 500 10 basechar 0
AnchorPoint: "Anchor-0" 500 1320 basechar 0
LayerCount: 2
Fore
SplineSet
502 0 m 2,0,-1
 155 0 l 1,1,-1
 155 1165 l 1,2,-1
 508 1165 l 2,3,4
 666 1165 666 1165 787 1098.5 c 128,-1,5
 908 1032 908 1032 977 912 c 128,-1,6
 1046 792 1046 792 1046 631 c 2,7,-1
 1046 533 l 2,8,9
 1046 373 1046 373 977 253 c 128,-1,10
 908 133 908 133 785.5 66.5 c 128,-1,11
 663 0 663 0 502 0 c 2,0,-1
508 1061 m 2,12,-1
 274 1061 l 1,13,-1
 274 103 l 1,14,-1
 502 103 l 2,15,16
 699 103 699 103 813 221.5 c 128,-1,17
 927 340 927 340 927 533 c 2,18,-1
 927 633 l 2,19,20
 927 830 927 830 813.5 945.5 c 128,-1,21
 700 1061 700 1061 508 1061 c 2,12,-1
EndSplineSet
EndChar

StartChar: Dcroat
Encoding: 272 272 58
Width: 1372
VWidth: 1798
GlyphClass: 2
Flags: W
AnchorPoint: "Anchor-1" 613 -240 basechar 0
AnchorPoint: "Anchor-0" 609 1362 basechar 0
LayerCount: 2
Fore
SplineSet
613 -250 m 2,0,-1
 215 -250 l 1,1,-1
 215 439 l 1,2,-1
 64 439 l 1,3,-1
 64 542 l 1,4,-1
 215 542 l 1,5,-1
 215 1206 l 1,6,-1
 622 1206 l 2,7,8
 804 1206 804 1206 944 1124 c 128,-1,9
 1084 1042 1084 1042 1164 893 c 128,-1,10
 1244 744 1244 744 1244 544 c 2,11,-1
 1244 412 l 2,12,13
 1244 212 1244 212 1164 63 c 128,-1,14
 1084 -86 1084 -86 942 -168 c 128,-1,15
 800 -250 800 -250 613 -250 c 2,0,-1
676 542 m 1,16,-1
 676 439 l 1,17,-1
 338 439 l 1,18,-1
 338 -145 l 1,19,-1
 613 -145 l 2,20,21
 769 -145 769 -145 883 -74.5 c 128,-1,22
 997 -4 997 -4 1059 121 c 128,-1,23
 1121 246 1121 246 1121 412 c 2,24,-1
 1121 547 l 2,25,26
 1121 715 1121 715 1059 839.5 c 128,-1,27
 997 964 997 964 884.5 1032 c 128,-1,28
 772 1100 772 1100 622 1100 c 2,29,-1
 338 1100 l 1,30,-1
 338 542 l 1,31,-1
 676 542 l 1,16,-1
EndSplineSet
Substitution2: "'c2sc' Capitals to Small Capitals lookup 0 subtable" Dcroat.smcp
Position2: "'cpsp' Capital Spacing lookup 0 subtable" dx=36 dy=0 dh=72 dv=0
EndChar

StartChar: Delta
Encoding: 8710 8710 60
Width: 1428
GlyphClass: 2
Flags: W
LayerCount: 2
Fore
SplineSet
45 0 m 1,0,-1
 660 1456 l 1,1,-1
 778 1456 l 1,2,-1
 1376 0 l 1,3,-1
 45 0 l 1,0,-1
218 105 m 1,4,-1
 1205 105 l 1,5,-1
 718 1312 l 1,6,-1
 218 105 l 1,4,-1
EndSplineSet
Substitution2: "'c2sc' Capitals to Small Capitals lookup 0 subtable" Delta.smcp
Position2: "'cpsp' Capital Spacing lookup 0 subtable" dx=36 dy=0 dh=72 dv=0
EndChar

StartChar: Delta.smcp
Encoding: 65572 -1 61
Width: 1092
GlyphClass: 2
Flags: W
LayerCount: 2
Fore
SplineSet
25 0 m 1,0,-1
 487 1165 l 1,1,-1
 605 1165 l 1,2,-1
 1068 0 l 1,3,-1
 25 0 l 1,0,-1
572 951 m 1,4,-1
 547 1039 l 1,5,-1
 521 951 l 1,6,-1
 195 103 l 1,7,-1
 899 103 l 1,8,-1
 572 951 l 1,4,-1
EndSplineSet
EndChar

StartChar: E
Encoding: 69 69 62
Width: 1165
VWidth: 1798
GlyphClass: 2
Flags: W
AnchorPoint: "Anchor-1" 619 -240 basechar 0
AnchorPoint: "Anchor-0" 619 1362 basechar 0
LayerCount: 2
Fore
SplineSet
1090 -145 m 1,0,-1
 1090 -250 l 1,1,-1
 185 -250 l 1,2,-1
 185 1206 l 1,3,-1
 1085 1206 l 1,4,-1
 1085 1100 l 1,5,-1
 308 1100 l 1,6,-1
 308 553 l 1,7,-1
 988 553 l 1,8,-1
 988 448 l 1,9,-1
 308 448 l 1,10,-1
 308 -145 l 1,11,-1
 1090 -145 l 1,0,-1
EndSplineSet
Substitution2: "'unic' Unicase lookup 2 subtable" E.unic
Substitution2: "'c2sc' Capitals to Small Capitals lookup 0 subtable" E.smcp
Position2: "'cpsp' Capital Spacing lookup 0 subtable" dx=36 dy=0 dh=72 dv=0
EndChar

StartChar: E.smcp
Encoding: 65573 -1 63
Width: 1000
GlyphClass: 2
Flags: W
AnchorPoint: "Anchor-1" 537 8 basechar 0
AnchorPoint: "Anchor-0" 537 1320 basechar 0
LayerCount: 2
Fore
SplineSet
939 103 m 1,0,-1
 939 0 l 1,1,-1
 155 0 l 1,2,-1
 155 1165 l 1,3,-1
 935 1165 l 1,4,-1
 935 1061 l 1,5,-1
 274 1061 l 1,6,-1
 274 656 l 1,7,-1
 851 656 l 1,8,-1
 851 553 l 1,9,-1
 274 553 l 1,10,-1
 274 103 l 1,11,-1
 939 103 l 1,0,-1
EndSplineSet
EndChar

StartChar: E.unic
Encoding: 65574 -1 64
Width: 1382
GlyphClass: 2
Flags: W
AnchorPoint: "Anchor-1" 743 10 basechar 0
AnchorPoint: "Anchor-0" 735 1643 basechar 0
LayerCount: 2
Fore
SplineSet
730 -21 m 0,0,1
 537 -21 537 -21 402 66 c 128,-1,2
 267 153 267 153 196.5 307 c 128,-1,3
 126 461 126 461 126 661 c 2,4,-1
 126 784 l 2,5,6
 126 994 126 994 201.5 1149.5 c 128,-1,7
 277 1305 277 1305 409.5 1390.5 c 128,-1,8
 542 1476 542 1476 712 1475 c 0,9,10
 972 1474 972 1474 1120 1315.5 c 128,-1,11
 1268 1157 1268 1157 1268 851 c 2,12,-1
 1268 701 l 1,13,-1
 249 701 l 1,14,-1
 249 661 l 2,15,16
 249 502 249 502 301 371.5 c 128,-1,17
 353 241 353 241 459.5 164 c 128,-1,18
 566 87 566 87 730 87 c 0,19,20
 877 87 877 87 983.5 146.5 c 128,-1,21
 1090 206 1090 206 1154 280 c 1,22,-1
 1228 210 l 1,23,24
 1178 153 1178 153 1109 100 c 128,-1,25
 1040 47 1040 47 947 13 c 128,-1,26
 854 -21 854 -21 730 -21 c 0,0,1
712 1367 m 0,27,28
 565 1367 565 1367 463 1294 c 128,-1,29
 361 1221 361 1221 307 1094.5 c 128,-1,30
 253 968 253 968 249 807 c 1,31,-1
 1145 807 l 1,32,-1
 1145 882 l 2,33,34
 1145 1105 1145 1105 1036 1236 c 128,-1,35
 927 1367 927 1367 712 1367 c 0,27,28
EndSplineSet
EndChar

StartChar: Eng
Encoding: 330 330 89
Width: 1435
VWidth: 1798
GlyphClass: 2
Flags: W
AnchorPoint: "Anchor-1" 720 -240 basechar 0
AnchorPoint: "Anchor-0" 726 1351 basechar 0
LayerCount: 2
Fore
SplineSet
181 1206 m 1,0,-1
 305 1206 l 1,1,-1
 1134 -43 l 1,2,-1
 1134 1206 l 1,3,-1
 1258 1206 l 1,4,-1
 1258 -336 l 2,5,6
 1258 -506 1258 -506 1176.5 -596.5 c 128,-1,7
 1095 -687 1095 -687 952 -687 c 0,8,9
 896 -687 896 -687 838 -668 c 1,10,-1
 852 -565 l 1,11,12
 868 -571 868 -571 898 -576 c 128,-1,13
 928 -581 928 -581 950 -581 c 0,14,15
 1038 -581 1038 -581 1086 -516.5 c 128,-1,16
 1134 -452 1134 -452 1134 -336 c 2,17,-1
 1134 -250 l 1,18,-1
 305 999 l 1,19,-1
 305 -250 l 1,20,-1
 181 -250 l 1,21,-1
 181 1206 l 1,0,-1
EndSplineSet
Substitution2: "'c2sc' Capitals to Small Capitals lookup 0 subtable" Eng.smcp
Position2: "'cpsp' Capital Spacing lookup 0 subtable" dx=36 dy=0 dh=72 dv=0
EndChar

StartChar: Eng.smcp
Encoding: 65591 -1 90
Width: 1249
GlyphClass: 2
Flags: W
AnchorPoint: "Anchor-1" 619 4 basechar 0
AnchorPoint: "Anchor-0" 624 1320 basechar 0
LayerCount: 2
Fore
SplineSet
1095 1165 m 1,0,-1
 1095 -89 l 2,1,2
 1095 -258 1095 -258 1014.5 -347.5 c 128,-1,3
 934 -437 934 -437 791 -437 c 0,4,5
 736 -437 736 -437 679 -418 c 1,6,-1
 693 -314 l 1,7,8
 708 -320 708 -320 739 -324.5 c 128,-1,9
 770 -329 770 -329 791 -329 c 0,10,11
 879 -329 879 -329 927 -267 c 128,-1,12
 975 -205 975 -205 975 -89 c 2,13,-1
 975 0 l 1,14,-1
 274 976 l 1,15,-1
 274 0 l 1,16,-1
 155 0 l 1,17,-1
 155 1165 l 1,18,-1
 274 1165 l 1,19,-1
 975 191 l 1,20,-1
 975 1165 l 1,21,-1
 1095 1165 l 1,0,-1
EndSplineSet
EndChar

StartChar: Eogonek
Encoding: 280 280 91
Width: 1165
VWidth: 1798
GlyphClass: 2
Flags: W
AnchorPoint: "Anchor-1" 619 -240 basechar 0
AnchorPoint: "Anchor-0" 619 1362 basechar 0
LayerCount: 2
Fore
SplineSet
1090 -145 m 1,0,-1
 1090 -250 l 1,1,-1
 1025 -250 l 1,2,3
 957 -302 957 -302 901 -358.5 c 128,-1,4
 845 -415 845 -415 845 -484 c 0,5,6
 845 -518 845 -518 863.5 -543 c 128,-1,7
 882 -568 882 -568 931 -568 c 0,8,9
 967 -568 967 -568 993.5 -556.5 c 128,-1,10
 1020 -545 1020 -545 1036 -535 c 1,11,-1
 1051 -620 l 1,12,13
 1029 -635 1029 -635 994.5 -649.5 c 128,-1,14
 960 -664 960 -664 907 -664 c 0,15,16
 834 -664 834 -664 786 -621.5 c 128,-1,17
 738 -579 738 -579 738 -494 c 0,18,19
 738 -431 738 -431 782.5 -367.5 c 128,-1,20
 827 -304 827 -304 904 -250 c 1,21,-1
 185 -250 l 1,22,-1
 185 1206 l 1,23,-1
 1085 1206 l 1,24,-1
 1085 1100 l 1,25,-1
 308 1100 l 1,26,-1
 308 553 l 1,27,-1
 988 553 l 1,28,-1
 988 448 l 1,29,-1
 308 448 l 1,30,-1
 308 -145 l 1,31,-1
 1090 -145 l 1,0,-1
EndSplineSet
Substitution2: "'locl' Localized Forms in Latin lookup 8 subtable" Eogonek.NAV
Substitution2: "'unic' Unicase lookup 2 subtable" Eogonek.unic
Substitution2: "'c2sc' Capitals to Small Capitals lookup 0 subtable" Eogonek.smcp
Position2: "'cpsp' Capital Spacing lookup 0 subtable" dx=36 dy=0 dh=72 dv=0
EndChar

StartChar: Eogonek.smcp
Encoding: 65593 -1 93
Width: 1000
GlyphClass: 2
Flags: W
AnchorPoint: "Anchor-1" 537 8 basechar 0
AnchorPoint: "Anchor-0" 537 1320 basechar 0
LayerCount: 2
Fore
SplineSet
939 103 m 1,0,-1
 939 0 l 1,1,-1
 884 0 l 1,2,3
 817 -52 817 -52 761 -108.5 c 128,-1,4
 705 -165 705 -165 705 -234 c 0,5,6
 705 -268 705 -268 723 -293 c 128,-1,7
 741 -318 741 -318 790 -318 c 0,8,9
 827 -318 827 -318 853 -306.5 c 128,-1,10
 879 -295 879 -295 895 -285 c 1,11,-1
 910 -370 l 1,12,13
 888 -385 888 -385 854 -399.5 c 128,-1,14
 820 -414 820 -414 767 -414 c 0,15,16
 693 -414 693 -414 645 -371.5 c 128,-1,17
 597 -329 597 -329 597 -244 c 0,18,19
 597 -181 597 -181 641.5 -117.5 c 128,-1,20
 686 -54 686 -54 764 0 c 1,21,-1
 155 0 l 1,22,-1
 155 1165 l 1,23,-1
 935 1165 l 1,24,-1
 935 1061 l 1,25,-1
 274 1061 l 1,26,-1
 274 656 l 1,27,-1
 851 656 l 1,28,-1
 851 553 l 1,29,-1
 274 553 l 1,30,-1
 274 103 l 1,31,-1
 939 103 l 1,0,-1
EndSplineSet
Substitution2: "'locl' Localized Forms in Latin lookup 8 subtable" Eogonek.smcp.NAV
EndChar

StartChar: Eth
Encoding: 208 208 96
Width: 1372
VWidth: 1798
GlyphClass: 2
Flags: W
AnchorPoint: "Anchor-1" 613 -240 basechar 0
AnchorPoint: "Anchor-0" 609 1362 basechar 0
LayerCount: 2
Fore
SplineSet
613 -250 m 2,0,-1
 215 -250 l 1,1,-1
 215 439 l 1,2,-1
 64 439 l 1,3,-1
 64 542 l 1,4,-1
 215 542 l 1,5,-1
 215 1206 l 1,6,-1
 622 1206 l 2,7,8
 804 1206 804 1206 944 1124 c 128,-1,9
 1084 1042 1084 1042 1164 893 c 128,-1,10
 1244 744 1244 744 1244 544 c 2,11,-1
 1244 412 l 2,12,13
 1244 212 1244 212 1164 63 c 128,-1,14
 1084 -86 1084 -86 942 -168 c 128,-1,15
 800 -250 800 -250 613 -250 c 2,0,-1
676 542 m 1,16,-1
 676 439 l 1,17,-1
 338 439 l 1,18,-1
 338 -145 l 1,19,-1
 613 -145 l 2,20,21
 769 -145 769 -145 883 -74.5 c 128,-1,22
 997 -4 997 -4 1059 121 c 128,-1,23
 1121 246 1121 246 1121 412 c 2,24,-1
 1121 547 l 2,25,26
 1121 715 1121 715 1059 839.5 c 128,-1,27
 997 964 997 964 884.5 1032 c 128,-1,28
 772 1100 772 1100 622 1100 c 2,29,-1
 338 1100 l 1,30,-1
 338 542 l 1,31,-1
 676 542 l 1,16,-1
EndSplineSet
Substitution2: "'c2sc' Capitals to Small Capitals lookup 0 subtable" Eth.smcp
Position2: "'cpsp' Capital Spacing lookup 0 subtable" dx=36 dy=0 dh=72 dv=0
EndChar

StartChar: Euro
Encoding: 8364 8364 98
Width: 1136
GlyphClass: 2
Flags: W
LayerCount: 2
Fore
SplineSet
814 84 m 0,0,1
 929 84 929 84 1033 118 c 1,2,-1
 1043 10 l 1,3,4
 989 -4 989 -4 930.5 -12 c 128,-1,5
 872 -20 872 -20 813 -20 c 0,6,7
 655 -20 655 -20 533.5 43.5 c 128,-1,8
 412 107 412 107 343.5 233.5 c 128,-1,9
 275 360 275 360 275 547 c 2,10,-1
 275 563 l 1,11,-1
 84 563 l 1,12,-1
 84 653 l 1,13,-1
 275 653 l 1,14,-1
 275 816 l 1,15,-1
 84 816 l 1,16,-1
 84 907 l 1,17,-1
 275 907 l 1,18,-1
 275 908 l 2,19,20
 275 1096 275 1096 343 1222.5 c 128,-1,21
 411 1349 411 1349 532 1412.5 c 128,-1,22
 653 1476 653 1476 811 1476 c 0,23,24
 872 1476 872 1476 928 1467.5 c 128,-1,25
 984 1459 984 1459 1043 1445 c 1,26,-1
 1033 1336 l 1,27,28
 983 1352 983 1352 927 1361.5 c 128,-1,29
 871 1371 871 1371 812 1371 c 0,30,31
 622 1371 622 1371 510.5 1257 c 128,-1,32
 399 1143 399 1143 399 910 c 2,33,-1
 399 907 l 1,34,-1
 818 907 l 1,35,-1
 818 816 l 1,36,-1
 399 816 l 1,37,-1
 399 653 l 1,38,-1
 818 653 l 1,39,-1
 818 563 l 1,40,-1
 399 563 l 1,41,-1
 399 547 l 2,42,43
 399 317 399 317 512 200.5 c 128,-1,44
 625 84 625 84 814 84 c 0,0,1
EndSplineSet
Substitution2: "'c2sc' Capitals to Small Capitals lookup 0 subtable" Euro.smcp
Position2: "'cpsp' Capital Spacing lookup 0 subtable" dx=36 dy=0 dh=72 dv=0
EndChar

StartChar: Euro.smcp
Encoding: 65597 -1 99
Width: 959
GlyphClass: 2
Flags: W
LayerCount: 2
Fore
SplineSet
674 84 m 0,0,1
 732 84 732 84 780.5 92 c 128,-1,2
 829 100 829 100 880 115 c 1,3,-1
 893 13 l 1,4,5
 840 -2 840 -2 786.5 -10 c 128,-1,6
 733 -18 733 -18 674 -18 c 0,7,8
 473 -18 473 -18 357.5 97.5 c 128,-1,9
 242 213 242 213 224 424 c 1,10,-1
 54 424 l 1,11,-1
 54 511 l 1,12,-1
 221 511 l 1,13,-1
 221 644 l 1,14,-1
 54 644 l 1,15,-1
 54 731 l 1,16,-1
 224 731 l 1,17,18
 240 945 240 945 355 1063 c 128,-1,19
 470 1181 470 1181 672 1181 c 0,20,21
 732 1181 732 1181 783 1172.5 c 128,-1,22
 834 1164 834 1164 893 1150 c 1,23,-1
 883 1047 l 1,24,25
 783 1078 783 1078 672 1078 c 0,26,27
 516 1078 516 1078 436 988 c 128,-1,28
 356 898 356 898 343 731 c 1,29,-1
 775 731 l 1,30,-1
 775 644 l 1,31,-1
 341 644 l 1,32,-1
 341 511 l 1,33,-1
 775 511 l 1,34,-1
 775 424 l 1,35,-1
 344 424 l 1,36,37
 359 263 359 263 439.5 173.5 c 128,-1,38
 520 84 520 84 674 84 c 0,0,1
EndSplineSet
EndChar

StartChar: F
Encoding: 70 70 100
Width: 1152
VWidth: 1798
GlyphClass: 2
Flags: W
AnchorPoint: "Anchor-1" 619 -240 basechar 0
AnchorPoint: "Anchor-0" 619 1362 basechar 0
LayerCount: 2
Fore
SplineSet
986 537 m 1,0,-1
 986 430 l 1,1,-1
 308 430 l 1,2,-1
 308 -250 l 1,3,-1
 185 -250 l 1,4,-1
 185 1206 l 1,5,-1
 1087 1206 l 1,6,-1
 1087 1100 l 1,7,-1
 308 1100 l 1,8,-1
 308 537 l 1,9,-1
 986 537 l 1,0,-1
EndSplineSet
Substitution2: "'c2sc' Capitals to Small Capitals lookup 0 subtable" F.smcp
Position2: "'cpsp' Capital Spacing lookup 0 subtable" dx=36 dy=0 dh=72 dv=0
EndChar

StartChar: F.smcp
Encoding: 65598 -1 101
Width: 989
GlyphClass: 2
Flags: W
AnchorPoint: "Anchor-1" 489 10 basechar 0
AnchorPoint: "Anchor-0" 541 1320 basechar 0
LayerCount: 2
Fore
SplineSet
851 636 m 1,0,-1
 851 533 l 1,1,-1
 274 533 l 1,2,-1
 274 0 l 1,3,-1
 155 0 l 1,4,-1
 155 1165 l 1,5,-1
 934 1165 l 1,6,-1
 934 1061 l 1,7,-1
 274 1061 l 1,8,-1
 274 636 l 1,9,-1
 851 636 l 1,0,-1
EndSplineSet
EndChar

StartChar: G
Encoding: 71 71 102
Width: 1401
VWidth: 1798
GlyphClass: 2
Flags: W
AnchorPoint: "Anchor-1" 730 -259 basechar 0
AnchorPoint: "Anchor-0" 672 1383 basechar 0
LayerCount: 2
Fore
SplineSet
1236 443 m 1,0,-1
 1236 -76 l 1,1,2
 1211 -112 1211 -112 1150 -157.5 c 128,-1,3
 1089 -203 1089 -203 986 -236.5 c 128,-1,4
 883 -270 883 -270 730 -270 c 0,5,6
 558 -270 558 -270 426 -188.5 c 128,-1,7
 294 -107 294 -107 219.5 42.5 c 128,-1,8
 145 192 145 192 145 396 c 2,9,-1
 145 572 l 2,10,11
 145 772 145 772 214 919 c 128,-1,12
 283 1066 283 1066 409.5 1146 c 128,-1,13
 536 1226 536 1226 710 1226 c 0,14,15
 872 1226 872 1226 983 1170 c 128,-1,16
 1094 1114 1094 1114 1156.5 1016.5 c 128,-1,17
 1219 919 1219 919 1235 796 c 1,18,-1
 1111 796 l 1,19,20
 1097 883 1097 883 1052.5 957 c 128,-1,21
 1008 1031 1008 1031 925 1075.5 c 128,-1,22
 842 1120 842 1120 710 1120 c 0,23,24
 569 1120 569 1120 470.5 1051.5 c 128,-1,25
 372 983 372 983 320.5 860.5 c 128,-1,26
 269 738 269 738 269 574 c 2,27,-1
 269 396 l 2,28,29
 269 227 269 227 326.5 100.5 c 128,-1,30
 384 -26 384 -26 487.5 -95.5 c 128,-1,31
 591 -165 591 -165 730 -165 c 0,32,33
 897 -165 897 -165 989.5 -120.5 c 128,-1,34
 1082 -76 1082 -76 1113 -38 c 1,35,-1
 1113 337 l 1,36,-1
 722 337 l 1,37,-1
 722 443 l 1,38,-1
 1236 443 l 1,0,-1
EndSplineSet
Substitution2: "'c2sc' Capitals to Small Capitals lookup 0 subtable" G.smcp
Position2: "'cpsp' Capital Spacing lookup 0 subtable" dx=36 dy=0 dh=72 dv=0
EndChar

StartChar: G.smcp
Encoding: 65599 -1 103
Width: 1202
GlyphClass: 2
Flags: W
AnchorPoint: "Anchor-1" 591 -4 basechar 0
AnchorPoint: "Anchor-0" 584 1320 basechar 0
LayerCount: 2
Fore
SplineSet
1067 563 m 1,0,-1
 1067 140 l 1,1,2
 1044 110 1044 110 990.5 73.5 c 128,-1,3
 937 37 937 37 848 10.5 c 128,-1,4
 759 -16 759 -16 627 -16 c 0,5,6
 478 -16 478 -16 364 49.5 c 128,-1,7
 250 115 250 115 185.5 235.5 c 128,-1,8
 121 356 121 356 121 522 c 2,9,-1
 121 652 l 2,10,11
 121 815 121 815 180.5 933.5 c 128,-1,12
 240 1052 240 1052 350 1116.5 c 128,-1,13
 460 1181 460 1181 610 1181 c 0,14,15
 823 1181 823 1181 934 1081 c 128,-1,16
 1045 981 1045 981 1065 830 c 1,17,-1
 947 830 l 1,18,19
 929 931 929 931 852.5 1004.5 c 128,-1,20
 776 1078 776 1078 611 1078 c 0,21,22
 433 1078 433 1078 337 962.5 c 128,-1,23
 241 847 241 847 241 654 c 2,24,-1
 241 522 l 2,25,26
 241 322 241 322 346.5 204 c 128,-1,27
 452 86 452 86 629 86 c 0,28,29
 767 86 767 86 844 119.5 c 128,-1,30
 921 153 921 153 947 181 c 1,31,-1
 947 464 l 1,32,-1
 618 464 l 1,33,-1
 618 563 l 1,34,-1
 1067 563 l 1,0,-1
EndSplineSet
EndChar

StartChar: Germandbls.smcp
Encoding: 65604 -1 111
Width: 1085
GlyphClass: 2
Flags: W
LayerCount: 2
Fore
SplineSet
379 34 m 1,0,-1
 418 135 l 1,1,2
 452 116 452 116 500.5 99 c 128,-1,3
 549 82 549 82 607 82 c 0,4,5
 734 82 734 82 809 150.5 c 128,-1,6
 884 219 884 219 884 346 c 0,7,8
 884 453 884 453 808 511.5 c 128,-1,9
 732 570 732 570 562 570 c 2,10,-1
 488 570 l 1,11,-1
 488 665 l 1,12,-1
 767 978 l 1,13,14
 730 1021 730 1021 671 1051 c 128,-1,15
 612 1081 612 1081 534 1081 c 0,16,17
 392 1081 392 1081 332.5 995 c 128,-1,18
 273 909 273 909 273 751 c 2,19,-1
 273 0 l 1,20,-1
 155 0 l 1,21,-1
 155 753 l 1,22,-1
 155 753 l 1,23,24
 156 956 156 956 243 1068.5 c 128,-1,25
 330 1181 330 1181 534 1181 c 0,26,27
 658 1181 658 1181 748.5 1130 c 128,-1,28
 839 1079 839 1079 914 994 c 1,29,-1
 617 664 l 1,30,31
 805 656 805 656 904.5 572 c 128,-1,32
 1004 488 1004 488 1004 347 c 0,33,34
 1004 172 1004 172 896 76 c 128,-1,35
 788 -20 788 -20 607 -20 c 0,36,37
 548 -20 548 -20 490 -7 c 128,-1,38
 432 6 432 6 379 34 c 1,0,-1
EndSplineSet
EndChar

StartChar: H
Encoding: 72 72 112
Width: 1450
VWidth: 1798
GlyphClass: 2
Flags: W
AnchorPoint: "Anchor-1" 714 -240 basechar 0
AnchorPoint: "Anchor-0" 712 1362 basechar 0
LayerCount: 2
Fore
SplineSet
308 1206 m 1,0,-1
 308 553 l 1,1,-1
 1140 553 l 1,2,-1
 1140 1206 l 1,3,-1
 1263 1206 l 1,4,-1
 1263 -250 l 1,5,-1
 1140 -250 l 1,6,-1
 1140 448 l 1,7,-1
 308 448 l 1,8,-1
 308 -250 l 1,9,-1
 185 -250 l 1,10,-1
 185 1206 l 1,11,-1
 308 1206 l 1,0,-1
EndSplineSet
Substitution2: "'c2sc' Capitals to Small Capitals lookup 0 subtable" H.smcp
Position2: "'cpsp' Capital Spacing lookup 0 subtable" dx=36 dy=0 dh=72 dv=0
EndChar

StartChar: H.smcp
Encoding: 65605 -1 113
Width: 1245
GlyphClass: 2
Flags: W
AnchorPoint: "Anchor-1" 615 10 basechar 0
AnchorPoint: "Anchor-0" 615 1320 basechar 0
LayerCount: 2
Fore
SplineSet
274 1165 m 1,0,-1
 274 628 l 1,1,-1
 971 628 l 1,2,-1
 971 1165 l 1,3,-1
 1090 1165 l 1,4,-1
 1090 0 l 1,5,-1
 971 0 l 1,6,-1
 971 524 l 1,7,-1
 274 524 l 1,8,-1
 274 0 l 1,9,-1
 155 0 l 1,10,-1
 155 1165 l 1,11,-1
 274 1165 l 1,0,-1
EndSplineSet
EndChar

StartChar: Hbar
Encoding: 294 294 114
Width: 1412
VWidth: 1798
GlyphClass: 2
Flags: W
AnchorPoint: "Anchor-1" 724 -240 basechar 0
AnchorPoint: "Anchor-0" 724 1362 basechar 0
LayerCount: 2
Fore
SplineSet
285 1206 m 1,0,-1
 285 874 l 1,1,-1
 1117 874 l 1,2,-1
 1117 1206 l 1,3,-1
 1240 1206 l 1,4,-1
 1240 874 l 1,5,-1
 1385 874 l 1,6,-1
 1385 776 l 1,7,-1
 1240 776 l 1,8,-1
 1240 -250 l 1,9,-1
 1117 -250 l 1,10,-1
 1117 448 l 1,11,-1
 285 448 l 1,12,-1
 285 -250 l 1,13,-1
 162 -250 l 1,14,-1
 162 776 l 1,15,-1
 25 776 l 1,16,-1
 25 874 l 1,17,-1
 162 874 l 1,18,-1
 162 1206 l 1,19,-1
 285 1206 l 1,0,-1
285 553 m 1,20,-1
 1117 553 l 1,21,-1
 1117 776 l 1,22,-1
 285 776 l 1,23,-1
 285 553 l 1,20,-1
EndSplineSet
Substitution2: "'c2sc' Capitals to Small Capitals lookup 0 subtable" Hbar.smcp
Position2: "'cpsp' Capital Spacing lookup 0 subtable" dx=36 dy=0 dh=72 dv=0
EndChar

StartChar: Hbar.smcp
Encoding: 65606 -1 115
Width: 1244
GlyphClass: 2
Flags: W
AnchorPoint: "Anchor-1" 615 10 basechar 0
AnchorPoint: "Anchor-0" 615 1320 basechar 0
LayerCount: 2
Fore
SplineSet
274 1165 m 1,0,-1
 274 962 l 1,1,-1
 971 962 l 1,2,-1
 971 1165 l 1,3,-1
 1090 1165 l 1,4,-1
 1090 962 l 1,5,-1
 1181 962 l 1,6,-1
 1181 859 l 1,7,-1
 1090 859 l 1,8,-1
 1090 0 l 1,9,-1
 971 0 l 1,10,-1
 971 524 l 1,11,-1
 274 524 l 1,12,-1
 274 0 l 1,13,-1
 155 0 l 1,14,-1
 155 859 l 1,15,-1
 63 859 l 1,16,-1
 63 962 l 1,17,-1
 155 962 l 1,18,-1
 155 1165 l 1,19,-1
 274 1165 l 1,0,-1
274 628 m 1,20,-1
 971 628 l 1,21,-1
 971 859 l 1,22,-1
 274 859 l 1,23,-1
 274 628 l 1,20,-1
EndSplineSet
EndChar

StartChar: I
Encoding: 73 73 118
Width: 546
VWidth: 1798
GlyphClass: 2
Flags: W
AnchorPoint: "Anchor-1" 279 -241 basechar 0
AnchorPoint: "Anchor-0" 279 1362 basechar 0
LayerCount: 2
Fore
SplineSet
335 1206 m 1,0,-1
 335 -250 l 1,1,-1
 212 -250 l 1,2,-1
 212 1206 l 1,3,-1
 335 1206 l 1,0,-1
EndSplineSet
Substitution2: "'c2sc' Capitals to Small Capitals lookup 0 subtable" I.smcp
Position2: "'cpsp' Capital Spacing lookup 0 subtable" dx=36 dy=0 dh=72 dv=0
EndChar

StartChar: I.smcp
Encoding: 65608 -1 119
Width: 475
GlyphClass: 2
Flags: W
AnchorPoint: "Anchor-1" 244 4 basechar 0
AnchorPoint: "Anchor-0" 244 1320 basechar 0
LayerCount: 2
Fore
SplineSet
297 1165 m 1,0,-1
 297 0 l 1,1,-1
 178 0 l 1,2,-1
 178 1165 l 1,3,-1
 297 1165 l 1,0,-1
EndSplineSet
EndChar

StartChar: J
Encoding: 74 74 140
Width: 1128
VWidth: 1798
GlyphClass: 2
Flags: W
AnchorPoint: "Anchor-1" 512 -260 basechar 0
AnchorPoint: "Anchor-0" 852 1349 basechar 0
LayerCount: 2
Fore
SplineSet
828 184 m 2,0,-1
 828 1206 l 1,1,-1
 951 1206 l 1,2,-1
 951 184 l 2,3,4
 951 37 951 37 894 -64 c 128,-1,5
 837 -165 837 -165 737.5 -217.5 c 128,-1,6
 638 -270 638 -270 512 -270 c 0,7,8
 315 -270 315 -270 193.5 -166 c 128,-1,9
 72 -62 72 -62 72 152 c 1,10,-1
 195 152 l 1,11,12
 195 -5 195 -5 278.5 -85 c 128,-1,13
 362 -165 362 -165 512 -165 c 0,14,15
 644 -165 644 -165 736 -76.5 c 128,-1,16
 828 12 828 12 828 184 c 2,0,-1
EndSplineSet
Substitution2: "'c2sc' Capitals to Small Capitals lookup 0 subtable" J.smcp
Position2: "'cpsp' Capital Spacing lookup 0 subtable" dx=36 dy=0 dh=72 dv=0
EndChar

StartChar: J.smcp
Encoding: 65619 -1 141
Width: 971
GlyphClass: 2
Flags: W
AnchorPoint: "Anchor-1" 457 -10 basechar 0
AnchorPoint: "Anchor-0" 734 1320 basechar 0
LayerCount: 2
Fore
SplineSet
703 337 m 2,0,-1
 703 1165 l 1,1,-1
 824 1165 l 1,2,-1
 824 337 l 2,3,4
 824 172 824 172 719 78 c 128,-1,5
 614 -16 614 -16 453 -16 c 0,6,7
 281 -16 281 -16 170.5 68 c 128,-1,8
 60 152 60 152 60 326 c 1,9,-1
 180 326 l 1,10,11
 180 205 180 205 252.5 145.5 c 128,-1,12
 325 86 325 86 453 86 c 0,13,14
 561 86 561 86 632 153 c 128,-1,15
 703 220 703 220 703 337 c 2,0,-1
EndSplineSet
EndChar

StartChar: K
Encoding: 75 75 144
Width: 1293
VWidth: 1798
GlyphClass: 2
Flags: W
AnchorPoint: "Anchor-1" 660 -160 basechar 0
AnchorPoint: "Anchor-0" 605 1345 basechar 0
LayerCount: 2
Fore
SplineSet
1106 -250 m 1,0,-1
 514 473 l 1,1,-1
 308 271 l 1,2,-1
 308 -250 l 1,3,-1
 185 -250 l 1,4,-1
 185 1206 l 1,5,-1
 308 1206 l 1,6,-1
 308 424 l 1,7,-1
 506 630 l 1,8,-1
 1054 1206 l 1,9,-1
 1209 1206 l 1,10,-1
 599 558 l 1,11,-1
 1256 -250 l 1,12,-1
 1106 -250 l 1,0,-1
EndSplineSet
Substitution2: "'salt' Stylistic Alternatives lookup 13 subtable" K.alt
Substitution2: "'c2sc' Capitals to Small Capitals lookup 0 subtable" K.smcp
Position2: "'cpsp' Capital Spacing lookup 0 subtable" dx=36 dy=0 dh=72 dv=0
EndChar

StartChar: K.alt
Encoding: 65621 -1 145
Width: 1308
GlyphClass: 2
Flags: W
LayerCount: 2
Fore
SplineSet
1115 0 m 1,0,-1
 513 683 l 1,1,-1
 313 683 l 1,2,-1
 313 0 l 1,3,-1
 189 0 l 1,4,-1
 189 1456 l 1,5,-1
 313 1456 l 1,6,-1
 313 790 l 1,7,-1
 507 790 l 1,8,-1
 1070 1456 l 1,9,-1
 1225 1456 l 1,10,-1
 627 742 l 1,11,-1
 1269 0 l 1,12,-1
 1115 0 l 1,0,-1
EndSplineSet
EndChar

StartChar: K.smcp
Encoding: 65622 -1 146
Width: 1113
GlyphClass: 2
Flags: W
AnchorPoint: "Anchor-1" 532 6 basechar 0
AnchorPoint: "Anchor-0" 518 1320 basechar 0
LayerCount: 2
Fore
SplineSet
937 0 m 1,0,-1
 445 565 l 1,1,-1
 274 405 l 1,2,-1
 274 0 l 1,3,-1
 155 0 l 1,4,-1
 155 1165 l 1,5,-1
 274 1165 l 1,6,-1
 274 553 l 1,7,-1
 439 720 l 1,8,-1
 892 1165 l 1,9,-1
 1044 1165 l 1,10,-1
 532 647 l 1,11,-1
 1086 0 l 1,12,-1
 937 0 l 1,0,-1
EndSplineSet
EndChar

StartChar: L
Encoding: 76 76 149
Width: 1080
VWidth: 1798
GlyphClass: 2
Flags: W
AnchorPoint: "Anchor-1" 620 -240 basechar 0
AnchorPoint: "Anchor-0" 264 1346 basechar 0
LayerCount: 2
Fore
SplineSet
1027 -145 m 1,0,-1
 1027 -250 l 1,1,-1
 185 -250 l 1,2,-1
 185 1206 l 1,3,-1
 309 1206 l 1,4,-1
 309 -145 l 1,5,-1
 1027 -145 l 1,0,-1
EndSplineSet
Substitution2: "'c2sc' Capitals to Small Capitals lookup 0 subtable" L.smcp
Position2: "'cpsp' Capital Spacing lookup 0 subtable" dx=36 dy=0 dh=72 dv=0
EndChar

StartChar: L.smcp
Encoding: 65624 -1 150
Width: 931
GlyphClass: 2
Flags: W
AnchorPoint: "Anchor-1" 527 8 basechar 0
AnchorPoint: "Anchor-0" 233 1320 basechar 0
LayerCount: 2
Fore
SplineSet
886 103 m 1,0,-1
 886 0 l 1,1,-1
 155 0 l 1,2,-1
 155 1165 l 1,3,-1
 274 1165 l 1,4,-1
 274 103 l 1,5,-1
 886 103 l 1,0,-1
EndSplineSet
EndChar

StartChar: Lslash
Encoding: 321 321 161
Width: 1082
VWidth: 1798
GlyphClass: 2
Flags: W
AnchorPoint: "Anchor-1" 618 -240 basechar 0
AnchorPoint: "Anchor-0" 262 1346 basechar 0
LayerCount: 2
Fore
SplineSet
1023 -145 m 1,0,-1
 1023 -250 l 1,1,-1
 181 -250 l 1,2,-1
 181 438 l 1,3,-1
 21 387 l 1,4,-1
 21 478 l 1,5,-1
 181 529 l 1,6,-1
 181 1206 l 1,7,-1
 304 1206 l 1,8,-1
 304 568 l 1,9,-1
 611 665 l 1,10,-1
 611 574 l 1,11,-1
 304 477 l 1,12,-1
 304 -145 l 1,13,-1
 1023 -145 l 1,0,-1
EndSplineSet
Substitution2: "'c2sc' Capitals to Small Capitals lookup 0 subtable" Lslash.smcp
Position2: "'cpsp' Capital Spacing lookup 0 subtable" dx=36 dy=0 dh=72 dv=0
EndChar

StartChar: Lslash.smcp
Encoding: 65631 -1 162
Width: 931
GlyphClass: 2
Flags: W
AnchorPoint: "Anchor-1" 527 8 basechar 0
AnchorPoint: "Anchor-0" 233 1320 basechar 0
LayerCount: 2
Fore
SplineSet
886 103 m 1,0,-1
 886 0 l 1,1,-1
 155 0 l 1,2,-1
 155 513 l 1,3,-1
 5 465 l 1,4,-1
 5 556 l 1,5,-1
 155 604 l 1,6,-1
 155 1165 l 1,7,-1
 274 1165 l 1,8,-1
 274 641 l 1,9,-1
 594 743 l 1,10,-1
 594 652 l 1,11,-1
 274 550 l 1,12,-1
 274 103 l 1,13,-1
 886 103 l 1,0,-1
EndSplineSet
EndChar

StartChar: M
Encoding: 77 77 163
Width: 1772
VWidth: 1798
GlyphClass: 2
Flags: W
AnchorPoint: "Anchor-1" 893 -240 basechar 0
AnchorPoint: "Anchor-0" 890 1351 basechar 0
LayerCount: 2
Fore
SplineSet
185 1206 m 1,0,-1
 347 1206 l 1,1,-1
 885 -76 l 1,2,-1
 1424 1206 l 1,3,-1
 1587 1206 l 1,4,-1
 1587 -250 l 1,5,-1
 1464 -250 l 1,6,-1
 1464 386 l 1,7,-1
 1475 1034 l 1,8,-1
 932 -250 l 1,9,-1
 838 -250 l 1,10,-1
 297 1031 l 1,11,-1
 308 386 l 1,12,-1
 308 -250 l 1,13,-1
 185 -250 l 1,14,-1
 185 1206 l 1,0,-1
EndSplineSet
Substitution2: "'unic' Unicase lookup 2 subtable" M.unic
Substitution2: "'c2sc' Capitals to Small Capitals lookup 0 subtable" M.smcp
Position2: "'cpsp' Capital Spacing lookup 0 subtable" dx=36 dy=0 dh=72 dv=0
EndChar

StartChar: M.smcp
Encoding: 65632 -1 164
Width: 1525
GlyphClass: 2
Flags: W
AnchorPoint: "Anchor-1" 765 10 basechar 0
AnchorPoint: "Anchor-0" 765 1320 basechar 0
LayerCount: 2
Fore
SplineSet
155 1165 m 1,0,-1
 312 1165 l 1,1,-1
 762 168 l 1,2,-1
 1212 1165 l 1,3,-1
 1371 1165 l 1,4,-1
 1371 0 l 1,5,-1
 1251 0 l 1,6,-1
 1251 476 l 1,7,-1
 1262 1018 l 1,8,-1
 806 0 l 1,9,-1
 717 0 l 1,10,-1
 263 1013 l 1,11,-1
 274 476 l 1,12,-1
 274 0 l 1,13,-1
 155 0 l 1,14,-1
 155 1165 l 1,0,-1
EndSplineSet
EndChar

StartChar: M.unic
Encoding: 65633 -1 165
Width: 2223
GlyphClass: 2
Flags: W
AnchorPoint: "Anchor-1" 1118 10 basechar 0
AnchorPoint: "Anchor-0" 1114 1632 basechar 0
LayerCount: 2
Fore
SplineSet
737 1368 m 0,0,1
 620 1368 620 1368 532.5 1315.5 c 128,-1,2
 445 1263 445 1263 388.5 1182 c 128,-1,3
 332 1101 332 1101 308 1016 c 1,4,-1
 308 0 l 1,5,-1
 185 0 l 1,6,-1
 185 1456 l 1,7,-1
 303 1456 l 1,8,-1
 308 1209 l 1,9,10
 374 1328 374 1328 493.5 1402 c 128,-1,11
 613 1476 613 1476 766 1476 c 0,12,13
 922 1476 922 1476 1024.5 1408 c 128,-1,14
 1127 1340 1127 1340 1166 1184 c 1,15,16
 1230 1313 1230 1313 1355.5 1394.5 c 128,-1,17
 1481 1476 1481 1476 1645 1476 c 0,18,19
 1848 1476 1848 1476 1959 1361 c 128,-1,20
 2070 1246 2070 1246 2070 973 c 2,21,-1
 2070 0 l 1,22,-1
 1946 0 l 1,23,-1
 1946 974 l 2,24,25
 1946 1196 1946 1196 1858 1282 c 128,-1,26
 1770 1368 1770 1368 1617 1368 c 0,27,28
 1499 1368 1499 1368 1411.5 1315 c 128,-1,29
 1324 1262 1324 1262 1268 1181 c 128,-1,30
 1212 1100 1212 1100 1188 1015 c 1,31,32
 1189 995 1189 995 1189 973 c 2,33,-1
 1189 0 l 1,34,-1
 1066 0 l 1,35,-1
 1066 974 l 2,36,37
 1066 1122 1066 1122 1026 1208 c 128,-1,38
 986 1294 986 1294 912.5 1331 c 128,-1,39
 839 1368 839 1368 737 1368 c 0,0,1
EndSplineSet
EndChar

StartChar: N
Encoding: 78 78 166
Width: 1455
VWidth: 1798
GlyphClass: 2
Flags: W
AnchorPoint: "Anchor-1" 720 -240 basechar 0
AnchorPoint: "Anchor-0" 726 1351 basechar 0
LayerCount: 2
Fore
SplineSet
1269 1206 m 1,0,-1
 1269 -250 l 1,1,-1
 1145 -250 l 1,2,-1
 309 994 l 1,3,-1
 309 -250 l 1,4,-1
 185 -250 l 1,5,-1
 185 1206 l 1,6,-1
 309 1206 l 1,7,-1
 1147 -38 l 1,8,-1
 1147 1206 l 1,9,-1
 1269 1206 l 1,0,-1
EndSplineSet
Substitution2: "'unic' Unicase lookup 2 subtable" N.unic
Substitution2: "'c2sc' Capitals to Small Capitals lookup 0 subtable" N.smcp
Position2: "'cpsp' Capital Spacing lookup 0 subtable" dx=36 dy=0 dh=72 dv=0
EndChar

StartChar: N.smcp
Encoding: 65634 -1 167
Width: 1249
GlyphClass: 2
Flags: W
AnchorPoint: "Anchor-1" 619 4 basechar 0
AnchorPoint: "Anchor-0" 624 1320 basechar 0
LayerCount: 2
Fore
SplineSet
1095 1165 m 1,0,-1
 1095 0 l 1,1,-1
 975 0 l 1,2,-1
 274 976 l 1,3,-1
 274 0 l 1,4,-1
 155 0 l 1,5,-1
 155 1165 l 1,6,-1
 274 1165 l 1,7,-1
 975 191 l 1,8,-1
 975 1165 l 1,9,-1
 1095 1165 l 1,0,-1
EndSplineSet
EndChar

StartChar: N.unic
Encoding: 65635 -1 168
Width: 1450
GlyphClass: 2
Flags: W
AnchorPoint: "Anchor-1" 720 10 basechar 0
AnchorPoint: "Anchor-0" 726 1632 basechar 0
LayerCount: 2
Fore
SplineSet
777 1368 m 0,0,1
 648 1368 648 1368 552 1313.5 c 128,-1,2
 456 1259 456 1259 394.5 1174.5 c 128,-1,3
 333 1090 333 1090 308 1002 c 1,4,-1
 308 0 l 1,5,-1
 185 0 l 1,6,-1
 185 1456 l 1,7,-1
 303 1456 l 1,8,-1
 308 1193 l 1,9,10
 378 1318 378 1318 508 1397 c 128,-1,11
 638 1476 638 1476 806 1476 c 0,12,13
 1024 1476 1024 1476 1143.5 1359 c 128,-1,14
 1263 1242 1263 1242 1263 964 c 2,15,-1
 1263 0 l 1,16,-1
 1140 0 l 1,17,-1
 1140 965 l 2,18,19
 1140 1116 1140 1116 1096 1204 c 128,-1,20
 1052 1292 1052 1292 971 1330 c 128,-1,21
 890 1368 890 1368 777 1368 c 0,0,1
EndSplineSet
EndChar

StartChar: NameMe.65564
Encoding: 65638 -1 172
Width: 521
GlyphClass: 1
Flags: W
LayerCount: 2
Fore
SplineSet
168 1220 m 1,0,-1
 278 1220 l 1,1,-1
 278 391 l 2,2,3
 278 239 278 239 334 180.5 c 128,-1,4
 390 122 390 122 498 122 c 2,5,-1
 541 122 l 1,6,-1
 541 0 l 1,7,-1
 498 0 l 2,8,9
 324 0 324 0 246 96 c 128,-1,10
 168 192 168 192 168 391 c 2,11,-1
 168 1220 l 1,0,-1
EndSplineSet
EndChar

StartChar: NameMe.65565
Encoding: 65639 -1 173
Width: 720
GlyphClass: 1
Flags: W
LayerCount: 2
Fore
SplineSet
525 205 m 0,0,1
 539 205 539 205 562 202.5 c 128,-1,2
 585 200 585 200 608 192 c 1,3,-1
 595 124 l 1,4,5
 553 134 553 134 525 134 c 0,6,7
 452 134 452 134 406.5 88 c 128,-1,8
 361 42 361 42 361 -11 c 0,9,10
 361 -66 361 -66 416 -66 c 2,11,-1
 500 -66 l 2,12,13
 550 -66 550 -66 582.5 -90.5 c 128,-1,14
 615 -115 615 -115 615 -162 c 0,15,16
 615 -280 615 -280 518 -344 c 128,-1,17
 421 -408 421 -408 277 -408 c 0,18,19
 181 -408 181 -408 111 -379 c 1,20,-1
 143 -313 l 1,21,22
 171 -325 171 -325 204 -331.5 c 128,-1,23
 237 -338 237 -338 279 -338 c 0,24,25
 341 -338 341 -338 403.5 -319.5 c 128,-1,26
 466 -301 466 -301 507.5 -265 c 128,-1,27
 549 -229 549 -229 549 -178 c 0,28,29
 549 -154 549 -154 528.5 -145.5 c 128,-1,30
 508 -137 508 -137 485 -137 c 2,31,-1
 410 -137 l 2,32,33
 355 -137 355 -137 323.5 -108 c 128,-1,34
 292 -79 292 -79 292 -19 c 0,35,36
 292 82 292 82 363 143.5 c 128,-1,37
 434 205 434 205 525 205 c 0,0,1
EndSplineSet
EndChar

StartChar: NameMe.65583
Encoding: 65641 -1 175
Width: 471
GlyphClass: 1
Flags: W
LayerCount: 2
Fore
SplineSet
-32 1336 m 1,0,-1
 -20 1394 l 1,1,2
 -6 1382 -6 1382 13.5 1369 c 128,-1,3
 33 1356 33 1356 52 1349 c 1,4,5
 132 1485 132 1485 196.5 1546.5 c 128,-1,6
 261 1608 261 1608 337 1608 c 0,7,8
 412 1608 412 1608 459.5 1562 c 128,-1,9
 507 1516 507 1516 507 1445 c 0,10,11
 507 1344 507 1344 431.5 1311 c 128,-1,12
 356 1278 356 1278 207 1278 c 2,13,-1
 182 1278 l 2,14,15
 104 1278 104 1278 48 1290.5 c 128,-1,16
 -8 1303 -8 1303 -32 1336 c 1,0,-1
205 1339 m 2,17,18
 319 1339 319 1339 383.5 1356.5 c 128,-1,19
 448 1374 448 1374 448 1441 c 0,20,21
 448 1485 448 1485 418.5 1515 c 128,-1,22
 389 1545 389 1545 342 1545 c 0,23,24
 278 1545 278 1545 226.5 1491 c 128,-1,25
 175 1437 175 1437 112 1339 c 1,26,-1
 205 1339 l 2,17,18
EndSplineSet
EndChar

StartChar: NameMe.65703
Encoding: 65642 -1 176
Width: 445
GlyphClass: 1
Flags: W
LayerCount: 2
Fore
SplineSet
278 1220 m 1,0,-1
 278 0 l 1,1,-1
 168 0 l 1,2,-1
 168 1220 l 1,3,-1
 278 1220 l 1,0,-1
EndSplineSet
EndChar

StartChar: O
Encoding: 79 79 186
Width: 1387
VWidth: 1798
GlyphClass: 2
Flags: W
AnchorPoint: "Anchor-1" 707 -250 basechar 0
AnchorPoint: "Anchor-0" 707 1353 basechar 0
LayerCount: 2
Fore
SplineSet
1261 556 m 2,0,-1
 1261 401 l 2,1,2
 1261 196 1261 196 1191 45.5 c 128,-1,3
 1121 -105 1121 -105 994 -187.5 c 128,-1,4
 867 -270 867 -270 695 -270 c 0,5,6
 525 -270 525 -270 397 -187.5 c 128,-1,7
 269 -105 269 -105 197.5 45.5 c 128,-1,8
 126 196 126 196 126 401 c 2,9,-1
 126 556 l 2,10,11
 126 760 126 760 197 910.5 c 128,-1,12
 268 1061 268 1061 395.5 1143.5 c 128,-1,13
 523 1226 523 1226 693 1226 c 0,14,15
 865 1226 865 1226 992.5 1143.5 c 128,-1,16
 1120 1061 1120 1061 1190.5 910.5 c 128,-1,17
 1261 760 1261 760 1261 556 c 2,0,-1
1138 401 m 2,18,-1
 1138 558 l 2,19,20
 1138 815 1138 815 1021 966 c 128,-1,21
 904 1117 904 1117 693 1117 c 0,22,23
 486 1117 486 1117 367.5 966 c 128,-1,24
 249 815 249 815 249 558 c 2,25,-1
 249 401 l 2,26,27
 249 142 249 142 368.5 -10 c 128,-1,28
 488 -162 488 -162 695 -162 c 0,29,30
 907 -162 907 -162 1022.5 -10 c 128,-1,31
 1138 142 1138 142 1138 401 c 2,18,-1
EndSplineSet
Substitution2: "'c2sc' Capitals to Small Capitals lookup 0 subtable" O.smcp
Position2: "'cpsp' Capital Spacing lookup 0 subtable" dx=36 dy=0 dh=72 dv=0
EndChar

StartChar: O.smcp
Encoding: 65649 -1 187
Width: 1194
GlyphClass: 2
Flags: W
AnchorPoint: "Anchor-1" 631 0 basechar 0
AnchorPoint: "Anchor-0" 606 1320 basechar 0
LayerCount: 2
Fore
SplineSet
1088 639 m 2,0,-1
 1088 526 l 2,1,2
 1088 360 1088 360 1027.5 238.5 c 128,-1,3
 967 117 967 117 857 50.5 c 128,-1,4
 747 -16 747 -16 598 -16 c 0,5,6
 451 -16 451 -16 340 50.5 c 128,-1,7
 229 117 229 117 167 238.5 c 128,-1,8
 105 360 105 360 105 526 c 2,9,-1
 105 639 l 2,10,11
 105 805 105 805 166.5 926.5 c 128,-1,12
 228 1048 228 1048 338.5 1114.5 c 128,-1,13
 449 1181 449 1181 596 1181 c 0,14,15
 745 1181 745 1181 855.5 1114.5 c 128,-1,16
 966 1048 966 1048 1027 926.5 c 128,-1,17
 1088 805 1088 805 1088 639 c 2,0,-1
970 526 m 2,18,-1
 970 641 l 2,19,20
 970 842 970 842 871.5 959 c 128,-1,21
 773 1076 773 1076 596 1076 c 0,22,23
 423 1076 423 1076 323.5 959 c 128,-1,24
 224 842 224 842 224 641 c 2,25,-1
 224 526 l 2,26,27
 224 324 224 324 324.5 206 c 128,-1,28
 425 88 425 88 598 88 c 0,29,30
 776 88 776 88 873 206 c 128,-1,31
 970 324 970 324 970 526 c 2,18,-1
EndSplineSet
EndChar

StartChar: OE
Encoding: 338 338 188
Width: 1913
VWidth: 1798
GlyphClass: 2
Flags: W
AnchorPoint: "Anchor-1" 953 -250 basechar 0
AnchorPoint: "Anchor-0" 953 1353 basechar 0
LayerCount: 2
Fore
SplineSet
645 1227 m 0,0,1
 727 1227 727 1227 806.5 1220.5 c 128,-1,2
 886 1214 886 1214 958 1206 c 1,3,-1
 1796 1206 l 1,4,-1
 1796 1100 l 1,5,-1
 1019 1100 l 1,6,-1
 1019 553 l 1,7,-1
 1699 553 l 1,8,-1
 1699 448 l 1,9,-1
 1019 448 l 1,10,-1
 1019 -145 l 1,11,-1
 1801 -145 l 1,12,-1
 1801 -250 l 1,13,-1
 958 -250 l 1,14,15
 886 -257 886 -257 807.5 -264 c 128,-1,16
 729 -271 729 -271 647 -271 c 0,17,18
 487 -271 487 -271 366 -195.5 c 128,-1,19
 245 -120 245 -120 177 15 c 128,-1,20
 109 150 109 150 109 326 c 2,21,-1
 109 630 l 2,22,23
 109 807 109 807 176.5 941.5 c 128,-1,24
 244 1076 244 1076 364.5 1151.5 c 128,-1,25
 485 1227 485 1227 645 1227 c 0,0,1
228 326 m 2,26,27
 228 99 228 99 342 -34.5 c 128,-1,28
 456 -168 456 -168 647 -168 c 0,29,30
 778 -168 778 -168 896 -154 c 1,31,-1
 896 1110 l 1,32,33
 838 1117 838 1117 774.5 1120.5 c 128,-1,34
 711 1124 711 1124 645 1124 c 0,35,36
 454 1124 454 1124 341 993 c 128,-1,37
 228 862 228 862 228 632 c 2,38,-1
 228 326 l 2,26,27
EndSplineSet
Substitution2: "'c2sc' Capitals to Small Capitals lookup 0 subtable" OE.smcp
Position2: "'cpsp' Capital Spacing lookup 0 subtable" dx=36 dy=0 dh=72 dv=0
EndChar

StartChar: OE.smcp
Encoding: 65650 -1 189
Width: 1711
GlyphClass: 2
Flags: W
LayerCount: 2
Fore
SplineSet
985 1165 m 2,0,-1
 1646 1165 l 1,1,-1
 1646 1061 l 1,2,-1
 985 1061 l 1,3,-1
 985 656 l 1,4,-1
 1562 656 l 1,5,-1
 1562 553 l 1,6,-1
 985 553 l 1,7,-1
 985 103 l 1,8,-1
 1650 103 l 1,9,-1
 1650 0 l 1,10,-1
 988 0 l 2,11,12
 877 0 877 0 773 -8 c 128,-1,13
 669 -16 669 -16 598 -16 c 0,14,15
 451 -16 451 -16 340 50.5 c 128,-1,16
 229 117 229 117 167 238.5 c 128,-1,17
 105 360 105 360 105 526 c 2,18,-1
 105 639 l 2,19,20
 105 805 105 805 166.5 926.5 c 128,-1,21
 228 1048 228 1048 338.5 1114.5 c 128,-1,22
 449 1181 449 1181 596 1181 c 0,23,24
 669 1181 669 1181 777.5 1173 c 128,-1,25
 886 1165 886 1165 985 1165 c 2,0,-1
224 526 m 2,26,27
 224 324 224 324 324.5 206 c 128,-1,28
 425 88 425 88 598 88 c 0,29,30
 643 88 643 88 719 92.5 c 128,-1,31
 795 97 795 97 866 100 c 1,32,-1
 866 1064 l 1,33,34
 796 1067 796 1067 718 1071.5 c 128,-1,35
 640 1076 640 1076 596 1076 c 0,36,37
 423 1076 423 1076 323.5 959 c 128,-1,38
 224 842 224 842 224 641 c 2,39,-1
 224 526 l 2,26,27
EndSplineSet
EndChar

StartChar: Ohorn
Encoding: 416 416 200
Width: 1429
VWidth: 1798
GlyphClass: 2
Flags: W
AnchorPoint: "Anchor-1" 692 -250 basechar 0
AnchorPoint: "Anchor-0" 703 1345 basechar 0
LayerCount: 2
Fore
SplineSet
1268 556 m 2,0,-1
 1268 401 l 2,1,2
 1268 196 1268 196 1198.5 45.5 c 128,-1,3
 1129 -105 1129 -105 1002 -187.5 c 128,-1,4
 875 -270 875 -270 702 -270 c 0,5,6
 532 -270 532 -270 404 -187.5 c 128,-1,7
 276 -105 276 -105 204.5 45.5 c 128,-1,8
 133 196 133 196 133 401 c 2,9,-1
 133 556 l 2,10,11
 133 760 133 760 204 910.5 c 128,-1,12
 275 1061 275 1061 402.5 1143.5 c 128,-1,13
 530 1226 530 1226 700 1226 c 0,14,15
 834 1226 834 1226 942 1175 c 128,-1,16
 1050 1124 1050 1124 1124 1031 c 1,17,18
 1248 1037 1248 1037 1293 1111.5 c 128,-1,19
 1338 1186 1338 1186 1338 1317 c 1,20,-1
 1448 1317 l 1,21,22
 1448 1154 1448 1154 1385 1058 c 128,-1,23
 1322 962 1322 962 1183 941 c 1,24,25
 1268 779 1268 779 1268 556 c 2,0,-1
1145 401 m 2,26,-1
 1145 558 l 2,27,28
 1145 815 1145 815 1028 966 c 128,-1,29
 911 1117 911 1117 700 1117 c 0,30,31
 494 1117 494 1117 375 966 c 128,-1,32
 256 815 256 815 256 558 c 2,33,-1
 256 401 l 2,34,35
 256 228 256 228 310 101.5 c 128,-1,36
 364 -25 364 -25 464.5 -93.5 c 128,-1,37
 565 -162 565 -162 702 -162 c 0,38,39
 914 -162 914 -162 1029.5 -10 c 128,-1,40
 1145 142 1145 142 1145 401 c 2,26,-1
EndSplineSet
EndChar

StartChar: Omega
Encoding: 8486 8486 205
Width: 1342
GlyphClass: 2
Flags: W
AnchorPoint: "Anchor-1" 679 10 basechar 0
LayerCount: 2
Fore
SplineSet
120 0 m 1,0,-1
 120 105 l 1,1,-1
 409 105 l 1,2,3
 288 194 288 194 207 354.5 c 128,-1,4
 126 515 126 515 126 729 c 2,5,-1
 126 845 l 2,6,7
 126 1034 126 1034 193.5 1176 c 128,-1,8
 261 1318 261 1318 381.5 1397 c 128,-1,9
 502 1476 502 1476 662 1476 c 256,10,11
 822 1476 822 1476 943.5 1397 c 128,-1,12
 1065 1318 1065 1318 1133 1176 c 128,-1,13
 1201 1034 1201 1034 1201 845 c 2,14,-1
 1201 729 l 2,15,16
 1201 515 1201 515 1120.5 354.5 c 128,-1,17
 1040 194 1040 194 921 105 c 1,18,-1
 1208 105 l 1,19,-1
 1208 0 l 1,20,-1
 750 0 l 1,21,-1
 750 121 l 1,22,23
 836 151 836 151 910.5 223 c 128,-1,24
 985 295 985 295 1031 419.5 c 128,-1,25
 1077 544 1077 544 1077 729 c 2,26,-1
 1077 847 l 2,27,28
 1077 1005 1077 1005 1026 1122.5 c 128,-1,29
 975 1240 975 1240 882 1305.5 c 128,-1,30
 789 1371 789 1371 662 1371 c 0,31,32
 536 1371 536 1371 444 1305.5 c 128,-1,33
 352 1240 352 1240 301.5 1122.5 c 128,-1,34
 251 1005 251 1005 251 847 c 2,35,-1
 251 729 l 2,36,37
 251 543 251 543 298.5 418.5 c 128,-1,38
 346 294 346 294 422 222 c 128,-1,39
 498 150 498 150 584 121 c 1,40,-1
 584 0 l 1,41,-1
 120 0 l 1,0,-1
EndSplineSet
Substitution2: "'c2sc' Capitals to Small Capitals lookup 0 subtable" Omega.smcp
Position2: "'cpsp' Capital Spacing lookup 0 subtable" dx=36 dy=0 dh=72 dv=0
EndChar

StartChar: Omega.smcp
Encoding: 65658 -1 206
Width: 1256
GlyphClass: 2
Flags: W
AnchorPoint: "Anchor-1" 637 10 basechar 0
LayerCount: 2
Fore
SplineSet
129 0 m 1,0,-1
 129 103 l 1,1,-1
 369 103 l 1,2,3
 262 174 262 174 198.5 300 c 128,-1,4
 135 426 135 426 135 617 c 2,5,-1
 135 653 l 2,6,7
 135 800 135 800 192.5 919.5 c 128,-1,8
 250 1039 250 1039 359.5 1110 c 128,-1,9
 469 1181 469 1181 626 1181 c 0,10,11
 782 1181 782 1181 892 1110 c 128,-1,12
 1002 1039 1002 1039 1060 919 c 128,-1,13
 1118 799 1118 799 1118 653 c 2,14,-1
 1118 617 l 2,15,16
 1118 426 1118 426 1055 300 c 128,-1,17
 992 174 992 174 886 103 c 1,18,-1
 1130 103 l 1,19,-1
 1130 0 l 1,20,-1
 713 0 l 1,21,-1
 713 118 l 1,22,23
 800 150 800 150 864 208 c 128,-1,24
 928 266 928 266 963 364.5 c 128,-1,25
 998 463 998 463 998 617 c 2,26,-1
 998 655 l 2,27,28
 998 769 998 769 958.5 865 c 128,-1,29
 919 961 919 961 836.5 1019 c 128,-1,30
 754 1077 754 1077 626 1077 c 256,31,32
 498 1077 498 1077 416 1019 c 128,-1,33
 334 961 334 961 294.5 865 c 128,-1,34
 255 769 255 769 255 655 c 2,35,-1
 255 617 l 2,36,37
 255 463 255 463 293 364 c 128,-1,38
 331 265 331 265 397 207 c 128,-1,39
 463 149 463 149 546 118 c 1,40,-1
 546 0 l 1,41,-1
 129 0 l 1,0,-1
EndSplineSet
EndChar

StartChar: Oslash
Encoding: 216 216 207
Width: 1387
VWidth: 1798
GlyphClass: 2
Flags: W
AnchorPoint: "Anchor-0" 715 1424 basechar 0
LayerCount: 2
Fore
SplineSet
1261 556 m 2,0,-1
 1261 401 l 2,1,2
 1261 196 1261 196 1191 45.5 c 128,-1,3
 1121 -105 1121 -105 994 -187.5 c 128,-1,4
 867 -270 867 -270 695 -270 c 0,5,6
 512 -270 512 -270 376 -173 c 1,7,-1
 275 -334 l 1,8,-1
 171 -334 l 1,9,-1
 308 -116 l 1,10,11
 222 -28 222 -28 174 103.5 c 128,-1,12
 126 235 126 235 126 401 c 2,13,-1
 126 556 l 2,14,15
 126 760 126 760 197 910.5 c 128,-1,16
 268 1061 268 1061 395.5 1143.5 c 128,-1,17
 523 1226 523 1226 693 1226 c 0,18,19
 805 1226 805 1226 899.5 1190 c 128,-1,20
 994 1154 994 1154 1065 1087 c 1,21,-1
 1172 1256 l 1,22,-1
 1275 1256 l 1,23,-1
 1126 1019 l 1,24,25
 1191 933 1191 933 1226 815.5 c 128,-1,26
 1261 698 1261 698 1261 556 c 2,0,-1
249 401 m 2,27,28
 249 137 249 137 372 -15 c 1,29,-1
 1003 987 l 1,30,31
 886 1117 886 1117 693 1117 c 0,32,33
 486 1117 486 1117 367.5 966 c 128,-1,34
 249 815 249 815 249 558 c 2,35,-1
 249 401 l 2,27,28
1138 401 m 2,36,-1
 1138 558 l 2,37,38
 1138 770 1138 770 1058 911 c 1,39,-1
 436 -78 l 1,40,41
 544 -162 544 -162 695 -162 c 0,42,43
 907 -162 907 -162 1022.5 -10 c 128,-1,44
 1138 142 1138 142 1138 401 c 2,36,-1
EndSplineSet
Substitution2: "'c2sc' Capitals to Small Capitals lookup 0 subtable" Oslash.smcp
Position2: "'cpsp' Capital Spacing lookup 0 subtable" dx=36 dy=0 dh=72 dv=0
EndChar

StartChar: Oslash.smcp
Encoding: 65659 -1 208
Width: 1194
GlyphClass: 2
Flags: W
AnchorPoint: "Anchor-1" 631 0 basechar 0
AnchorPoint: "Anchor-0" 606 1320 basechar 0
LayerCount: 2
Fore
SplineSet
1088 639 m 2,0,-1
 1088 526 l 2,1,2
 1088 360 1088 360 1027.5 238.5 c 128,-1,3
 967 117 967 117 857 50.5 c 128,-1,4
 747 -16 747 -16 598 -16 c 0,5,6
 436 -16 436 -16 317 65 c 1,7,-1
 230 -66 l 1,8,-1
 127 -66 l 1,9,-1
 251 120 l 1,10,11
 182 190 182 190 143.5 293.5 c 128,-1,12
 105 397 105 397 105 526 c 2,13,-1
 105 639 l 2,14,15
 105 805 105 805 166.5 926.5 c 128,-1,16
 228 1048 228 1048 338 1114.5 c 128,-1,17
 448 1181 448 1181 596 1181 c 0,18,19
 773 1181 773 1181 897 1086 c 1,20,-1
 980 1211 l 1,21,-1
 1082 1211 l 1,22,-1
 960 1028 l 1,23,24
 1021 957 1021 957 1054.5 858.5 c 128,-1,25
 1088 760 1088 760 1088 639 c 2,0,-1
224 526 m 2,26,27
 224 333 224 333 316 216 c 1,28,-1
 836 995 l 1,29,30
 741 1076 741 1076 596 1076 c 0,31,32
 423 1076 423 1076 323.5 959 c 128,-1,33
 224 842 224 842 224 641 c 2,34,-1
 224 526 l 2,26,27
970 526 m 2,35,-1
 970 641 l 2,36,37
 970 817 970 817 894 929 c 1,38,-1
 378 156 l 1,39,40
 469 88 469 88 598 88 c 0,41,42
 776 88 776 88 873 206 c 128,-1,43
 970 324 970 324 970 526 c 2,35,-1
EndSplineSet
EndChar

StartChar: P
Encoding: 80 80 213
Width: 1261
VWidth: 1798
GlyphClass: 2
Flags: W
AnchorPoint: "Anchor-1" 613 -240 basechar 0
AnchorPoint: "Anchor-0" 606 1362 basechar 0
LayerCount: 2
Fore
SplineSet
681 343 m 2,0,-1
 308 343 l 1,1,-1
 308 -250 l 1,2,-1
 185 -250 l 1,3,-1
 185 1206 l 1,4,-1
 681 1206 l 2,5,6
 921 1206 921 1206 1046 1085.5 c 128,-1,7
 1171 965 1171 965 1171 772 c 0,8,9
 1171 570 1171 570 1046 456.5 c 128,-1,10
 921 343 921 343 681 343 c 2,0,-1
681 1100 m 2,11,-1
 308 1100 l 1,12,-1
 308 449 l 1,13,-1
 681 449 l 2,14,15
 876 449 876 449 962 541.5 c 128,-1,16
 1048 634 1048 634 1048 770 c 0,17,18
 1048 859 1048 859 1010.5 934 c 128,-1,19
 973 1009 973 1009 892 1054.5 c 128,-1,20
 811 1100 811 1100 681 1100 c 2,11,-1
EndSplineSet
Substitution2: "'c2sc' Capitals to Small Capitals lookup 0 subtable" P.smcp
Position2: "'cpsp' Capital Spacing lookup 0 subtable" dx=36 dy=0 dh=72 dv=0
EndChar

StartChar: P.smcp
Encoding: 65662 -1 214
Width: 1089
GlyphClass: 2
Flags: W
AnchorPoint: "Anchor-1" 574 0 basechar 0
AnchorPoint: "Anchor-0" 576 1320 basechar 0
LayerCount: 2
Fore
SplineSet
586 463 m 2,0,-1
 274 463 l 1,1,-1
 274 0 l 1,2,-1
 155 0 l 1,3,-1
 155 1165 l 1,4,-1
 586 1165 l 2,5,6
 794 1165 794 1165 903 1066 c 128,-1,7
 1012 967 1012 967 1012 810 c 0,8,9
 1012 648 1012 648 903 555.5 c 128,-1,10
 794 463 794 463 586 463 c 2,0,-1
586 1061 m 2,11,-1
 274 1061 l 1,12,-1
 274 567 l 1,13,-1
 586 567 l 2,14,15
 748 567 748 567 820 636.5 c 128,-1,16
 892 706 892 706 892 809 c 0,17,18
 892 911 892 911 820 986 c 128,-1,19
 748 1061 748 1061 586 1061 c 2,11,-1
EndSplineSet
EndChar

StartChar: Q
Encoding: 81 81 215
Width: 1387
VWidth: 1798
GlyphClass: 2
Flags: W
AnchorPoint: "Anchor-1" 698 -260 basechar 0
AnchorPoint: "Anchor-0" 700 1350 basechar 0
LayerCount: 2
Fore
SplineSet
1256 556 m 2,0,-1
 1256 401 l 2,1,2
 1256 190 1256 190 1182 36.5 c 128,-1,3
 1108 -117 1108 -117 975 -196 c 1,4,-1
 1239 -427 l 1,5,-1
 1154 -504 l 1,6,-1
 858 -247 l 1,7,8
 779 -270 779 -270 690 -270 c 0,9,10
 521 -270 521 -270 393 -187.5 c 128,-1,11
 265 -105 265 -105 193.5 45.5 c 128,-1,12
 122 196 122 196 122 401 c 2,13,-1
 122 556 l 2,14,15
 122 760 122 760 193 910.5 c 128,-1,16
 264 1061 264 1061 391.5 1143.5 c 128,-1,17
 519 1226 519 1226 688 1226 c 0,18,19
 861 1226 861 1226 988.5 1143.5 c 128,-1,20
 1116 1061 1116 1061 1186 910.5 c 128,-1,21
 1256 760 1256 760 1256 556 c 2,0,-1
1134 401 m 2,22,-1
 1134 558 l 2,23,24
 1134 815 1134 815 1017 966 c 128,-1,25
 900 1117 900 1117 688 1117 c 0,26,27
 482 1117 482 1117 363.5 966 c 128,-1,28
 245 815 245 815 245 558 c 2,29,-1
 245 401 l 2,30,31
 245 142 245 142 364.5 -10 c 128,-1,32
 484 -162 484 -162 690 -162 c 0,33,34
 902 -162 902 -162 1018 -10 c 128,-1,35
 1134 142 1134 142 1134 401 c 2,22,-1
EndSplineSet
Substitution2: "'c2sc' Capitals to Small Capitals lookup 0 subtable" Q.smcp
Position2: "'cpsp' Capital Spacing lookup 0 subtable" dx=36 dy=0 dh=72 dv=0
EndChar

StartChar: Q.smcp
Encoding: 65663 -1 216
Width: 1194
GlyphClass: 2
Flags: W
AnchorPoint: "Anchor-1" 599 -10 basechar 0
AnchorPoint: "Anchor-0" 599 1320 basechar 0
LayerCount: 2
Fore
SplineSet
1086 639 m 2,0,-1
 1086 526 l 2,1,2
 1086 358 1086 358 1023.5 235 c 128,-1,3
 961 112 961 112 850 48 c 1,4,-1
 1071 -131 l 1,5,-1
 989 -205 l 1,6,-1
 736 2 l 1,7,8
 669 -16 669 -16 594 -16 c 0,9,10
 447 -16 447 -16 336.5 50.5 c 128,-1,11
 226 117 226 117 164 238.5 c 128,-1,12
 102 360 102 360 102 526 c 2,13,-1
 102 639 l 2,14,15
 102 805 102 805 163.5 926.5 c 128,-1,16
 225 1048 225 1048 335.5 1114.5 c 128,-1,17
 446 1181 446 1181 593 1181 c 0,18,19
 742 1181 742 1181 853 1114.5 c 128,-1,20
 964 1048 964 1048 1025 926.5 c 128,-1,21
 1086 805 1086 805 1086 639 c 2,0,-1
967 526 m 2,22,-1
 967 641 l 2,23,24
 967 842 967 842 868.5 959 c 128,-1,25
 770 1076 770 1076 593 1076 c 0,26,27
 419 1076 419 1076 320 959 c 128,-1,28
 221 842 221 842 221 641 c 2,29,-1
 221 526 l 2,30,31
 221 324 221 324 321 206 c 128,-1,32
 421 88 421 88 594 88 c 0,33,34
 772 88 772 88 869.5 206 c 128,-1,35
 967 324 967 324 967 526 c 2,22,-1
EndSplineSet
EndChar

StartChar: R
Encoding: 82 82 217
Width: 1301
VWidth: 1798
GlyphClass: 2
Flags: W
AnchorPoint: "Anchor-1" 611 -240 basechar 0
AnchorPoint: "Anchor-0" 610 1351 basechar 0
LayerCount: 2
Fore
SplineSet
1081 -250 m 1,0,-1
 729 357 l 1,1,-1
 306 357 l 1,2,-1
 306 -250 l 1,3,-1
 182 -250 l 1,4,-1
 182 1206 l 1,5,-1
 655 1206 l 2,6,7
 882 1206 882 1206 1015.5 1096 c 128,-1,8
 1149 986 1149 986 1149 778 c 0,9,10
 1149 633 1149 633 1066 527.5 c 128,-1,11
 983 422 983 422 848 383 c 1,12,-1
 1212 -237 l 1,13,-1
 1212 -250 l 1,14,-1
 1081 -250 l 1,0,-1
655 1100 m 2,15,-1
 306 1100 l 1,16,-1
 306 462 l 1,17,-1
 683 462 l 2,18,19
 797 462 797 462 873 506.5 c 128,-1,20
 949 551 949 551 987.5 623 c 128,-1,21
 1026 695 1026 695 1026 778 c 0,22,23
 1026 927 1026 927 930.5 1013.5 c 128,-1,24
 835 1100 835 1100 655 1100 c 2,15,-1
EndSplineSet
Substitution2: "'c2sc' Capitals to Small Capitals lookup 0 subtable" R.smcp
Position2: "'cpsp' Capital Spacing lookup 0 subtable" dx=36 dy=0 dh=72 dv=0
EndChar

StartChar: R.smcp
Encoding: 65664 -1 218
Width: 1123
GlyphClass: 2
Flags: W
AnchorPoint: "Anchor-1" 525 8 basechar 0
AnchorPoint: "Anchor-0" 520 1320 basechar 0
LayerCount: 2
Fore
SplineSet
919 0 m 1,0,-1
 627 468 l 1,1,-1
 272 468 l 1,2,-1
 272 0 l 1,3,-1
 152 0 l 1,4,-1
 152 1165 l 1,5,-1
 565 1165 l 2,6,7
 762 1165 762 1165 878 1073.5 c 128,-1,8
 994 982 994 982 994 814 c 0,9,10
 994 695 994 695 923.5 612 c 128,-1,11
 853 529 853 529 739 496 c 1,12,-1
 1047 10 l 1,13,-1
 1047 0 l 1,14,-1
 919 0 l 1,0,-1
565 1061 m 2,15,-1
 272 1061 l 1,16,-1
 272 571 l 1,17,-1
 587 571 l 2,18,19
 730 571 730 571 802 642.5 c 128,-1,20
 874 714 874 714 874 810 c 0,21,22
 874 923 874 923 794.5 992 c 128,-1,23
 715 1061 715 1061 565 1061 c 2,15,-1
EndSplineSet
EndChar

StartChar: S
Encoding: 83 83 225
Width: 1214
VWidth: 1798
GlyphClass: 2
Flags: W
AnchorPoint: "Anchor-1" 628 -251 basechar 0
AnchorPoint: "Anchor-0" 622 1353 basechar 0
LayerCount: 2
Fore
SplineSet
1009 109 m 0,0,1
 1009 189 1009 189 972.5 246 c 128,-1,2
 936 303 936 303 849.5 347.5 c 128,-1,3
 763 392 763 392 611 434 c 0,4,5
 465 476 465 476 358 528.5 c 128,-1,6
 251 581 251 581 193 658 c 128,-1,7
 135 735 135 735 135 850 c 0,8,9
 135 962 135 962 197.5 1046.5 c 128,-1,10
 260 1131 260 1131 370.5 1178.5 c 128,-1,11
 481 1226 481 1226 624 1226 c 0,12,13
 777 1226 777 1226 889 1167.5 c 128,-1,14
 1001 1109 1001 1109 1062 1010.5 c 128,-1,15
 1123 912 1123 912 1123 791 c 1,16,-1
 1000 791 l 1,17,18
 1000 933 1000 933 901.5 1026.5 c 128,-1,19
 803 1120 803 1120 624 1120 c 0,20,21
 444 1120 444 1120 351.5 1041 c 128,-1,22
 259 962 259 962 259 852 c 0,23,24
 259 749 259 749 344.5 676 c 128,-1,25
 430 603 430 603 650 544 c 0,26,27
 881 481 881 481 1007 384 c 128,-1,28
 1133 287 1133 287 1133 111 c 0,29,30
 1133 -8 1133 -8 1068 -93.5 c 128,-1,31
 1003 -179 1003 -179 890 -224.5 c 128,-1,32
 777 -270 777 -270 632 -270 c 0,33,34
 535 -270 535 -270 439 -245 c 128,-1,35
 343 -220 343 -220 263.5 -167 c 128,-1,36
 184 -114 184 -114 136.5 -31 c 128,-1,37
 89 52 89 52 89 167 c 1,38,-1
 212 167 l 1,39,40
 212 45 212 45 275.5 -28 c 128,-1,41
 339 -101 339 -101 436 -133 c 128,-1,42
 533 -165 533 -165 632 -165 c 0,43,44
 804 -165 804 -165 906.5 -90 c 128,-1,45
 1009 -15 1009 -15 1009 109 c 0,0,1
EndSplineSet
Substitution2: "'c2sc' Capitals to Small Capitals lookup 0 subtable" S.smcp
Position2: "'cpsp' Capital Spacing lookup 0 subtable" dx=36 dy=0 dh=72 dv=0
EndChar

StartChar: S.smcp
Encoding: 65668 -1 226
Width: 1049
GlyphClass: 2
Flags: W
AnchorPoint: "Anchor-1" 552 0 basechar 0
AnchorPoint: "Anchor-0" 543 1320 basechar 0
LayerCount: 2
Fore
SplineSet
859 290 m 0,0,1
 859 379 859 379 789.5 434.5 c 128,-1,2
 720 490 720 490 533 535 c 0,3,4
 340 583 340 583 227.5 658.5 c 128,-1,5
 115 734 115 734 115 876 c 0,6,7
 115 968 115 968 169.5 1036.5 c 128,-1,8
 224 1105 224 1105 320 1143 c 128,-1,9
 416 1181 416 1181 540 1181 c 0,10,11
 672 1181 672 1181 769 1135 c 128,-1,12
 866 1089 866 1089 919 1009.5 c 128,-1,13
 972 930 972 930 972 831 c 1,14,-1
 852 831 l 1,15,16
 852 938 852 938 770 1008 c 128,-1,17
 688 1078 688 1078 539 1078 c 0,18,19
 389 1078 389 1078 311.5 1019 c 128,-1,20
 234 960 234 960 234 878 c 0,21,22
 234 799 234 799 306.5 744 c 128,-1,23
 379 689 379 689 569 642 c 0,24,25
 759 596 759 596 869.5 516 c 128,-1,26
 980 436 980 436 980 291 c 0,27,28
 980 195 980 195 923.5 126 c 128,-1,29
 867 57 867 57 769 20.5 c 128,-1,30
 671 -16 671 -16 546 -16 c 0,31,32
 462 -16 462 -16 378.5 4.5 c 128,-1,33
 295 25 295 25 226.5 67.5 c 128,-1,34
 158 110 158 110 116.5 177.5 c 128,-1,35
 75 245 75 245 75 339 c 1,36,-1
 195 339 l 1,37,38
 195 245 195 245 247.5 189.5 c 128,-1,39
 300 134 300 134 381 109.5 c 128,-1,40
 462 85 462 85 546 85 c 0,41,42
 690 85 690 85 774.5 142 c 128,-1,43
 859 199 859 199 859 290 c 0,0,1
EndSplineSet
EndChar

StartChar: Schwa
Encoding: 399 399 233
Width: 1434
VWidth: 1798
GlyphClass: 2
Flags: W
AnchorPoint: "Anchor-1" 696 -250 basechar 0
AnchorPoint: "Anchor-0" 661 1353 basechar 0
LayerCount: 2
Fore
SplineSet
726 -270 m 0,0,1
 537 -270 537 -270 402.5 -192 c 128,-1,2
 268 -114 268 -114 196.5 28.5 c 128,-1,3
 125 171 125 171 125 366 c 2,4,-1
 125 489 l 1,5,-1
 1190 489 l 1,6,-1
 1190 555 l 2,7,8
 1190 711 1190 711 1138 839 c 128,-1,9
 1086 967 1086 967 974.5 1043 c 128,-1,10
 863 1119 863 1119 685 1119 c 0,11,12
 546 1119 546 1119 445.5 1083.5 c 128,-1,13
 345 1048 345 1048 275 1000 c 1,14,-1
 236 1093 l 1,15,16
 290 1136 290 1136 395.5 1181 c 128,-1,17
 501 1226 501 1226 685 1226 c 0,18,19
 888 1226 888 1226 1028 1140.5 c 128,-1,20
 1168 1055 1168 1055 1240.5 903.5 c 128,-1,21
 1313 752 1313 752 1313 555 c 2,22,-1
 1313 422 l 2,23,24
 1313 217 1313 217 1235.5 61.5 c 128,-1,25
 1158 -94 1158 -94 1025 -182 c 128,-1,26
 892 -270 892 -270 726 -270 c 0,0,1
726 -164 m 0,27,28
 867 -164 867 -164 968.5 -90.5 c 128,-1,29
 1070 -17 1070 -17 1126.5 108 c 128,-1,30
 1183 233 1183 233 1189 387 c 1,31,-1
 249 387 l 1,32,-1
 249 334 l 2,33,34
 249 196 249 196 300.5 83 c 128,-1,35
 352 -30 352 -30 457.5 -97 c 128,-1,36
 563 -164 563 -164 726 -164 c 0,27,28
EndSplineSet
EndChar

StartChar: T
Encoding: 84 84 237
Width: 1223
VWidth: 1798
GlyphClass: 2
Flags: W
AnchorPoint: "Anchor-1" 614 -250 basechar 0
AnchorPoint: "Anchor-0" 612 1350 basechar 0
LayerCount: 2
Fore
SplineSet
1172 1206 m 1,0,-1
 1172 1100 l 1,1,-1
 673 1100 l 1,2,-1
 673 -250 l 1,3,-1
 551 -250 l 1,4,-1
 551 1100 l 1,5,-1
 53 1100 l 1,6,-1
 53 1206 l 1,7,-1
 1172 1206 l 1,0,-1
EndSplineSet
Substitution2: "'c2sc' Capitals to Small Capitals lookup 0 subtable" T.smcp
Position2: "'cpsp' Capital Spacing lookup 0 subtable" dx=36 dy=0 dh=72 dv=0
EndChar

StartChar: T.smcp
Encoding: 65674 -1 238
Width: 1058
GlyphClass: 2
Flags: W
AnchorPoint: "Anchor-1" 531 3 basechar 0
AnchorPoint: "Anchor-0" 530 1320 basechar 0
LayerCount: 2
Fore
SplineSet
1013 1165 m 1,0,-1
 1013 1061 l 1,1,-1
 588 1061 l 1,2,-1
 588 0 l 1,3,-1
 469 0 l 1,4,-1
 469 1061 l 1,5,-1
 44 1061 l 1,6,-1
 44 1165 l 1,7,-1
 1013 1165 l 1,0,-1
EndSplineSet
EndChar

StartChar: Tbar
Encoding: 358 358 239
Width: 1223
VWidth: 1798
GlyphClass: 2
Flags: W
AnchorPoint: "Anchor-1" 614 -250 basechar 0
AnchorPoint: "Anchor-0" 612 1350 basechar 0
LayerCount: 2
Fore
SplineSet
914 688 m 1,0,-1
 914 585 l 1,1,-1
 673 585 l 1,2,-1
 673 -250 l 1,3,-1
 551 -250 l 1,4,-1
 551 585 l 1,5,-1
 302 585 l 1,6,-1
 302 688 l 1,7,-1
 551 688 l 1,8,-1
 551 1100 l 1,9,-1
 53 1100 l 1,10,-1
 53 1206 l 1,11,-1
 1172 1206 l 1,12,-1
 1172 1100 l 1,13,-1
 673 1100 l 1,14,-1
 673 688 l 1,15,-1
 914 688 l 1,0,-1
EndSplineSet
Substitution2: "'c2sc' Capitals to Small Capitals lookup 0 subtable" Tbar.smcp
Position2: "'cpsp' Capital Spacing lookup 0 subtable" dx=36 dy=0 dh=72 dv=0
EndChar

StartChar: Thorn
Encoding: 222 222 244
Width: 1215
VWidth: 1798
GlyphClass: 2
Flags: W
LayerCount: 2
Fore
SplineSet
184 1206 m 1,0,-1
 303 1206 l 1,1,-1
 303 903 l 1,2,-1
 628 903 l 2,3,4
 780 903 780 903 884 849 c 128,-1,5
 988 795 988 795 1042 701.5 c 128,-1,6
 1096 608 1096 608 1096 488 c 0,7,8
 1096 369 1096 369 1042 275.5 c 128,-1,9
 988 182 988 182 884 128 c 128,-1,10
 780 74 780 74 628 74 c 2,11,-1
 303 74 l 1,12,-1
 303 -250 l 1,13,-1
 184 -250 l 1,14,-1
 184 1206 l 1,0,-1
628 801 m 2,15,-1
 303 801 l 1,16,-1
 303 177 l 1,17,-1
 628 177 l 2,18,19
 752 177 752 177 829 223 c 128,-1,20
 906 269 906 269 941.5 340 c 128,-1,21
 977 411 977 411 977 486 c 0,22,23
 977 565 977 565 941.5 637 c 128,-1,24
 906 709 906 709 829 755 c 128,-1,25
 752 801 752 801 628 801 c 2,15,-1
EndSplineSet
Substitution2: "'c2sc' Capitals to Small Capitals lookup 0 subtable" Thorn.smcp
Position2: "'cpsp' Capital Spacing lookup 0 subtable" dx=36 dy=0 dh=72 dv=0
EndChar

StartChar: Thorn.smcp
Encoding: 65678 -1 245
Width: 989
GlyphClass: 2
Flags: W
AnchorPoint: "Anchor-1" 450 10 basechar 0
AnchorPoint: "Anchor-0" 526 1320 basechar 0
LayerCount: 2
Fore
SplineSet
155 0 m 1,0,-1
 155 1165 l 1,1,-1
 274 1165 l 1,2,-1
 274 951 l 1,3,-1
 486 951 l 2,4,5
 694 951 694 951 803 852 c 128,-1,6
 912 753 912 753 912 596 c 0,7,8
 912 433 912 433 803 340.5 c 128,-1,9
 694 248 694 248 486 248 c 2,10,-1
 274 248 l 1,11,-1
 274 0 l 1,12,-1
 155 0 l 1,0,-1
486 847 m 2,13,-1
 274 847 l 1,14,-1
 274 352 l 1,15,-1
 486 352 l 2,16,17
 648 352 648 352 720 421.5 c 128,-1,18
 792 491 792 491 792 594 c 0,19,20
 792 696 792 696 720 771.5 c 128,-1,21
 648 847 648 847 486 847 c 2,13,-1
EndSplineSet
EndChar

StartChar: U
Encoding: 85 85 246
Width: 1347
VWidth: 1798
GlyphClass: 2
Flags: W
AnchorPoint: "Anchor-1" 666 -250 basechar 0
AnchorPoint: "Anchor-0" 667 1351 basechar 0
LayerCount: 2
Fore
SplineSet
1064 1206 m 1,0,-1
 1187 1206 l 1,1,-1
 1187 220 l 2,2,3
 1187 57 1187 57 1118 -52 c 128,-1,4
 1049 -161 1049 -161 933 -215.5 c 128,-1,5
 817 -270 817 -270 675 -270 c 0,6,7
 530 -270 530 -270 414 -215.5 c 128,-1,8
 298 -161 298 -161 230.5 -52 c 128,-1,9
 163 57 163 57 163 220 c 2,10,-1
 163 1206 l 1,11,-1
 285 1206 l 1,12,-1
 285 220 l 2,13,14
 285 30 285 30 395.5 -67.5 c 128,-1,15
 506 -165 506 -165 675 -165 c 0,16,17
 845 -165 845 -165 954.5 -67.5 c 128,-1,18
 1064 30 1064 30 1064 220 c 2,19,-1
 1064 1206 l 1,0,-1
EndSplineSet
Substitution2: "'unic' Unicase lookup 2 subtable" U.unic
Substitution2: "'c2sc' Capitals to Small Capitals lookup 0 subtable" U.smcp
Position2: "'cpsp' Capital Spacing lookup 0 subtable" dx=36 dy=0 dh=72 dv=0
EndChar

StartChar: U.smcp
Encoding: 65679 -1 247
Width: 1160
GlyphClass: 2
Flags: W
AnchorPoint: "Anchor-1" 574 0 basechar 0
AnchorPoint: "Anchor-0" 576 1320 basechar 0
LayerCount: 2
Fore
SplineSet
905 1165 m 1,0,-1
 1025 1165 l 1,1,-1
 1025 380 l 2,2,3
 1025 248 1025 248 965.5 160 c 128,-1,4
 906 72 906 72 805.5 28 c 128,-1,5
 705 -16 705 -16 581 -16 c 0,6,7
 454 -16 454 -16 353.5 28 c 128,-1,8
 253 72 253 72 195 160 c 128,-1,9
 137 248 137 248 137 380 c 2,10,-1
 137 1165 l 1,11,-1
 255 1165 l 1,12,-1
 255 380 l 2,13,14
 255 234 255 234 347 160 c 128,-1,15
 439 86 439 86 581 86 c 0,16,17
 724 86 724 86 814.5 160 c 128,-1,18
 905 234 905 234 905 380 c 2,19,-1
 905 1165 l 1,0,-1
EndSplineSet
EndChar

StartChar: U.unic
Encoding: 65680 -1 248
Width: 1450
GlyphClass: 2
Flags: W
AnchorPoint: "Anchor-1" 721 0 basechar 0
AnchorPoint: "Anchor-0" 722 1632 basechar 0
LayerCount: 2
Fore
SplineSet
1145 0 m 1,0,-1
 1141 225 l 1,1,2
 1069 105 1069 105 940.5 42.5 c 128,-1,3
 812 -20 812 -20 656 -20 c 0,4,5
 513 -20 513 -20 407 31.5 c 128,-1,6
 301 83 301 83 243 197 c 128,-1,7
 185 311 185 311 185 498 c 2,8,-1
 185 1456 l 1,9,-1
 308 1456 l 1,10,-1
 308 497 l 2,11,12
 308 344 308 344 356 254.5 c 128,-1,13
 404 165 404 165 489.5 126.5 c 128,-1,14
 575 88 575 88 685 88 c 0,15,16
 802 88 802 88 894.5 131.5 c 128,-1,17
 987 175 987 175 1049.5 247.5 c 128,-1,18
 1112 320 1112 320 1140 408 c 1,19,-1
 1140 1456 l 1,20,-1
 1263 1456 l 1,21,-1
 1263 0 l 1,22,-1
 1145 0 l 1,0,-1
EndSplineSet
EndChar

StartChar: Uhorn
Encoding: 431 431 263
Width: 1395
VWidth: 1798
GlyphClass: 2
Flags: W
AnchorPoint: "Anchor-1" 692 -259 basechar 0
AnchorPoint: "Anchor-0" 694 1362 basechar 0
LayerCount: 2
Fore
SplineSet
1064 1206 m 1,0,-1
 1187 1206 l 1,1,-1
 1187 996 l 1,2,3
 1320 1005 1320 1005 1365.5 1081.5 c 128,-1,4
 1411 1158 1411 1158 1411 1295 c 1,5,-1
 1517 1295 l 1,6,7
 1517 1111 1517 1111 1442.5 1011 c 128,-1,8
 1368 911 1368 911 1187 902 c 1,9,-1
 1187 220 l 2,10,11
 1187 57 1187 57 1118 -52 c 128,-1,12
 1049 -161 1049 -161 933 -215.5 c 128,-1,13
 817 -270 817 -270 675 -270 c 0,14,15
 530 -270 530 -270 414 -215.5 c 128,-1,16
 298 -161 298 -161 230.5 -52 c 128,-1,17
 163 57 163 57 163 220 c 2,18,-1
 163 1206 l 1,19,-1
 285 1206 l 1,20,-1
 285 220 l 2,21,22
 285 30 285 30 395.5 -67.5 c 128,-1,23
 506 -165 506 -165 675 -165 c 0,24,25
 845 -165 845 -165 954.5 -67.5 c 128,-1,26
 1064 30 1064 30 1064 220 c 2,27,-1
 1064 1206 l 1,0,-1
EndSplineSet
EndChar

StartChar: Uogonek
Encoding: 370 370 270
Width: 1347
VWidth: 1798
GlyphClass: 2
Flags: W
AnchorPoint: "Anchor-1" 666 -250 basechar 0
AnchorPoint: "Anchor-0" 667 1351 basechar 0
LayerCount: 2
Fore
SplineSet
1064 1206 m 1,0,-1
 1187 1206 l 1,1,-1
 1187 220 l 2,2,3
 1187 56 1187 56 1116.5 -53 c 128,-1,4
 1046 -162 1046 -162 932 -216 c 1,5,6
 866 -268 866 -268 812.5 -323 c 128,-1,7
 759 -378 759 -378 759 -445 c 0,8,9
 759 -480 759 -480 777.5 -504.5 c 128,-1,10
 796 -529 796 -529 845 -529 c 0,11,12
 881 -529 881 -529 907.5 -518 c 128,-1,13
 934 -507 934 -507 950 -497 c 1,14,-1
 965 -582 l 1,15,16
 943 -597 943 -597 908.5 -611.5 c 128,-1,17
 874 -626 874 -626 821 -626 c 0,18,19
 748 -626 748 -626 700 -583.5 c 128,-1,20
 652 -541 652 -541 652 -456 c 0,21,22
 652 -407 652 -407 678 -359 c 128,-1,23
 704 -311 704 -311 752 -266 c 1,24,25
 714 -270 714 -270 675 -270 c 0,26,27
 530 -270 530 -270 414 -215.5 c 128,-1,28
 298 -161 298 -161 230.5 -52 c 128,-1,29
 163 57 163 57 163 220 c 2,30,-1
 163 1206 l 1,31,-1
 285 1206 l 1,32,-1
 285 220 l 2,33,34
 285 30 285 30 395.5 -67.5 c 128,-1,35
 506 -165 506 -165 675 -165 c 0,36,37
 845 -165 845 -165 954.5 -67.5 c 128,-1,38
 1064 30 1064 30 1064 220 c 2,39,-1
 1064 1206 l 1,0,-1
EndSplineSet
Substitution2: "'unic' Unicase lookup 2 subtable" Uogonek.unic
Substitution2: "'c2sc' Capitals to Small Capitals lookup 0 subtable" Uogonek.smcp
Position2: "'cpsp' Capital Spacing lookup 0 subtable" dx=36 dy=0 dh=72 dv=0
EndChar

StartChar: Uogonek.smcp
Encoding: 65694 -1 271
Width: 1160
GlyphClass: 2
Flags: W
AnchorPoint: "Anchor-1" 574 0 basechar 0
AnchorPoint: "Anchor-0" 576 1320 basechar 0
LayerCount: 2
Fore
SplineSet
905 1165 m 1,0,-1
 1025 1165 l 1,1,-1
 1025 380 l 2,2,3
 1025 246 1025 246 962 157 c 128,-1,4
 899 68 899 68 797 24 c 1,5,6
 731 -27 731 -27 677.5 -82.5 c 128,-1,7
 624 -138 624 -138 624 -205 c 0,8,9
 624 -240 624 -240 642 -264.5 c 128,-1,10
 660 -289 660 -289 709 -289 c 0,11,12
 746 -289 746 -289 772 -278 c 128,-1,13
 798 -267 798 -267 814 -257 c 1,14,-1
 829 -342 l 1,15,16
 807 -357 807 -357 773 -371.5 c 128,-1,17
 739 -386 739 -386 686 -386 c 0,18,19
 612 -386 612 -386 564 -343.5 c 128,-1,20
 516 -301 516 -301 516 -216 c 0,21,22
 516 -164 516 -164 545.5 -112.5 c 128,-1,23
 575 -61 575 -61 629 -14 c 1,24,25
 605 -16 605 -16 581 -16 c 0,26,27
 454 -16 454 -16 353.5 28 c 128,-1,28
 253 72 253 72 195 160 c 128,-1,29
 137 248 137 248 137 380 c 2,30,-1
 137 1165 l 1,31,-1
 255 1165 l 1,32,-1
 255 380 l 2,33,34
 255 234 255 234 347 160 c 128,-1,35
 439 86 439 86 581 86 c 0,36,37
 724 86 724 86 814.5 160 c 128,-1,38
 905 234 905 234 905 380 c 2,39,-1
 905 1165 l 1,0,-1
EndSplineSet
EndChar

StartChar: V
Encoding: 86 86 279
Width: 1264
VWidth: 1798
GlyphClass: 2
Flags: W
AnchorPoint: "Anchor-1" 655 -240 basechar 0
AnchorPoint: "Anchor-0" 655 1362 basechar 0
LayerCount: 2
Fore
SplineSet
640 -68 m 1,0,-1
 1099 1206 l 1,1,-1
 1233 1206 l 1,2,-1
 692 -250 l 1,3,-1
 573 -250 l 1,4,-1
 32 1206 l 1,5,-1
 166 1206 l 1,6,-1
 623 -68 l 1,7,-1
 632 -100 l 1,8,-1
 640 -68 l 1,0,-1
EndSplineSet
Substitution2: "'c2sc' Capitals to Small Capitals lookup 0 subtable" V.smcp
Position2: "'cpsp' Capital Spacing lookup 0 subtable" dx=36 dy=0 dh=72 dv=0
EndChar

StartChar: V.smcp
Encoding: 65700 -1 280
Width: 1092
GlyphClass: 2
Flags: W
AnchorPoint: "Anchor-1" 561 10 basechar 0
AnchorPoint: "Anchor-0" 561 1320 basechar 0
LayerCount: 2
Fore
SplineSet
572 214 m 1,0,-1
 939 1165 l 1,1,-1
 1068 1165 l 1,2,-1
 605 0 l 1,3,-1
 487 0 l 1,4,-1
 25 1165 l 1,5,-1
 155 1165 l 1,6,-1
 521 215 l 1,7,-1
 547 126 l 1,8,-1
 572 214 l 1,0,-1
EndSplineSet
EndChar

StartChar: W
Encoding: 87 87 281
Width: 1836
VWidth: 1798
GlyphClass: 2
Flags: W
AnchorPoint: "Anchor-1" 922 -240 basechar 0
AnchorPoint: "Anchor-0" 924 1351 basechar 0
LayerCount: 2
Fore
SplineSet
554 135 m 1,0,-1
 870 1206 l 1,1,-1
 981 1206 l 1,2,-1
 1292 135 l 1,3,-1
 1347 -84 l 1,4,-1
 1395 146 l 1,5,-1
 1657 1206 l 1,6,-1
 1783 1206 l 1,7,-1
 1411 -250 l 1,8,-1
 1293 -250 l 1,9,-1
 963 888 l 1,10,-1
 926 1033 l 1,11,-1
 890 888 l 1,12,-1
 552 -250 l 1,13,-1
 434 -250 l 1,14,-1
 61 1206 l 1,15,-1
 187 1206 l 1,16,-1
 453 145 l 1,17,-1
 499 -83 l 1,18,-1
 554 135 l 1,0,-1
EndSplineSet
Substitution2: "'c2sc' Capitals to Small Capitals lookup 0 subtable" W.smcp
Position2: "'cpsp' Capital Spacing lookup 0 subtable" dx=36 dy=0 dh=72 dv=0
EndChar

StartChar: W.smcp
Encoding: 65701 -1 282
Width: 1575
GlyphClass: 2
Flags: W
AnchorPoint: "Anchor-1" 786 10 basechar 0
AnchorPoint: "Anchor-0" 786 1320 basechar 0
LayerCount: 2
Fore
SplineSet
467 278 m 1,0,-1
 738 1165 l 1,1,-1
 849 1165 l 1,2,-1
 1116 277 l 1,3,-1
 1152 135 l 1,4,-1
 1185 290 l 1,5,-1
 1410 1165 l 1,6,-1
 1531 1165 l 1,7,-1
 1215 0 l 1,8,-1
 1099 0 l 1,9,-1
 815 935 l 1,10,-1
 794 1020 l 1,11,-1
 773 935 l 1,12,-1
 483 0 l 1,13,-1
 368 0 l 1,14,-1
 51 1165 l 1,15,-1
 172 1165 l 1,16,-1
 399 289 l 1,17,-1
 431 136 l 1,18,-1
 467 278 l 1,0,-1
EndSplineSet
EndChar

StartChar: X
Encoding: 88 88 289
Width: 1254
VWidth: 1798
GlyphClass: 2
Flags: W
AnchorPoint: "Anchor-1" 645 -240 basechar 0
AnchorPoint: "Anchor-0" 653 1362 basechar 0
LayerCount: 2
Fore
SplineSet
218 1206 m 1,0,-1
 628 592 l 1,1,-1
 1038 1206 l 1,2,-1
 1184 1206 l 1,3,-1
 702 489 l 1,4,-1
 1199 -250 l 1,5,-1
 1052 -250 l 1,6,-1
 628 385 l 1,7,-1
 202 -250 l 1,8,-1
 56 -250 l 1,9,-1
 553 489 l 1,10,-1
 71 1206 l 1,11,-1
 218 1206 l 1,0,-1
EndSplineSet
Substitution2: "'c2sc' Capitals to Small Capitals lookup 0 subtable" X.smcp
Position2: "'cpsp' Capital Spacing lookup 0 subtable" dx=36 dy=0 dh=72 dv=0
EndChar

StartChar: X.smcp
Encoding: 65707 -1 290
Width: 1082
GlyphClass: 2
Flags: W
AnchorPoint: "Anchor-1" 550 8 basechar 0
AnchorPoint: "Anchor-0" 550 1320 basechar 0
LayerCount: 2
Fore
SplineSet
198 1165 m 1,0,-1
 539 684 l 1,1,-1
 882 1165 l 1,2,-1
 1026 1165 l 1,3,-1
 613 590 l 1,4,-1
 1042 0 l 1,5,-1
 898 0 l 1,6,-1
 541 495 l 1,7,-1
 185 0 l 1,8,-1
 43 0 l 1,9,-1
 470 590 l 1,10,-1
 55 1165 l 1,11,-1
 198 1165 l 1,0,-1
EndSplineSet
EndChar

StartChar: Y
Encoding: 89 89 291
Width: 1227
VWidth: 1798
GlyphClass: 2
Flags: W
AnchorPoint: "Anchor-1" 615 -249 basechar 0
AnchorPoint: "Anchor-0" 618 1350 basechar 0
LayerCount: 2
Fore
SplineSet
171 1206 m 1,0,-1
 612 414 l 1,1,-1
 1056 1206 l 1,2,-1
 1199 1206 l 1,3,-1
 673 299 l 1,4,-1
 673 -250 l 1,5,-1
 550 -250 l 1,6,-1
 550 299 l 1,7,-1
 24 1206 l 1,8,-1
 171 1206 l 1,0,-1
EndSplineSet
Substitution2: "'c2sc' Capitals to Small Capitals lookup 0 subtable" Y.smcp
Position2: "'cpsp' Capital Spacing lookup 0 subtable" dx=36 dy=0 dh=72 dv=0
EndChar

StartChar: Y.smcp
Encoding: 65708 -1 292
Width: 1060
GlyphClass: 2
Flags: W
AnchorPoint: "Anchor-1" 533 10 basechar 0
AnchorPoint: "Anchor-0" 533 1320 basechar 0
LayerCount: 2
Fore
SplineSet
159 1165 m 1,0,-1
 529 530 l 1,1,-1
 900 1165 l 1,2,-1
 1036 1165 l 1,3,-1
 587 422 l 1,4,-1
 587 0 l 1,5,-1
 468 0 l 1,6,-1
 468 429 l 1,7,-1
 22 1165 l 1,8,-1
 159 1165 l 1,0,-1
EndSplineSet
EndChar

StartChar: Z
Encoding: 90 90 301
Width: 1226
VWidth: 1798
GlyphClass: 2
Flags: W
AnchorPoint: "Anchor-1" 613 -240 basechar 0
AnchorPoint: "Anchor-0" 616 1351 basechar 0
LayerCount: 2
Fore
SplineSet
1138 -145 m 1,0,-1
 1138 -250 l 1,1,-1
 91 -250 l 1,2,-1
 91 -156 l 1,3,-1
 955 1101 l 1,4,-1
 117 1101 l 1,5,-1
 117 1206 l 1,6,-1
 1106 1206 l 1,7,-1
 1106 1117 l 1,8,-1
 241 -145 l 1,9,-1
 1138 -145 l 1,0,-1
EndSplineSet
Substitution2: "'c2sc' Capitals to Small Capitals lookup 0 subtable" Z.smcp
Position2: "'cpsp' Capital Spacing lookup 0 subtable" dx=36 dy=0 dh=72 dv=0
EndChar

StartChar: Z.smcp
Encoding: 65714 -1 302
Width: 1056
GlyphClass: 2
Flags: W
AnchorPoint: "Anchor-1" 533 10 basechar 0
AnchorPoint: "Anchor-0" 533 1320 basechar 0
LayerCount: 2
Fore
SplineSet
983 103 m 1,0,-1
 983 0 l 1,1,-1
 76 0 l 1,2,-1
 76 85 l 1,3,-1
 802 1062 l 1,4,-1
 97 1062 l 1,5,-1
 97 1165 l 1,6,-1
 956 1165 l 1,7,-1
 956 1084 l 1,8,-1
 230 103 l 1,9,-1
 983 103 l 1,0,-1
EndSplineSet
EndChar

StartChar: a
Encoding: 97 97 309
Width: 1098
VWidth: 1798
GlyphClass: 2
Flags: W
AnchorPoint: "Anchor-1" 502 -250 basechar 0
AnchorPoint: "Anchor-0" 582 1040 basechar 0
LayerCount: 2
Fore
SplineSet
840 -250 m 1,0,1
 831 -222 831 -222 824.5 -181.5 c 128,-1,2
 818 -141 818 -141 816 -99 c 1,3,4
 762 -168 762 -168 670 -219 c 128,-1,5
 578 -270 578 -270 450 -270 c 0,6,7
 292 -270 292 -270 196.5 -182 c 128,-1,8
 101 -94 101 -94 101 38 c 0,9,10
 101 197 101 197 233 288.5 c 128,-1,11
 365 380 365 380 594 380 c 2,12,-1
 815 380 l 1,13,-1
 815 502 l 2,14,15
 815 618 815 618 743.5 684.5 c 128,-1,16
 672 751 672 751 536 751 c 0,17,18
 410 751 410 751 328 687 c 128,-1,19
 246 623 246 623 246 533 c 1,20,-1
 127 534 l 1,21,22
 127 615 127 615 179 687.5 c 128,-1,23
 231 760 231 760 324.5 806 c 128,-1,24
 418 852 418 852 542 852 c 0,25,26
 715 852 715 852 825 764 c 128,-1,27
 935 676 935 676 935 500 c 2,28,-1
 935 -23 l 2,29,30
 935 -79 935 -79 943.5 -139 c 128,-1,31
 952 -199 952 -199 968 -237 c 1,32,-1
 968 -250 l 1,33,-1
 840 -250 l 1,0,1
464 -163 m 0,34,35
 594 -163 594 -163 685 -101 c 128,-1,36
 776 -39 776 -39 815 50 c 1,37,-1
 815 288 l 1,38,-1
 611 288 l 2,39,40
 427 288 427 288 324 224 c 128,-1,41
 221 160 221 160 221 48 c 0,42,43
 221 -40 221 -40 286 -101.5 c 128,-1,44
 351 -163 351 -163 464 -163 c 0,34,35
EndSplineSet
Substitution2: "'unic' Unicase lookup 2 subtable" A.unic
Substitution2: "'smcp' Lowercase to Small Capitals lookup 1 subtable" A.smcp
EndChar

StartChar: acute
Encoding: 180 180 313
Width: 577
VWidth: 1798
GlyphClass: 2
Flags: W
LayerCount: 2
Fore
SplineSet
125 1006 m 1,0,-1
 316 1286 l 1,1,-1
 461 1286 l 1,2,-1
 229 1006 l 1,3,-1
 125 1006 l 1,0,-1
EndSplineSet
EndChar

StartChar: acutecomb
Encoding: 769 769 314
Width: 0
VWidth: 1798
GlyphClass: 4
Flags: W
AnchorPoint: "Anchor-3" -566 1391 basemark 0
AnchorPoint: "Anchor-3" -566 1040 mark 0
AnchorPoint: "Anchor-0" -566 1040 mark 0
LayerCount: 2
Fore
SplineSet
-616 1006 m 1,0,-1
 -424 1286 l 1,1,-1
 -280 1286 l 1,2,-1
 -511 1006 l 1,3,-1
 -616 1006 l 1,0,-1
EndSplineSet
EndChar

StartChar: ae
Encoding: 230 230 316
Width: 1733
VWidth: 1798
GlyphClass: 2
Flags: W
AnchorPoint: "Anchor-0" 859 1041 basechar 0
LayerCount: 2
Fore
SplineSet
1266 -270 m 0,0,1
 1128 -270 1128 -270 1027.5 -214.5 c 128,-1,2
 927 -159 927 -159 868 -63 c 1,3,4
 838 -112 838 -112 781.5 -159.5 c 128,-1,5
 725 -207 725 -207 640 -238.5 c 128,-1,6
 555 -270 555 -270 441 -270 c 0,7,8
 270 -270 270 -270 178 -184 c 128,-1,9
 86 -98 86 -98 86 44 c 0,10,11
 86 200 86 200 197.5 291.5 c 128,-1,12
 309 383 309 383 525 383 c 2,13,-1
 781 383 l 1,14,-1
 781 470 l 2,15,16
 781 602 781 602 717.5 675.5 c 128,-1,17
 654 749 654 749 528 749 c 0,18,19
 389 749 389 749 311 681.5 c 128,-1,20
 233 614 233 614 233 516 c 1,21,-1
 114 528 l 1,22,23
 114 622 114 622 165.5 695 c 128,-1,24
 217 768 217 768 310 810 c 128,-1,25
 403 852 403 852 528 852 c 0,26,27
 652 852 652 852 741.5 799 c 128,-1,28
 831 746 831 746 871 640 c 1,29,30
 931 739 931 739 1025.5 795.5 c 128,-1,31
 1120 852 1120 852 1236 852 c 0,32,33
 1439 852 1439 852 1549 727.5 c 128,-1,34
 1659 603 1659 603 1659 388 c 2,35,-1
 1659 288 l 1,36,-1
 902 288 l 1,37,-1
 902 260 l 2,38,39
 902 142 902 142 940 44.5 c 128,-1,40
 978 -53 978 -53 1058.5 -110.5 c 128,-1,41
 1139 -168 1139 -168 1266 -168 c 0,42,43
 1379 -168 1379 -168 1457 -131.5 c 128,-1,44
 1535 -95 1535 -95 1589 -49 c 1,45,-1
 1637 -138 l 1,46,47
 1608 -164 1608 -164 1560 -195 c 128,-1,48
 1512 -226 1512 -226 1440 -248 c 128,-1,49
 1368 -270 1368 -270 1266 -270 c 0,0,1
1236 749 m 0,50,51
 1095 749 1095 749 1009 645 c 128,-1,52
 923 541 923 541 906 386 c 1,53,-1
 1539 386 l 1,54,-1
 1539 418 l 2,55,56
 1539 510 1539 510 1507 585 c 128,-1,57
 1475 660 1475 660 1408 704.5 c 128,-1,58
 1341 749 1341 749 1236 749 c 0,50,51
459 -169 m 0,59,60
 527 -169 527 -169 591 -145 c 128,-1,61
 655 -121 655 -121 705 -85.5 c 128,-1,62
 755 -50 755 -50 781 -14 c 1,63,-1
 781 286 l 1,64,-1
 527 286 l 2,65,66
 364 286 364 286 285 212 c 128,-1,67
 206 138 206 138 206 40 c 0,68,69
 206 -53 206 -53 270 -111 c 128,-1,70
 334 -169 334 -169 459 -169 c 0,59,60
EndSplineSet
Substitution2: "'unic' Unicase lookup 2 subtable" AE
Substitution2: "'smcp' Lowercase to Small Capitals lookup 1 subtable" AE.smcp
EndChar

StartChar: afii57636
Encoding: 8362 8362 321
Width: 1562
GlyphClass: 2
Flags: W
LayerCount: 2
Fore
SplineSet
155 1082 m 1,0,-1
 654 1082 l 2,1,2
 816 1082 816 1082 907.5 990.5 c 128,-1,3
 999 899 999 899 999 669 c 2,4,-1
 999 345 l 1,5,-1
 879 345 l 1,6,-1
 879 670 l 2,7,8
 879 793 879 793 848 860 c 128,-1,9
 817 927 817 927 760 953.5 c 128,-1,10
 703 980 703 980 625 980 c 2,11,-1
 275 980 l 1,12,-1
 275 0 l 1,13,-1
 155 0 l 1,14,-1
 155 1082 l 1,0,-1
1062 0 m 2,15,-1
 564 0 l 1,16,-1
 564 738 l 1,17,-1
 683 738 l 1,18,-1
 683 102 l 1,19,-1
 1033 102 l 2,20,21
 1111 102 1111 102 1168.5 128 c 128,-1,22
 1226 154 1226 154 1257 221.5 c 128,-1,23
 1288 289 1288 289 1288 412 c 2,24,-1
 1288 1082 l 1,25,-1
 1407 1082 l 1,26,-1
 1407 413 l 2,27,28
 1407 183 1407 183 1315.5 91.5 c 128,-1,29
 1224 0 1224 0 1062 0 c 2,15,-1
EndSplineSet
EndChar

StartChar: ampersand
Encoding: 38 38 325
Width: 1261
VWidth: 1798
GlyphClass: 2
Flags: W
LayerCount: 2
Fore
SplineSet
391 535 m 2,0,-1
 404 545 l 1,1,2
 327 640 327 640 283 722.5 c 128,-1,3
 239 805 239 805 239 895 c 0,4,5
 239 1049 239 1049 330 1138 c 128,-1,6
 421 1227 421 1227 574 1227 c 0,7,8
 672 1227 672 1227 741.5 1188 c 128,-1,9
 811 1149 811 1149 848 1084 c 128,-1,10
 885 1019 885 1019 885 941 c 0,11,12
 885 842 885 842 823.5 766.5 c 128,-1,13
 762 691 762 691 690 635 c 2,14,-1
 559 535 l 1,15,-1
 959 69 l 1,16,17
 1001 137 1001 137 1025.5 221 c 128,-1,18
 1050 305 1050 305 1050 402 c 1,19,-1
 1161 402 l 1,20,21
 1161 275 1161 275 1128 170.5 c 128,-1,22
 1095 66 1095 66 1033 -17 c 1,23,-1
 1232 -250 l 1,24,-1
 1087 -250 l 1,25,-1
 961 -104 l 1,26,27
 883 -181 883 -181 779.5 -225.5 c 128,-1,28
 676 -270 676 -270 561 -270 c 0,29,30
 351 -270 351 -270 230 -161.5 c 128,-1,31
 109 -53 109 -53 109 122 c 0,32,33
 109 253 109 253 190.5 349 c 128,-1,34
 272 445 272 445 391 535 c 2,0,-1
359 899 m 0,35,36
 359 834 359 834 394 762.5 c 128,-1,37
 429 691 429 691 493 612 c 1,38,-1
 625 712 l 2,39,40
 688 759 688 759 729.5 813 c 128,-1,41
 771 867 771 867 771 941 c 0,42,43
 771 1012 771 1012 720 1068 c 128,-1,44
 669 1124 669 1124 573 1124 c 0,45,46
 468 1124 468 1124 413.5 1057.5 c 128,-1,47
 359 991 359 991 359 899 c 0,35,36
228 122 m 0,48,49
 228 46 228 46 264 -20 c 128,-1,50
 300 -86 300 -86 374 -126.5 c 128,-1,51
 448 -167 448 -167 561 -167 c 0,52,53
 652 -167 652 -167 737 -129 c 128,-1,54
 822 -91 822 -91 890 -21 c 1,55,-1
 484 451 l 2,56,57
 477 459 477 459 471 467 c 1,58,-1
 423 430 l 2,59,60
 338 361 338 361 296 303.5 c 128,-1,61
 254 246 254 246 241 200.5 c 128,-1,62
 228 155 228 155 228 122 c 0,48,49
EndSplineSet
Substitution2: "'smcp' Lowercase to Small Capitals lookup 1 subtable" ampersand.smcp
Substitution2: "'c2sc' Capitals to Small Capitals lookup 0 subtable" ampersand.smcp
Position2: "'cpsp' Capital Spacing lookup 0 subtable" dx=36 dy=0 dh=72 dv=0
EndChar

StartChar: ampersand.smcp
Encoding: 65718 -1 326
Width: 1243
GlyphClass: 2
Flags: W
LayerCount: 2
Fore
SplineSet
499 -18 m 0,0,1
 324 -18 324 -18 222.5 64 c 128,-1,2
 121 146 121 146 121 275 c 0,3,4
 121 376 121 376 172.5 443 c 128,-1,5
 224 510 224 510 311 574 c 2,6,-1
 395 635 l 1,7,8
 317 714 317 714 269 780 c 128,-1,9
 221 846 221 846 221 929 c 0,10,11
 221 1042 221 1042 299.5 1111.5 c 128,-1,12
 378 1181 378 1181 509 1181 c 0,13,14
 643 1181 643 1181 718.5 1108.5 c 128,-1,15
 794 1036 794 1036 794 937 c 0,16,17
 794 862 794 862 747 798.5 c 128,-1,18
 700 735 700 735 646 696 c 2,19,-1
 549 625 l 1,20,-1
 893 274 l 1,21,22
 935 333 935 333 958.5 407 c 128,-1,23
 982 481 982 481 982 566 c 1,24,-1
 1094 566 l 1,25,26
 1094 462 1094 462 1060.5 368.5 c 128,-1,27
 1027 275 1027 275 967 198 c 1,28,-1
 1161 0 l 1,29,-1
 1019 0 l 1,30,-1
 898 123 l 1,31,32
 823 57 823 57 722 19.5 c 128,-1,33
 621 -18 621 -18 499 -18 c 0,0,1
339 923 m 0,34,35
 339 868 339 868 378 814.5 c 128,-1,36
 417 761 417 761 480 696 c 1,37,-1
 573 763 l 2,38,39
 620 798 620 798 647.5 841 c 128,-1,40
 675 884 675 884 675 930 c 0,41,42
 675 990 675 990 632 1033.5 c 128,-1,43
 589 1077 589 1077 506 1077 c 0,44,45
 424 1077 424 1077 381.5 1030 c 128,-1,46
 339 983 339 983 339 923 c 0,34,35
240 288 m 0,47,48
 240 206 240 206 305.5 146 c 128,-1,49
 371 86 371 86 507 86 c 0,50,51
 601 86 601 86 681.5 115.5 c 128,-1,52
 762 145 762 145 824 198 c 1,53,-1
 465 564 l 1,54,-1
 374 497 l 2,55,56
 285 432 285 432 262.5 382 c 128,-1,57
 240 332 240 332 240 288 c 0,47,48
EndSplineSet
EndChar

StartChar: aogonek
Encoding: 261 261 327
Width: 1098
VWidth: 1798
GlyphClass: 2
Flags: W
AnchorPoint: "Anchor-1" 502 -250 basechar 0
AnchorPoint: "Anchor-0" 582 1040 basechar 0
LayerCount: 2
Fore
SplineSet
978 -620 m 1,0,1
 956 -635 956 -635 921.5 -649.5 c 128,-1,2
 887 -664 887 -664 834 -664 c 0,3,4
 761 -664 761 -664 713 -621.5 c 128,-1,5
 665 -579 665 -579 665 -494 c 0,6,7
 665 -429 665 -429 711.5 -364.5 c 128,-1,8
 758 -300 758 -300 838 -245 c 1,9,10
 830 -217 830 -217 824 -178 c 128,-1,11
 818 -139 818 -139 816 -99 c 1,12,13
 762 -168 762 -168 670 -219 c 128,-1,14
 578 -270 578 -270 450 -270 c 0,15,16
 292 -270 292 -270 196.5 -182 c 128,-1,17
 101 -94 101 -94 101 38 c 0,18,19
 101 197 101 197 233 288.5 c 128,-1,20
 365 380 365 380 594 380 c 2,21,-1
 815 380 l 1,22,-1
 815 502 l 2,23,24
 815 618 815 618 743.5 684.5 c 128,-1,25
 672 751 672 751 536 751 c 0,26,27
 410 751 410 751 328 687 c 128,-1,28
 246 623 246 623 246 533 c 1,29,-1
 127 534 l 1,30,31
 127 615 127 615 179 687.5 c 128,-1,32
 231 760 231 760 324.5 806 c 128,-1,33
 418 852 418 852 542 852 c 0,34,35
 715 852 715 852 825 764 c 128,-1,36
 935 676 935 676 935 500 c 2,37,-1
 935 -23 l 2,38,39
 935 -79 935 -79 943.5 -139 c 128,-1,40
 952 -199 952 -199 968 -237 c 1,41,-1
 968 -250 l 1,42,-1
 952 -250 l 1,43,44
 884 -302 884 -302 828 -358.5 c 128,-1,45
 772 -415 772 -415 772 -484 c 0,46,47
 772 -518 772 -518 790.5 -543 c 128,-1,48
 809 -568 809 -568 858 -568 c 0,49,50
 894 -568 894 -568 920.5 -556.5 c 128,-1,51
 947 -545 947 -545 963 -535 c 1,52,-1
 978 -620 l 1,0,1
464 -163 m 0,53,54
 594 -163 594 -163 685 -101 c 128,-1,55
 776 -39 776 -39 815 50 c 1,56,-1
 815 288 l 1,57,-1
 611 288 l 2,58,59
 427 288 427 288 324 224 c 128,-1,60
 221 160 221 160 221 48 c 0,61,62
 221 -40 221 -40 286 -101.5 c 128,-1,63
 351 -163 351 -163 464 -163 c 0,53,54
EndSplineSet
Substitution2: "'locl' Localized Forms in Latin lookup 8 subtable" aogonek.NAV
Substitution2: "'unic' Unicase lookup 2 subtable" Aogonek.unic
Substitution2: "'smcp' Lowercase to Small Capitals lookup 1 subtable" Aogonek.smcp
EndChar

StartChar: approxequal
Encoding: 8776 8776 329
Width: 1154
GlyphClass: 2
Flags: W
LayerCount: 2
Fore
SplineSet
111 742 m 1,0,-1
 107 869 l 1,1,2
 154 929 154 929 218 963 c 128,-1,3
 282 997 282 997 347 997 c 0,4,5
 427 999 427 999 472.5 977.5 c 128,-1,6
 518 956 518 956 581 924 c 0,7,8
 640 894 640 894 683.5 873.5 c 128,-1,9
 727 853 727 853 801 853 c 0,10,11
 866 853 866 853 927 890.5 c 128,-1,12
 988 928 988 928 1035 992 c 1,13,-1
 1039 864 l 1,14,15
 992 805 992 805 930 771 c 128,-1,16
 868 737 868 737 803 737 c 0,17,18
 729 737 729 737 686.5 756.5 c 128,-1,19
 644 776 644 776 585 806 c 0,20,21
 522 838 522 838 475.5 860.5 c 128,-1,22
 429 883 429 883 349 881 c 0,23,24
 284 881 284 881 221 843.5 c 128,-1,25
 158 806 158 806 111 742 c 1,0,-1
105 339 m 1,26,-1
 101 466 l 1,27,28
 148 525 148 525 212.5 559 c 128,-1,29
 277 593 277 593 342 593 c 0,30,31
 422 595 422 595 467.5 573.5 c 128,-1,32
 513 552 513 552 576 520 c 0,33,34
 635 490 635 490 678.5 469.5 c 128,-1,35
 722 449 722 449 796 449 c 0,36,37
 861 449 861 449 922 486.5 c 128,-1,38
 983 524 983 524 1030 588 c 1,39,-1
 1033 461 l 1,40,41
 986 402 986 402 924 368 c 128,-1,42
 862 334 862 334 797 334 c 0,43,44
 723 334 723 334 680.5 353.5 c 128,-1,45
 638 373 638 373 579 403 c 0,46,47
 516 435 516 435 469.5 457.5 c 128,-1,48
 423 480 423 480 343 478 c 0,49,50
 278 478 278 478 215 441 c 128,-1,51
 152 404 152 404 105 339 c 1,26,-1
EndSplineSet
EndChar

StartChar: arabic_2dots
Encoding: 65720 -1 330
Width: 517
GlyphClass: 1
Flags: W
LayerCount: 2
Fore
SplineSet
395 204 m 1,0,-1
 498 102 l 1,1,-1
 395 -1 l 1,2,-1
 293 102 l 1,3,-1
 395 204 l 1,0,-1
119 204 m 1,4,-1
 222 102 l 1,5,-1
 119 -1 l 1,6,-1
 17 102 l 1,7,-1
 119 204 l 1,4,-1
EndSplineSet
EndChar

StartChar: arabic_3dots
Encoding: 65721 -1 331
Width: 528
GlyphClass: 1
Flags: W
LayerCount: 2
Fore
SplineSet
255 391 m 1,0,-1
 354 292 l 1,1,-1
 255 193 l 1,2,-1
 156 292 l 1,3,-1
 255 391 l 1,0,-1
401 165 m 1,4,-1
 500 66 l 1,5,-1
 401 -33 l 1,6,-1
 302 66 l 1,7,-1
 401 165 l 1,4,-1
109 165 m 1,8,-1
 209 66 l 1,9,-1
 109 -33 l 1,10,-1
 10 66 l 1,11,-1
 109 165 l 1,8,-1
EndSplineSet
EndChar

StartChar: arabic_3dots_a
Encoding: 65722 -1 332
Width: 528
GlyphClass: 1
Flags: W
LayerCount: 2
Fore
SplineSet
401 233 m 1,0,-1
 500 134 l 1,1,-1
 401 35 l 1,2,-1
 302 134 l 1,3,-1
 401 233 l 1,0,-1
109 233 m 1,4,-1
 209 134 l 1,5,-1
 109 35 l 1,6,-1
 10 134 l 1,7,-1
 109 233 l 1,4,-1
255 7 m 1,8,-1
 354 -91 l 1,9,-1
 255 -190 l 1,10,-1
 156 -91 l 1,11,-1
 255 7 l 1,8,-1
EndSplineSet
EndChar

StartChar: arabic_dot
Encoding: 65723 -1 333
Width: 197
GlyphClass: 1
Flags: W
LayerCount: 2
Fore
SplineSet
96 210 m 1,0,-1
 204 102 l 1,1,-1
 96 -5 l 1,2,-1
 -11 102 l 1,3,-1
 96 210 l 1,0,-1
EndSplineSet
EndChar

StartChar: arabic_gaf_bar
Encoding: 65724 -1 334
Width: 787
GlyphClass: 1
Flags: W
LayerCount: 2
Fore
SplineSet
-64 1581 m 1,0,-1
 -64 1661 l 1,1,-1
 681 1963 l 1,2,-1
 681 1884 l 1,3,-1
 -64 1581 l 1,0,-1
EndSplineSet
EndChar

StartChar: asciicircum
Encoding: 94 94 337
Width: 853
VWidth: 1798
GlyphClass: 2
Flags: W
LayerCount: 2
Fore
SplineSet
649 479 m 1,0,-1
 422 1048 l 1,1,-1
 193 479 l 1,2,-1
 78 479 l 1,3,-1
 377 1206 l 1,4,-1
 467 1206 l 1,5,-1
 765 479 l 1,6,-1
 649 479 l 1,0,-1
EndSplineSet
EndChar

StartChar: asciitilde
Encoding: 126 126 338
Width: 1403
VWidth: 1798
GlyphClass: 2
Flags: W
LayerCount: 2
Fore
SplineSet
1151 515 m 1,0,-1
 1255 515 l 1,1,2
 1255 423 1255 423 1219.5 345 c 128,-1,3
 1184 267 1184 267 1117.5 220 c 128,-1,4
 1051 173 1051 173 958 173 c 0,5,6
 870 173 870 173 805 210 c 128,-1,7
 740 247 740 247 660 317 c 0,8,9
 598 374 598 374 550 402 c 128,-1,10
 502 430 502 430 441 430 c 0,11,12
 353 430 353 430 303.5 370.5 c 128,-1,13
 254 311 254 311 254 200 c 1,14,-1
 146 199 l 1,15,16
 146 294 146 294 181 371 c 128,-1,17
 216 448 216 448 282 493.5 c 128,-1,18
 348 539 348 539 441 539 c 0,19,20
 530 539 530 539 597 500.5 c 128,-1,21
 664 462 664 462 740 394 c 0,22,23
 805 334 805 334 853 307.5 c 128,-1,24
 901 281 901 281 958 281 c 0,25,26
 1049 281 1049 281 1100 345 c 128,-1,27
 1151 409 1151 409 1151 515 c 1,0,-1
EndSplineSet
EndChar

StartChar: asterisk
Encoding: 42 42 339
Width: 869
VWidth: 1798
GlyphClass: 2
Flags: W
LayerCount: 2
Fore
SplineSet
144 451 m 1,0,-1
 362 751 l 1,1,-1
 29 858 l 1,2,-1
 62 960 l 1,3,-1
 394 838 l 1,4,-1
 390 1207 l 1,5,-1
 494 1207 l 1,6,-1
 485 834 l 1,7,-1
 810 961 l 1,8,-1
 843 858 l 1,9,-1
 510 744 l 1,10,-1
 733 450 l 1,11,-1
 647 387 l 1,12,-1
 434 692 l 1,13,-1
 229 389 l 1,14,-1
 144 451 l 1,0,-1
EndSplineSet
EndChar

StartChar: at
Encoding: 64 64 340
Width: 1871
VWidth: 1798
GlyphClass: 2
Flags: W
LayerCount: 2
Fore
SplineSet
1752 263 m 0,0,1
 1748 169 1748 169 1724.5 74.5 c 128,-1,2
 1701 -20 1701 -20 1654.5 -98 c 128,-1,3
 1608 -176 1608 -176 1535.5 -223 c 128,-1,4
 1463 -270 1463 -270 1362 -270 c 0,5,6
 1265 -270 1265 -270 1204 -218 c 128,-1,7
 1143 -166 1143 -166 1124 -74 c 1,8,9
 1069 -171 1069 -171 992 -220.5 c 128,-1,10
 915 -270 915 -270 824 -270 c 0,11,12
 682 -270 682 -270 614 -147 c 128,-1,13
 546 -24 546 -24 564 177 c 0,14,15
 580 349 580 349 642 475 c 128,-1,16
 704 601 704 601 797.5 670 c 128,-1,17
 891 739 891 739 999 739 c 0,18,19
 1100 739 1100 739 1158 706.5 c 128,-1,20
 1216 674 1216 674 1268 631 c 1,21,-1
 1218 62 l 2,22,23
 1209 -45 1209 -45 1235.5 -97.5 c 128,-1,24
 1262 -150 1262 -150 1302 -166.5 c 128,-1,25
 1342 -183 1342 -183 1374 -183 c 0,26,27
 1463 -183 1463 -183 1524.5 -124 c 128,-1,28
 1586 -65 1586 -65 1620 36 c 128,-1,29
 1654 137 1654 137 1659 263 c 0,30,31
 1671 515 1671 515 1604 697.5 c 128,-1,32
 1537 880 1537 880 1383.5 978.5 c 128,-1,33
 1230 1077 1230 1077 981 1077 c 0,34,35
 766 1077 766 1077 599.5 972 c 128,-1,36
 433 867 433 867 334 676 c 128,-1,37
 235 485 235 485 223 228 c 0,38,39
 211 -21 211 -21 287 -210.5 c 128,-1,40
 363 -400 363 -400 519.5 -506.5 c 128,-1,41
 676 -613 676 -613 904 -613 c 0,42,43
 992 -613 992 -613 1082.5 -591.5 c 128,-1,44
 1173 -570 1173 -570 1234 -534 c 1,45,-1
 1265 -614 l 1,46,47
 1198 -657 1198 -657 1094 -680 c 128,-1,48
 990 -703 990 -703 900 -703 c 0,49,50
 647 -703 647 -703 468.5 -590 c 128,-1,51
 290 -477 290 -477 200.5 -268 c 128,-1,52
 111 -59 111 -59 123 228 c 0,53,54
 135 508 135 508 244.5 720.5 c 128,-1,55
 354 933 354 933 544 1052 c 128,-1,56
 734 1171 734 1171 985 1171 c 0,57,58
 1251 1171 1251 1171 1425.5 1060 c 128,-1,59
 1600 949 1600 949 1682 745 c 128,-1,60
 1764 541 1764 541 1752 263 c 0,0,1
671 177 m 0,61,62
 655 23 655 23 699.5 -74 c 128,-1,63
 744 -171 744 -171 846 -171 c 0,64,65
 918 -171 918 -171 993 -118.5 c 128,-1,66
 1068 -66 1068 -66 1119 82 c 1,67,-1
 1164 597 l 1,68,69
 1135 619 1135 619 1095.5 633 c 128,-1,70
 1056 647 1056 647 1006 647 c 0,71,72
 885 647 885 647 790 531.5 c 128,-1,73
 695 416 695 416 671 177 c 0,61,62
EndSplineSet
EndChar

StartChar: b
Encoding: 98 98 342
Width: 1136
VWidth: 1798
GlyphClass: 2
Flags: W
AnchorPoint: "Anchor-1" 598 -260 basechar 0
AnchorPoint: "Anchor-0" 634 1361 basechar 0
LayerCount: 2
Fore
SplineSet
1028 301 m 2,0,-1
 1028 280 l 2,1,2
 1028 119 1028 119 979.5 -5.5 c 128,-1,3
 931 -130 931 -130 838.5 -200 c 128,-1,4
 746 -270 746 -270 615 -270 c 0,5,6
 497 -270 497 -270 411.5 -224.5 c 128,-1,7
 326 -179 326 -179 273 -100 c 1,8,-1
 267 -250 l 1,9,-1
 155 -250 l 1,10,-1
 155 1286 l 1,11,-1
 275 1286 l 1,12,-1
 275 676 l 1,13,14
 329 759 329 759 412.5 805.5 c 128,-1,15
 496 852 496 852 613 852 c 0,16,17
 811 852 811 852 919.5 702.5 c 128,-1,18
 1028 553 1028 553 1028 301 c 2,0,-1
907 280 m 2,19,-1
 907 301 l 2,20,21
 907 427 907 427 874.5 528 c 128,-1,22
 842 629 842 629 772 688 c 128,-1,23
 702 747 702 747 590 747 c 0,24,25
 455 747 455 747 381.5 679.5 c 128,-1,26
 308 612 308 612 275 527 c 1,27,-1
 275 40 l 1,28,29
 313 -46 313 -46 390 -105.5 c 128,-1,30
 467 -165 467 -165 592 -165 c 0,31,32
 701 -165 701 -165 770.5 -106 c 128,-1,33
 840 -47 840 -47 873.5 54 c 128,-1,34
 907 155 907 155 907 280 c 2,19,-1
EndSplineSet
Substitution2: "'unic' Unicase lookup 2 subtable" B
Substitution2: "'smcp' Lowercase to Small Capitals lookup 1 subtable" B.smcp
EndChar

StartChar: backslash
Encoding: 92 92 343
Width: 808
VWidth: 1798
GlyphClass: 2
Flags: W
LayerCount: 2
Fore
SplineSet
657 -375 m 1,0,-1
 49 1206 l 1,1,-1
 166 1206 l 1,2,-1
 774 -375 l 1,3,-1
 657 -375 l 1,0,-1
EndSplineSet
EndChar

StartChar: bar
Encoding: 124 124 344
Width: 453
VWidth: 1798
GlyphClass: 2
Flags: W
LayerCount: 2
Fore
SplineSet
280 1206 m 1,0,-1
 280 -520 l 1,1,-1
 179 -520 l 1,2,-1
 179 1206 l 1,3,-1
 280 1206 l 1,0,-1
EndSplineSet
EndChar

StartChar: braceleft
Encoding: 123 123 345
Width: 677
VWidth: 1798
GlyphClass: 2
Flags: W
LayerCount: 2
Fore
SplineSet
667 -573 m 1,0,-1
 637 -653 l 1,1,2
 508 -614 508 -614 434.5 -545.5 c 128,-1,3
 361 -477 361 -477 330.5 -386 c 128,-1,4
 300 -295 300 -295 300 -191 c 2,5,-1
 300 35 l 2,6,7
 300 153 300 153 245.5 223 c 128,-1,8
 191 293 191 293 69 293 c 1,9,-1
 69 399 l 1,10,11
 191 399 191 399 245.5 468.5 c 128,-1,12
 300 538 300 538 300 655 c 2,13,-1
 300 882 l 2,14,15
 300 987 300 987 330.5 1078.5 c 128,-1,16
 361 1170 361 1170 434.5 1239.5 c 128,-1,17
 508 1309 508 1309 637 1347 c 1,18,-1
 664 1268 l 1,19,20
 531 1225 531 1225 475.5 1122 c 128,-1,21
 420 1019 420 1019 420 882 c 2,22,-1
 420 655 l 2,23,24
 420 551 420 551 377 468 c 128,-1,25
 334 385 334 385 239 346 c 1,26,27
 334 306 334 306 377 223 c 128,-1,28
 420 140 420 140 420 35 c 2,29,-1
 420 -191 l 2,30,31
 420 -327 420 -327 477 -428 c 128,-1,32
 534 -529 534 -529 667 -573 c 1,0,-1
EndSplineSet
EndChar

StartChar: braceright
Encoding: 125 125 346
Width: 677
VWidth: 1798
GlyphClass: 2
Flags: W
LayerCount: 2
Fore
SplineSet
39 -653 m 1,0,-1
 10 -573 l 1,1,2
 143 -529 143 -529 200 -428 c 128,-1,3
 257 -327 257 -327 257 -191 c 2,4,-1
 257 35 l 2,5,6
 257 143 257 143 302.5 226 c 128,-1,7
 348 309 348 309 449 346 c 1,8,9
 348 383 348 383 302.5 465.5 c 128,-1,10
 257 548 257 548 257 655 c 2,11,-1
 257 882 l 2,12,13
 257 1019 257 1019 201.5 1122 c 128,-1,14
 146 1225 146 1225 12 1268 c 1,15,-1
 39 1347 l 1,16,17
 169 1309 169 1309 242.5 1239.5 c 128,-1,18
 316 1170 316 1170 346.5 1078.5 c 128,-1,19
 377 987 377 987 377 882 c 2,20,-1
 377 655 l 2,21,22
 377 538 377 538 431.5 468.5 c 128,-1,23
 486 399 486 399 608 399 c 1,24,-1
 608 293 l 1,25,26
 486 293 486 293 431.5 223 c 128,-1,27
 377 153 377 153 377 35 c 2,28,-1
 377 -191 l 2,29,30
 377 -295 377 -295 346.5 -386 c 128,-1,31
 316 -477 316 -477 242.5 -545.5 c 128,-1,32
 169 -614 169 -614 39 -653 c 1,0,-1
EndSplineSet
EndChar

StartChar: bracketleft
Encoding: 91 91 347
Width: 491
VWidth: 1798
GlyphClass: 2
Flags: W
LayerCount: 2
Fore
SplineSet
494 1311 m 1,0,-1
 284 1311 l 1,1,-1
 284 -459 l 1,2,-1
 494 -459 l 1,3,-1
 494 -559 l 1,4,-1
 171 -559 l 1,5,-1
 171 1412 l 1,6,-1
 494 1412 l 1,7,-1
 494 1311 l 1,0,-1
EndSplineSet
Position2: "Single Positioning lookup 9 subtable" dx=0 dy=0 dh=100 dv=0
Position2: "Single Positioning lookup 8 subtable" dx=0 dy=0 dh=160 dv=0
EndChar

StartChar: bracketright
Encoding: 93 93 348
Width: 491
VWidth: 1798
GlyphClass: 2
Flags: W
LayerCount: 2
Fore
SplineSet
0 1412 m 1,0,-1
 324 1412 l 1,1,-1
 324 -559 l 1,2,-1
 0 -559 l 1,3,-1
 0 -459 l 1,4,-1
 211 -459 l 1,5,-1
 211 1311 l 1,6,-1
 0 1311 l 1,7,-1
 0 1412 l 1,0,-1
EndSplineSet
EndChar

StartChar: breve
Encoding: 728 728 349
Width: 866
VWidth: 1798
GlyphClass: 2
Flags: W
LayerCount: 2
Fore
SplineSet
614 1241 m 1,0,-1
 716 1241 l 1,1,2
 716 1127 716 1127 639 1055 c 128,-1,3
 562 983 562 983 428 983 c 256,4,5
 294 983 294 983 216.5 1055 c 128,-1,6
 139 1127 139 1127 139 1241 c 1,7,-1
 241 1241 l 1,8,9
 241 1172 241 1172 283 1121 c 128,-1,10
 325 1070 325 1070 428 1070 c 0,11,12
 528 1070 528 1070 571 1121.5 c 128,-1,13
 614 1173 614 1173 614 1241 c 1,0,-1
EndSplineSet
EndChar

StartChar: brokenbar
Encoding: 166 166 350
Width: 445
VWidth: 1798
GlyphClass: 2
Flags: W
LayerCount: 2
Fore
SplineSet
280 1206 m 1,0,-1
 280 448 l 1,1,-1
 160 448 l 1,2,-1
 160 1206 l 1,3,-1
 280 1206 l 1,0,-1
280 -520 m 1,4,-1
 160 -520 l 1,5,-1
 160 252 l 1,6,-1
 280 252 l 1,7,-1
 280 -520 l 1,4,-1
EndSplineSet
EndChar

StartChar: bullet
Encoding: 8226 8226 351
Width: 663
GlyphClass: 2
Flags: W
LayerCount: 2
Fore
SplineSet
147 718 m 2,0,-1
 147 753 l 2,1,2
 147 831 147 831 197 881.5 c 128,-1,3
 247 932 247 932 332 932 c 0,4,5
 418 932 418 932 468 881 c 128,-1,6
 518 830 518 830 518 753 c 2,7,-1
 518 718 l 2,8,9
 518 641 518 641 468.5 591 c 128,-1,10
 419 541 419 541 333 541 c 256,11,12
 247 541 247 541 197 591 c 128,-1,13
 147 641 147 641 147 718 c 2,0,-1
EndSplineSet
EndChar

StartChar: c
Encoding: 99 99 352
Width: 1056
VWidth: 1798
GlyphClass: 2
Flags: W
AnchorPoint: "Anchor-1" 533 -260 basechar 0
AnchorPoint: "Anchor-0" 533 1040 basechar 0
LayerCount: 2
Fore
SplineSet
557 -167 m 0,0,1
 632 -167 632 -167 698.5 -138 c 128,-1,2
 765 -109 765 -109 808.5 -53 c 128,-1,3
 852 3 852 3 858 85 c 1,4,-1
 973 85 l 1,5,6
 968 -18 968 -18 910 -98 c 128,-1,7
 852 -178 852 -178 759.5 -224 c 128,-1,8
 667 -270 667 -270 557 -270 c 0,9,10
 405 -270 405 -270 302 -198 c 128,-1,11
 199 -126 199 -126 147 -3.5 c 128,-1,12
 95 119 95 119 95 270 c 2,13,-1
 95 312 l 2,14,15
 95 464 95 464 147.5 586.5 c 128,-1,16
 200 709 200 709 302.5 780.5 c 128,-1,17
 405 852 405 852 556 852 c 0,18,19
 672 852 672 852 764.5 805 c 128,-1,20
 857 758 857 758 912.5 672 c 128,-1,21
 968 586 968 586 973 468 c 1,22,-1
 858 468 l 1,23,24
 851 599 851 599 764.5 674 c 128,-1,25
 678 749 678 749 556 749 c 0,26,27
 433 749 433 749 358 687.5 c 128,-1,28
 283 626 283 626 249 526.5 c 128,-1,29
 215 427 215 427 215 312 c 2,30,-1
 215 270 l 2,31,32
 215 155 215 155 248.5 55.5 c 128,-1,33
 282 -44 282 -44 357.5 -105.5 c 128,-1,34
 433 -167 433 -167 557 -167 c 0,0,1
EndSplineSet
Substitution2: "'unic' Unicase lookup 2 subtable" C
Substitution2: "'smcp' Lowercase to Small Capitals lookup 1 subtable" C.smcp
EndChar

StartChar: caron
Encoding: 711 711 354
Width: 837
VWidth: 1798
GlyphClass: 2
Flags: W
LayerCount: 2
Fore
SplineSet
251 1271 m 1,0,-1
 423 1077 l 1,1,-1
 595 1271 l 1,2,-1
 702 1271 l 1,3,-1
 702 1259 l 1,4,-1
 466 997 l 1,5,-1
 379 997 l 1,6,-1
 144 1260 l 1,7,-1
 144 1271 l 1,8,-1
 251 1271 l 1,0,-1
EndSplineSet
EndChar

StartChar: cedilla
Encoding: 184 184 358
Width: 499
VWidth: 1798
GlyphClass: 2
Flags: W
LayerCount: 2
Fore
SplineSet
153 -250 m 1,0,-1
 246 -250 l 1,1,-1
 235 -314 l 1,2,3
 297 -322 297 -322 348.5 -359 c 128,-1,4
 400 -396 400 -396 400 -485 c 0,5,6
 400 -575 400 -575 323 -630 c 128,-1,7
 246 -685 246 -685 106 -685 c 1,8,-1
 99 -607 l 1,9,10
 173 -607 173 -607 236.5 -579 c 128,-1,11
 300 -551 300 -551 300 -487 c 0,12,13
 300 -429 300 -429 257 -407.5 c 128,-1,14
 214 -386 214 -386 125 -378 c 1,15,-1
 153 -250 l 1,0,-1
EndSplineSet
EndChar

StartChar: cent
Encoding: 162 162 359
Width: 1116
VWidth: 1798
GlyphClass: 2
Flags: W
LayerCount: 2
Fore
SplineSet
582 -167 m 0,0,1
 657 -167 657 -167 723.5 -138 c 128,-1,2
 790 -109 790 -109 833.5 -53 c 128,-1,3
 877 3 877 3 883 85 c 1,4,-1
 998 85 l 1,5,6
 993 -9 993 -9 944 -84.5 c 128,-1,7
 895 -160 895 -160 815 -208 c 128,-1,8
 735 -256 735 -256 637 -267 c 1,9,-1
 637 -495 l 1,10,-1
 517 -495 l 1,11,-1
 517 -266 l 1,12,13
 386 -250 386 -250 298 -176 c 128,-1,14
 210 -102 210 -102 165 14 c 128,-1,15
 120 130 120 130 120 270 c 2,16,-1
 120 312 l 2,17,18
 120 453 120 453 165 569 c 128,-1,19
 210 685 210 685 298.5 759 c 128,-1,20
 387 833 387 833 517 848 c 1,21,-1
 517 1068 l 1,22,-1
 637 1068 l 1,23,-1
 637 849 l 1,24,25
 789 832 789 832 890 731 c 128,-1,26
 991 630 991 630 998 468 c 1,27,-1
 883 468 l 1,28,29
 876 599 876 599 789.5 674 c 128,-1,30
 703 749 703 749 581 749 c 0,31,32
 458 749 458 749 383 687.5 c 128,-1,33
 308 626 308 626 274 526.5 c 128,-1,34
 240 427 240 427 240 312 c 2,35,-1
 240 270 l 2,36,37
 240 155 240 155 273.5 55.5 c 128,-1,38
 307 -44 307 -44 382.5 -105.5 c 128,-1,39
 458 -167 458 -167 582 -167 c 0,0,1
EndSplineSet
EndChar

StartChar: circumflex
Encoding: 710 710 360
Width: 880
VWidth: 1798
GlyphClass: 2
Flags: W
LayerCount: 2
Fore
SplineSet
475 1277 m 1,0,-1
 716 1019 l 1,1,-1
 716 1009 l 1,2,-1
 605 1009 l 1,3,-1
 436 1191 l 1,4,-1
 269 1009 l 1,5,-1
 161 1009 l 1,6,-1
 161 1021 l 1,7,-1
 399 1277 l 1,8,-1
 475 1277 l 1,0,-1
EndSplineSet
EndChar

StartChar: colon
Encoding: 58 58 361
Width: 526
VWidth: 1798
GlyphClass: 2
Flags: W
LayerCount: 2
Fore
SplineSet
162 410 m 0,0,1
 162 452 162 452 192 482.5 c 128,-1,2
 222 513 222 513 263 513 c 256,3,4
 304 513 304 513 334.5 482.5 c 128,-1,5
 365 452 365 452 365 410 c 0,6,7
 365 369 365 369 335 339 c 128,-1,8
 305 309 305 309 263 309 c 0,9,10
 220 309 220 309 191 338 c 128,-1,11
 162 367 162 367 162 410 c 0,0,1
162 -148 m 0,12,13
 162 -106 162 -106 192 -75.5 c 128,-1,14
 222 -45 222 -45 263 -45 c 256,15,16
 304 -45 304 -45 334.5 -75.5 c 128,-1,17
 365 -106 365 -106 365 -148 c 0,18,19
 365 -189 365 -189 335 -219.5 c 128,-1,20
 305 -250 305 -250 263 -250 c 0,21,22
 220 -250 220 -250 191 -220.5 c 128,-1,23
 162 -191 162 -191 162 -148 c 0,12,13
EndSplineSet
EndChar

StartChar: comma
Encoding: 44 44 362
Width: 393
VWidth: 1798
GlyphClass: 2
Flags: W
LayerCount: 2
Fore
SplineSet
272 -60 m 1,0,-1
 272 -201 l 2,1,2
 272 -292 272 -292 234.5 -378 c 128,-1,3
 197 -464 197 -464 132 -523 c 1,4,-1
 61 -470 l 1,5,6
 107 -408 107 -408 131 -345 c 128,-1,7
 155 -282 155 -282 155 -203 c 2,8,-1
 155 -60 l 1,9,-1
 272 -60 l 1,0,-1
EndSplineSet
EndChar

StartChar: commaaccent
Encoding: 65725 -1 363
Width: 488
GlyphClass: 1
Flags: W
LayerCount: 2
Fore
SplineSet
309 178 m 1,0,-1
 309 99 l 2,1,2
 309 20 309 20 279 -55 c 128,-1,3
 249 -130 249 -130 193 -182 c 1,4,-1
 122 -130 l 1,5,6
 158 -77 158 -77 176 -23.5 c 128,-1,7
 194 30 194 30 194 97 c 2,8,-1
 194 178 l 1,9,-1
 309 178 l 1,0,-1
EndSplineSet
EndChar

StartChar: commaaccentrotate
Encoding: 65726 -1 364
Width: 455
GlyphClass: 1
Flags: W
LayerCount: 2
Fore
SplineSet
151 1206 m 1,0,-1
 151 1334 l 2,1,2
 151 1408 151 1408 183.5 1473 c 128,-1,3
 216 1538 216 1538 251 1578 c 1,4,-1
 326 1529 l 1,5,6
 298 1476 298 1476 284.5 1430.5 c 128,-1,7
 271 1385 271 1385 271 1332 c 2,8,-1
 271 1206 l 1,9,-1
 151 1206 l 1,0,-1
EndSplineSet
EndChar

StartChar: copyright
Encoding: 169 169 365
Width: 1638
VWidth: 1798
GlyphClass: 2
Flags: W
LayerCount: 2
Fore
SplineSet
108 479 m 256,0,1
 108 638 108 638 163 774 c 128,-1,2
 218 910 218 910 316 1011.5 c 128,-1,3
 414 1113 414 1113 542.5 1169.5 c 128,-1,4
 671 1226 671 1226 818 1226 c 256,5,6
 965 1226 965 1226 1093.5 1169.5 c 128,-1,7
 1222 1113 1222 1113 1319.5 1011.5 c 128,-1,8
 1417 910 1417 910 1472 774 c 128,-1,9
 1527 638 1527 638 1527 479 c 256,10,11
 1527 320 1527 320 1472 184 c 128,-1,12
 1417 48 1417 48 1319.5 -54.5 c 128,-1,13
 1222 -157 1222 -157 1093.5 -214 c 128,-1,14
 965 -271 965 -271 818 -271 c 256,15,16
 671 -271 671 -271 542.5 -214 c 128,-1,17
 414 -157 414 -157 316 -54.5 c 128,-1,18
 218 48 218 48 163 184 c 128,-1,19
 108 320 108 320 108 479 c 256,0,1
193 479 m 0,20,21
 193 340 193 340 241.5 219.5 c 128,-1,22
 290 99 290 99 376.5 8 c 128,-1,23
 463 -83 463 -83 576 -133.5 c 128,-1,24
 689 -184 689 -184 818 -184 c 0,25,26
 946 -184 946 -184 1059 -133.5 c 128,-1,27
 1172 -83 1172 -83 1258 8 c 128,-1,28
 1344 99 1344 99 1392.5 219.5 c 128,-1,29
 1441 340 1441 340 1441 479 c 0,30,31
 1441 619 1441 619 1392.5 739 c 128,-1,32
 1344 859 1344 859 1258 948.5 c 128,-1,33
 1172 1038 1172 1038 1059 1088.5 c 128,-1,34
 946 1139 946 1139 818 1139 c 0,35,36
 689 1139 689 1139 576 1088.5 c 128,-1,37
 463 1038 463 1038 376.5 948.5 c 128,-1,38
 290 859 290 859 241.5 739 c 128,-1,39
 193 619 193 619 193 479 c 0,20,21
1023 357 m 1,40,-1
 1122 357 l 1,41,42
 1122 200 1122 200 1037 121.5 c 128,-1,43
 952 43 952 43 807 43 c 0,44,45
 656 43 656 43 565 150.5 c 128,-1,46
 474 258 474 258 474 430 c 2,47,-1
 474 527 l 2,48,49
 474 699 474 699 565 806.5 c 128,-1,50
 656 914 656 914 807 914 c 0,51,52
 952 914 952 914 1037.5 836 c 128,-1,53
 1123 758 1123 758 1123 601 c 1,54,-1
 1024 601 l 1,55,56
 1024 716 1024 716 968 770 c 128,-1,57
 912 824 912 824 807 824 c 0,58,59
 695 824 695 824 634.5 739 c 128,-1,60
 574 654 574 654 574 528 c 2,61,-1
 574 430 l 2,62,63
 574 303 574 303 634.5 219 c 128,-1,64
 695 135 695 135 807 135 c 0,65,66
 912 135 912 135 967.5 187.5 c 128,-1,67
 1023 240 1023 240 1023 357 c 1,40,-1
EndSplineSet
EndChar

StartChar: crossbar
Encoding: 65727 -1 366
Width: 865
GlyphClass: 1
Flags: W
LayerCount: 2
Fore
SplineSet
738 789 m 1,0,-1
 738 686 l 1,1,-1
 126 686 l 1,2,-1
 126 789 l 1,3,-1
 738 789 l 1,0,-1
EndSplineSet
EndChar

StartChar: currency
Encoding: 164 164 367
Width: 1482
VWidth: 1798
GlyphClass: 2
Flags: W
LayerCount: 2
Fore
SplineSet
145 358 m 0,0,1
 145 473 145 473 180.5 574.5 c 128,-1,2
 216 676 216 676 278 756 c 1,3,-1
 110 927 l 1,4,-1
 195 1014 l 1,5,-1
 362 844 l 1,6,7
 439 910 439 910 535.5 947 c 128,-1,8
 632 984 632 984 740 984 c 256,9,10
 848 984 848 984 945.5 946.5 c 128,-1,11
 1043 909 1043 909 1120 843 c 1,12,-1
 1289 1015 l 1,13,-1
 1376 927 l 1,14,-1
 1205 753 l 1,15,16
 1266 673 1266 673 1300.5 572.5 c 128,-1,17
 1335 472 1335 472 1335 358 c 0,18,19
 1335 249 1335 249 1303 151.5 c 128,-1,20
 1271 54 1271 54 1214 -24 c 1,21,-1
 1376 -189 l 1,22,-1
 1289 -277 l 1,23,-1
 1132 -117 l 1,24,25
 1054 -189 1054 -189 953.5 -229.5 c 128,-1,26
 853 -270 853 -270 740 -270 c 0,27,28
 628 -270 628 -270 528 -230 c 128,-1,29
 428 -190 428 -190 350 -118 c 1,30,-1
 195 -276 l 1,31,-1
 110 -189 l 1,32,-1
 268 -28 l 1,33,34
 210 52 210 52 177.5 150 c 128,-1,35
 145 248 145 248 145 358 c 0,0,1
258 358 m 0,36,37
 258 216 258 216 323.5 98.5 c 128,-1,38
 389 -19 389 -19 498.5 -88.5 c 128,-1,39
 608 -158 608 -158 740 -158 c 0,40,41
 873 -158 873 -158 982 -88.5 c 128,-1,42
 1091 -19 1091 -19 1156 98.5 c 128,-1,43
 1221 216 1221 216 1221 358 c 0,44,45
 1221 501 1221 501 1156 617.5 c 128,-1,46
 1091 734 1091 734 982 803 c 128,-1,47
 873 872 873 872 740 872 c 0,48,49
 608 872 608 872 498.5 803 c 128,-1,50
 389 734 389 734 323.5 617.5 c 128,-1,51
 258 501 258 501 258 358 c 0,36,37
EndSplineSet
EndChar

StartChar: d
Encoding: 100 100 368
Width: 1138
VWidth: 1798
GlyphClass: 2
Flags: W
AnchorPoint: "Anchor-1" 617 -250 basechar 0
AnchorPoint: "Anchor-0" 549 1362 basechar 0
LayerCount: 2
Fore
SplineSet
109 280 m 2,0,-1
 109 301 l 2,1,2
 109 469 109 469 160 593 c 128,-1,3
 211 717 211 717 304.5 784.5 c 128,-1,4
 398 852 398 852 527 852 c 0,5,6
 642 852 642 852 724.5 807 c 128,-1,7
 807 762 807 762 860 681 c 1,8,-1
 860 1286 l 1,9,-1
 980 1286 l 1,10,-1
 980 -250 l 1,11,-1
 868 -250 l 1,12,-1
 862 -105 l 1,13,14
 809 -182 809 -182 725 -226 c 128,-1,15
 641 -270 641 -270 525 -270 c 0,16,17
 398 -270 398 -270 304.5 -200 c 128,-1,18
 211 -130 211 -130 160 -5.5 c 128,-1,19
 109 119 109 119 109 280 c 2,0,-1
230 301 m 2,20,-1
 230 280 l 2,21,22
 230 155 230 155 264 54 c 128,-1,23
 298 -47 298 -47 368 -106 c 128,-1,24
 438 -165 438 -165 547 -165 c 0,25,26
 668 -165 668 -165 744 -110 c 128,-1,27
 820 -55 820 -55 860 29 c 1,28,-1
 860 540 l 1,29,30
 825 621 825 621 752 684 c 128,-1,31
 679 747 679 747 549 747 c 0,32,33
 439 747 439 747 368.5 688 c 128,-1,34
 298 629 298 629 264 528 c 128,-1,35
 230 427 230 427 230 301 c 2,20,-1
EndSplineSet
Substitution2: "'unic' Unicase lookup 2 subtable" D
Substitution2: "'smcp' Lowercase to Small Capitals lookup 1 subtable" D.smcp
EndChar

StartChar: dagger
Encoding: 8224 8224 369
Width: 1128
GlyphClass: 2
Flags: W
LayerCount: 2
Fore
SplineSet
1058 1082 m 1,0,-1
 1058 977 l 1,1,-1
 625 977 l 1,2,-1
 625 0 l 1,3,-1
 506 0 l 1,4,-1
 506 977 l 1,5,-1
 68 977 l 1,6,-1
 68 1082 l 1,7,-1
 506 1082 l 1,8,-1
 506 1456 l 1,9,-1
 625 1456 l 1,10,-1
 625 1082 l 1,11,-1
 1058 1082 l 1,0,-1
EndSplineSet
EndChar

StartChar: daggerdbl
Encoding: 8225 8225 370
Width: 1155
GlyphClass: 2
Flags: W
LayerCount: 2
Fore
SplineSet
1074 103 m 1,0,-1
 1074 0 l 1,1,-1
 630 0 l 1,2,-1
 630 -416 l 1,3,-1
 510 -416 l 1,4,-1
 510 0 l 1,5,-1
 85 0 l 1,6,-1
 85 103 l 1,7,-1
 510 103 l 1,8,-1
 510 978 l 1,9,-1
 85 978 l 1,10,-1
 85 1082 l 1,11,-1
 510 1082 l 1,12,-1
 510 1456 l 1,13,-1
 630 1456 l 1,14,-1
 630 1082 l 1,15,-1
 1074 1082 l 1,16,-1
 1074 978 l 1,17,-1
 630 978 l 1,18,-1
 630 103 l 1,19,-1
 1074 103 l 1,0,-1
EndSplineSet
EndChar

StartChar: dcroat
Encoding: 273 273 372
Width: 1173
VWidth: 1798
GlyphClass: 2
Flags: W
AnchorPoint: "Anchor-1" 617 -250 basechar 0
AnchorPoint: "Anchor-0" 549 1361 basechar 0
LayerCount: 2
Fore
SplineSet
109 280 m 2,0,-1
 109 301 l 2,1,2
 109 469 109 469 160 593 c 128,-1,3
 211 717 211 717 304.5 784.5 c 128,-1,4
 398 852 398 852 527 852 c 0,5,6
 642 852 642 852 724.5 807 c 128,-1,7
 807 762 807 762 860 681 c 1,8,-1
 860 1007 l 1,9,-1
 542 1007 l 1,10,-1
 542 1110 l 1,11,-1
 860 1110 l 1,12,-1
 860 1286 l 1,13,-1
 980 1286 l 1,14,-1
 980 1110 l 1,15,-1
 1154 1110 l 1,16,-1
 1154 1007 l 1,17,-1
 980 1007 l 1,18,-1
 980 -250 l 1,19,-1
 868 -250 l 1,20,-1
 862 -105 l 1,21,22
 809 -182 809 -182 725 -226 c 128,-1,23
 641 -270 641 -270 525 -270 c 0,24,25
 398 -270 398 -270 304.5 -200 c 128,-1,26
 211 -130 211 -130 160 -5.5 c 128,-1,27
 109 119 109 119 109 280 c 2,0,-1
230 301 m 2,28,-1
 230 280 l 2,29,30
 230 155 230 155 264 54 c 128,-1,31
 298 -47 298 -47 368 -106 c 128,-1,32
 438 -165 438 -165 547 -165 c 0,33,34
 668 -165 668 -165 744 -110 c 128,-1,35
 820 -55 820 -55 860 29 c 1,36,-1
 860 540 l 1,37,38
 825 621 825 621 752 684 c 128,-1,39
 679 747 679 747 549 747 c 0,40,41
 439 747 439 747 368.5 688 c 128,-1,42
 298 629 298 629 264 528 c 128,-1,43
 230 427 230 427 230 301 c 2,28,-1
EndSplineSet
Substitution2: "'unic' Unicase lookup 2 subtable" Dcroat
Substitution2: "'smcp' Lowercase to Small Capitals lookup 1 subtable" Dcroat.smcp
EndChar

StartChar: degree
Encoding: 176 176 373
Width: 774
VWidth: 1798
GlyphClass: 2
Flags: W
LayerCount: 2
Fore
SplineSet
144 977 m 0,0,1
 144 1045 144 1045 177.5 1102 c 128,-1,2
 211 1159 211 1159 266.5 1193 c 128,-1,3
 322 1227 322 1227 389 1227 c 256,4,5
 456 1227 456 1227 510.5 1193 c 128,-1,6
 565 1159 565 1159 598 1102 c 128,-1,7
 631 1045 631 1045 631 977 c 0,8,9
 631 908 631 908 598 852 c 128,-1,10
 565 796 565 796 510.5 763 c 128,-1,11
 456 730 456 730 389 730 c 256,12,13
 322 730 322 730 266.5 763 c 128,-1,14
 211 796 211 796 177.5 852 c 128,-1,15
 144 908 144 908 144 977 c 0,0,1
233 977 m 0,16,17
 233 910 233 910 278.5 866 c 128,-1,18
 324 822 324 822 389 822 c 256,19,20
 454 822 454 822 497.5 866 c 128,-1,21
 541 910 541 910 541 977 c 0,22,23
 541 1045 541 1045 497.5 1090 c 128,-1,24
 454 1135 454 1135 389 1135 c 256,25,26
 324 1135 324 1135 278.5 1090 c 128,-1,27
 233 1045 233 1045 233 977 c 0,16,17
EndSplineSet
EndChar

StartChar: dieresis
Encoding: 168 168 374
Width: 882
VWidth: 1798
GlyphClass: 2
Flags: W
LayerCount: 2
Fore
SplineSet
138 1146 m 0,0,1
 138 1181 138 1181 160 1204.5 c 128,-1,2
 182 1228 182 1228 220 1228 c 256,3,4
 258 1228 258 1228 280.5 1204.5 c 128,-1,5
 303 1181 303 1181 303 1146 c 0,6,7
 303 1113 303 1113 280.5 1090 c 128,-1,8
 258 1067 258 1067 220 1067 c 256,9,10
 182 1067 182 1067 160 1090 c 128,-1,11
 138 1113 138 1113 138 1146 c 0,0,1
576 1145 m 0,12,13
 576 1180 576 1180 597.5 1203.5 c 128,-1,14
 619 1227 619 1227 658 1227 c 0,15,16
 696 1227 696 1227 718.5 1203.5 c 128,-1,17
 741 1180 741 1180 741 1145 c 0,18,19
 741 1112 741 1112 718.5 1089 c 128,-1,20
 696 1066 696 1066 658 1066 c 0,21,22
 619 1066 619 1066 597.5 1089 c 128,-1,23
 576 1112 576 1112 576 1145 c 0,12,13
EndSplineSet
EndChar

StartChar: divide
Encoding: 247 247 375
Width: 1137
VWidth: 1798
GlyphClass: 2
Flags: W
LayerCount: 2
Fore
SplineSet
485 576 m 0,0,1
 485 612 485 612 511 638.5 c 128,-1,2
 537 665 537 665 573 665 c 0,3,4
 608 665 608 665 634.5 638.5 c 128,-1,5
 661 612 661 612 661 576 c 256,6,7
 661 540 661 540 635 514 c 128,-1,8
 609 488 609 488 573 488 c 0,9,10
 536 488 536 488 510.5 513.5 c 128,-1,11
 485 539 485 539 485 576 c 0,0,1
153 223 m 1,12,-1
 153 322 l 1,13,-1
 985 322 l 1,14,-1
 985 223 l 1,15,-1
 153 223 l 1,12,-1
485 -36 m 0,16,17
 485 0 485 0 511 26.5 c 128,-1,18
 537 53 537 53 573 53 c 0,19,20
 608 53 608 53 634.5 26.5 c 128,-1,21
 661 0 661 0 661 -36 c 256,22,23
 661 -72 661 -72 635 -98 c 128,-1,24
 609 -124 609 -124 573 -124 c 0,25,26
 536 -124 536 -124 510.5 -98.5 c 128,-1,27
 485 -73 485 -73 485 -36 c 0,16,17
EndSplineSet
EndChar

StartChar: dollar
Encoding: 36 36 376
Width: 1136
VWidth: 1798
GlyphClass: 2
Flags: W
LayerCount: 2
Fore
SplineSet
902 110 m 0,0,1
 902 220 902 220 831 290 c 128,-1,2
 760 360 760 360 575 424 c 0,3,4
 449 465 449 465 357.5 517 c 128,-1,5
 266 569 266 569 216.5 647.5 c 128,-1,6
 167 726 167 726 167 845 c 0,7,8
 167 1008 167 1008 267.5 1110 c 128,-1,9
 368 1212 368 1212 539 1225 c 1,10,-1
 539 1428 l 1,11,-1
 642 1428 l 1,12,-1
 642 1225 l 1,13,14
 816 1209 816 1209 913.5 1094.5 c 128,-1,15
 1011 980 1011 980 1011 778 c 1,16,-1
 892 778 l 1,17,18
 892 926 892 926 814 1023 c 128,-1,19
 736 1120 736 1120 588 1120 c 0,20,21
 434 1120 434 1120 360.5 1039.5 c 128,-1,22
 287 959 287 959 287 848 c 0,23,24
 287 775 287 775 314 720 c 128,-1,25
 341 665 341 665 412 620.5 c 128,-1,26
 483 576 483 576 616 532 c 0,27,28
 742 490 742 490 833 438 c 128,-1,29
 924 386 924 386 973 308.5 c 128,-1,30
 1022 231 1022 231 1022 112 c 0,31,32
 1022 -56 1022 -56 917.5 -155 c 128,-1,33
 813 -254 813 -254 638 -269 c 1,34,-1
 638 -458 l 1,35,-1
 536 -458 l 1,36,-1
 536 -270 l 1,37,38
 429 -263 429 -263 333 -218 c 128,-1,39
 237 -173 237 -173 176.5 -79 c 128,-1,40
 116 15 116 15 116 169 c 1,41,-1
 236 169 l 1,42,43
 236 41 236 41 288.5 -32 c 128,-1,44
 341 -105 341 -105 421 -134.5 c 128,-1,45
 501 -164 501 -164 581 -164 c 0,46,47
 733 -164 733 -164 817.5 -84 c 128,-1,48
 902 -4 902 -4 902 110 c 0,0,1
EndSplineSet
Substitution2: "'c2sc' Capitals to Small Capitals lookup 0 subtable" dollar.smcp
Position2: "'cpsp' Capital Spacing lookup 0 subtable" dx=36 dy=0 dh=72 dv=0
EndChar

StartChar: dollar.smcp
Encoding: 65728 -1 377
Width: 1049
GlyphClass: 2
Flags: W
LayerCount: 2
Fore
SplineSet
859 290 m 0,0,1
 859 379 859 379 789.5 434.5 c 128,-1,2
 720 490 720 490 533 535 c 0,3,4
 340 583 340 583 227.5 658.5 c 128,-1,5
 115 734 115 734 115 876 c 0,6,7
 115 1005 115 1005 220.5 1087 c 128,-1,8
 326 1169 326 1169 494 1180 c 1,9,-1
 494 1395 l 1,10,-1
 596 1395 l 1,11,-1
 596 1179 l 1,12,13
 769 1164 769 1164 870.5 1066.5 c 128,-1,14
 972 969 972 969 972 831 c 1,15,-1
 852 831 l 1,16,17
 852 938 852 938 770 1008 c 128,-1,18
 688 1078 688 1078 539 1078 c 0,19,20
 389 1078 389 1078 311.5 1019 c 128,-1,21
 234 960 234 960 234 878 c 0,22,23
 234 799 234 799 306.5 744 c 128,-1,24
 379 689 379 689 569 642 c 0,25,26
 759 596 759 596 869.5 516 c 128,-1,27
 980 436 980 436 980 291 c 0,28,29
 980 157 980 157 872 76.5 c 128,-1,30
 764 -4 764 -4 596 -14 c 1,31,-1
 596 -237 l 1,32,-1
 494 -237 l 1,33,-1
 494 -14 l 1,34,35
 389 -7 389 -7 293 32.5 c 128,-1,36
 197 72 197 72 136 147.5 c 128,-1,37
 75 223 75 223 75 339 c 1,38,-1
 195 339 l 1,39,40
 195 245 195 245 247.5 189.5 c 128,-1,41
 300 134 300 134 381 109.5 c 128,-1,42
 462 85 462 85 546 85 c 0,43,44
 690 85 690 85 774.5 142 c 128,-1,45
 859 199 859 199 859 290 c 0,0,1
EndSplineSet
EndChar

StartChar: dotaccent
Encoding: 729 729 378
Width: 460
VWidth: 1798
GlyphClass: 2
Flags: W
LayerCount: 2
Fore
SplineSet
149 1133 m 256,0,1
 149 1167 149 1167 171 1190.5 c 128,-1,2
 193 1214 193 1214 231 1214 c 256,3,4
 269 1214 269 1214 291.5 1190.5 c 128,-1,5
 314 1167 314 1167 314 1133 c 256,6,7
 314 1099 314 1099 291.5 1076 c 128,-1,8
 269 1053 269 1053 231 1053 c 256,9,10
 193 1053 193 1053 171 1076 c 128,-1,11
 149 1099 149 1099 149 1133 c 256,0,1
EndSplineSet
EndChar

StartChar: dotbelow
Encoding: 803 803 379
Width: 0
VWidth: 1798
GlyphClass: 4
Flags: W
AnchorPoint: "Anchor-2" -597 -604 basemark 0
AnchorPoint: "Anchor-2" -597 -250 mark 0
AnchorPoint: "Anchor-1" -597 -250 mark 0
LayerCount: 2
Fore
SplineSet
-672 -482 m 0,0,1
 -672 -447 -672 -447 -650 -423.5 c 128,-1,2
 -628 -400 -628 -400 -590 -400 c 256,3,4
 -552 -400 -552 -400 -529.5 -423.5 c 128,-1,5
 -507 -447 -507 -447 -507 -482 c 0,6,7
 -507 -515 -507 -515 -529.5 -538 c 128,-1,8
 -552 -561 -552 -561 -590 -561 c 256,9,10
 -628 -561 -628 -561 -650 -538 c 128,-1,11
 -672 -515 -672 -515 -672 -482 c 0,0,1
EndSplineSet
EndChar

StartChar: dotlessi
Encoding: 305 305 380
Width: 457
VWidth: 1798
GlyphClass: 2
Flags: W
AnchorPoint: "Anchor-1" 249 -240 basechar 0
AnchorPoint: "Anchor-0" 252 1038 basechar 0
LayerCount: 2
Fore
SplineSet
288 832 m 1,0,-1
 288 -250 l 1,1,-1
 169 -250 l 1,2,-1
 169 832 l 1,3,-1
 288 832 l 1,0,-1
EndSplineSet
Substitution2: "'smcp' Lowercase to Small Capitals lookup 1 subtable" I.smcp
EndChar

StartChar: e
Encoding: 101 101 381
Width: 1059
VWidth: 1798
GlyphClass: 2
Flags: W
AnchorPoint: "Anchor-1" 568 -250 basechar 0
AnchorPoint: "Anchor-0" 565 1040 basechar 0
LayerCount: 2
Fore
SplineSet
576 -270 m 0,0,1
 435 -270 435 -270 325 -202 c 128,-1,2
 215 -134 215 -134 152.5 -14 c 128,-1,3
 90 106 90 106 90 261 c 2,4,-1
 90 304 l 2,5,6
 90 471 90 471 154.5 594 c 128,-1,7
 219 717 219 717 325 784.5 c 128,-1,8
 431 852 431 852 554 852 c 0,9,10
 692 852 692 852 787.5 788 c 128,-1,11
 883 724 883 724 932.5 612.5 c 128,-1,12
 982 501 982 501 982 356 c 2,13,-1
 982 283 l 1,14,-1
 210 283 l 1,15,-1
 210 261 l 2,16,17
 210 142 210 142 257 44.5 c 128,-1,18
 304 -53 304 -53 387.5 -110.5 c 128,-1,19
 471 -168 471 -168 581 -168 c 0,20,21
 676 -168 676 -168 750.5 -132.5 c 128,-1,22
 825 -97 825 -97 884 -20 c 1,23,-1
 959 -78 l 1,24,25
 906 -157 906 -157 813.5 -213.5 c 128,-1,26
 721 -270 721 -270 576 -270 c 0,0,1
554 749 m 0,27,28
 417 749 417 749 325.5 649.5 c 128,-1,29
 234 550 234 550 215 386 c 1,30,-1
 862 386 l 1,31,-1
 862 399 l 2,32,33
 860 490 860 490 825.5 569.5 c 128,-1,34
 791 649 791 649 723.5 699 c 128,-1,35
 656 749 656 749 554 749 c 0,27,28
EndSplineSet
Substitution2: "'unic' Unicase lookup 2 subtable" E.unic
Substitution2: "'smcp' Lowercase to Small Capitals lookup 1 subtable" E.smcp
EndChar

StartChar: eight
Encoding: 56 56 389
Width: 1136
VWidth: 1798
GlyphClass: 2
Flags: W
LayerCount: 2
Fore
SplineSet
1034 137 m 0,0,1
 1034 4 1034 4 972 -86.5 c 128,-1,2
 910 -177 910 -177 805.5 -223.5 c 128,-1,3
 701 -270 701 -270 571 -270 c 0,4,5
 440 -270 440 -270 334.5 -223.5 c 128,-1,6
 229 -177 229 -177 168 -86.5 c 128,-1,7
 107 4 107 4 107 137 c 0,8,9
 107 265 107 265 181.5 360 c 128,-1,10
 256 455 256 455 379 498 c 1,11,12
 272 541 272 541 208 629 c 128,-1,13
 144 717 144 717 144 832 c 0,14,15
 144 959 144 959 199.5 1046.5 c 128,-1,16
 255 1134 255 1134 351 1180 c 128,-1,17
 447 1226 447 1226 568 1226 c 256,18,19
 689 1226 689 1226 786 1180 c 128,-1,20
 883 1134 883 1134 939.5 1046.5 c 128,-1,21
 996 959 996 959 996 832 c 0,22,23
 996 717 996 717 930.5 629 c 128,-1,24
 865 541 865 541 758 498 c 1,25,26
 881 455 881 455 957.5 360 c 128,-1,27
 1034 265 1034 265 1034 137 c 0,0,1
876 833 m 0,28,29
 876 918 876 918 835.5 983 c 128,-1,30
 795 1048 795 1048 725.5 1085.5 c 128,-1,31
 656 1123 656 1123 568 1123 c 0,32,33
 435 1123 435 1123 349.5 1045 c 128,-1,34
 264 967 264 967 264 833 c 0,35,36
 264 703 264 703 350 626 c 128,-1,37
 436 549 436 549 570 549 c 0,38,39
 701 549 701 549 788.5 626 c 128,-1,40
 876 703 876 703 876 833 c 0,28,29
913 136 m 0,41,42
 913 229 913 229 868 299 c 128,-1,43
 823 369 823 369 745 407.5 c 128,-1,44
 667 446 667 446 569 446 c 0,45,46
 419 446 419 446 322.5 361 c 128,-1,47
 226 276 226 276 226 136 c 0,48,49
 226 -9 226 -9 322.5 -88 c 128,-1,50
 419 -167 419 -167 571 -167 c 0,51,52
 720 -167 720 -167 816.5 -88 c 128,-1,53
 913 -9 913 -9 913 136 c 0,41,42
EndSplineSet
Substitution2: "'ss01' Style Set 1 lookup 35 subtable" uni06F8
Substitution2: "'numr' Numerators lookup 21 subtable" eight.frac
Substitution2: "'dnom' Denominators lookup 20 subtable" eight.sup
Substitution2: "'frac' Diagonal Fractions lookup 19 subtable" eight.frac
Substitution2: "Single Substitution lookup 18 subtable" eight.sup
Substitution2: "'lnum' Lining Figures lookup 15 subtable" eight.pnum
Substitution2: "'onum' Oldstyle Figures lookup 14 subtable" eight.tnum
Substitution2: "'c2sc' Capitals to Small Capitals lookup 0 subtable" eight.smcp
Position2: "'cpsp' Capital Spacing lookup 0 subtable" dx=36 dy=0 dh=72 dv=0
EndChar

StartChar: eight.smcp
Encoding: 65731 -1 392
Width: 1025
GlyphClass: 2
Flags: W
LayerCount: 2
Fore
SplineSet
933 311 m 0,0,1
 933 204 933 204 877 131 c 128,-1,2
 821 58 821 58 726 21 c 128,-1,3
 631 -16 631 -16 514 -16 c 0,4,5
 395 -16 395 -16 299.5 21 c 128,-1,6
 204 58 204 58 148.5 131 c 128,-1,7
 93 204 93 204 93 311 c 0,8,9
 93 413 93 413 158 488 c 128,-1,10
 223 563 223 563 331 599 c 1,11,12
 237 634 237 634 181.5 703 c 128,-1,13
 126 772 126 772 126 863 c 0,14,15
 126 966 126 966 176.5 1036.5 c 128,-1,16
 227 1107 227 1107 314.5 1144 c 128,-1,17
 402 1181 402 1181 512 1181 c 256,18,19
 622 1181 622 1181 709.5 1144 c 128,-1,20
 797 1107 797 1107 848 1036.5 c 128,-1,21
 899 966 899 966 899 863 c 0,22,23
 899 772 899 772 843 702.5 c 128,-1,24
 787 633 787 633 694 598 c 1,25,26
 801 563 801 563 867 488 c 128,-1,27
 933 413 933 413 933 311 c 0,0,1
780 861 m 0,28,29
 780 956 780 956 703 1017 c 128,-1,30
 626 1078 626 1078 512 1078 c 0,31,32
 396 1078 396 1078 321 1020 c 128,-1,33
 246 962 246 962 246 861 c 0,34,35
 246 764 246 764 321 706.5 c 128,-1,36
 396 649 396 649 514 649 c 0,37,38
 628 649 628 649 704 706.5 c 128,-1,39
 780 764 780 764 780 861 c 0,28,29
812 315 m 0,40,41
 812 419 812 419 726 482.5 c 128,-1,42
 640 546 640 546 512 546 c 0,43,44
 381 546 381 546 296.5 482.5 c 128,-1,45
 212 419 212 419 212 315 c 0,46,47
 212 206 212 206 296.5 146 c 128,-1,48
 381 86 381 86 514 86 c 0,49,50
 642 86 642 86 727 146 c 128,-1,51
 812 206 812 206 812 315 c 0,40,41
EndSplineSet
EndChar

StartChar: eight.sup
Encoding: 65732 -1 393
Width: 740
GlyphClass: 2
Flags: W
LayerCount: 2
Fore
SplineSet
659 212 m 0,0,1
 659 102 659 102 576 45.5 c 128,-1,2
 493 -11 493 -11 371 -11 c 0,3,4
 247 -11 247 -11 163.5 45.5 c 128,-1,5
 80 102 80 102 80 212 c 0,6,7
 80 280 80 280 122 330.5 c 128,-1,8
 164 381 164 381 234 406 c 1,9,10
 174 431 174 431 138 477 c 128,-1,11
 102 523 102 523 102 583 c 0,12,13
 102 688 102 688 178 744 c 128,-1,14
 254 800 254 800 369 800 c 256,15,16
 484 800 484 800 561 744 c 128,-1,17
 638 688 638 688 638 583 c 0,18,19
 638 522 638 522 602 476 c 128,-1,20
 566 430 566 430 505 406 c 1,21,22
 575 380 575 380 617 330 c 128,-1,23
 659 280 659 280 659 212 c 0,0,1
532 579 m 0,24,25
 532 638 532 638 486 675 c 128,-1,26
 440 712 440 712 369 712 c 256,27,28
 298 712 298 712 252.5 676.5 c 128,-1,29
 207 641 207 641 207 579 c 0,30,31
 207 519 207 519 252.5 483.5 c 128,-1,32
 298 448 298 448 371 448 c 0,33,34
 442 448 442 448 487 483.5 c 128,-1,35
 532 519 532 519 532 579 c 0,24,25
554 218 m 0,36,37
 554 283 554 283 501.5 321 c 128,-1,38
 449 359 449 359 369 359 c 256,39,40
 289 359 289 359 237.5 321 c 128,-1,41
 186 283 186 283 186 218 c 0,42,43
 186 151 186 151 237.5 114 c 128,-1,44
 289 77 289 77 371 77 c 0,45,46
 450 77 450 77 502 114 c 128,-1,47
 554 151 554 151 554 218 c 0,36,37
EndSplineSet
EndChar

StartChar: emdash
Encoding: 8212 8212 397
Width: 1600
GlyphClass: 2
Flags: W
LayerCount: 2
Fore
SplineSet
1448 469 m 1,0,-1
 153 469 l 1,1,-1
 153 568 l 1,2,-1
 1448 568 l 1,3,-1
 1448 469 l 1,0,-1
EndSplineSet
EndChar

StartChar: endash
Encoding: 8211 8211 398
Width: 1345
GlyphClass: 2
Flags: W
LayerCount: 2
Fore
SplineSet
1193 469 m 1,0,-1
 153 469 l 1,1,-1
 153 568 l 1,2,-1
 1193 568 l 1,3,-1
 1193 469 l 1,0,-1
EndSplineSet
EndChar

StartChar: eng
Encoding: 331 331 399
Width: 1141
VWidth: 1798
GlyphClass: 2
Flags: W
AnchorPoint: "Anchor-1" 563 -240 basechar 0
AnchorPoint: "Anchor-0" 573 1040 basechar 0
LayerCount: 2
Fore
SplineSet
982 -339 m 2,0,1
 982 -508 982 -508 901.5 -597.5 c 128,-1,2
 821 -687 821 -687 678 -687 c 0,3,4
 617 -687 617 -687 554 -668 c 1,5,-1
 568 -564 l 1,6,7
 585 -570 585 -570 619.5 -574.5 c 128,-1,8
 654 -579 654 -579 678 -579 c 0,9,10
 766 -579 766 -579 814 -517 c 128,-1,11
 862 -455 862 -455 862 -339 c 2,12,-1
 862 409 l 2,13,14
 862 540 862 540 828.5 613.5 c 128,-1,15
 795 687 795 687 735 717 c 128,-1,16
 675 747 675 747 595 747 c 0,17,18
 464 747 464 747 388 684 c 128,-1,19
 312 621 312 621 278 525 c 1,20,-1
 278 -250 l 1,21,-1
 158 -250 l 1,22,-1
 158 832 l 1,23,-1
 265 832 l 1,24,-1
 275 650 l 1,25,26
 327 744 327 744 414 798 c 128,-1,27
 501 852 501 852 622 852 c 0,28,29
 793 852 793 852 887.5 748.5 c 128,-1,30
 982 645 982 645 982 410 c 2,31,-1
 982 -339 l 2,0,1
EndSplineSet
Substitution2: "'unic' Unicase lookup 2 subtable" Eng
Substitution2: "'smcp' Lowercase to Small Capitals lookup 1 subtable" Eng.smcp
EndChar

StartChar: eogonek
Encoding: 281 281 400
Width: 1059
VWidth: 1798
GlyphClass: 2
Flags: W
AnchorPoint: "Anchor-1" 568 -250 basechar 0
AnchorPoint: "Anchor-0" 565 1040 basechar 0
LayerCount: 2
Fore
SplineSet
576 -270 m 0,0,1
 435 -270 435 -270 325 -202 c 128,-1,2
 215 -134 215 -134 152.5 -14 c 128,-1,3
 90 106 90 106 90 261 c 2,4,-1
 90 304 l 2,5,6
 90 471 90 471 154.5 594 c 128,-1,7
 219 717 219 717 325 784.5 c 128,-1,8
 431 852 431 852 554 852 c 0,9,10
 692 852 692 852 787.5 788 c 128,-1,11
 883 724 883 724 932.5 612.5 c 128,-1,12
 982 501 982 501 982 356 c 2,13,-1
 982 283 l 1,14,-1
 210 283 l 1,15,-1
 210 261 l 2,16,17
 210 142 210 142 257 44.5 c 128,-1,18
 304 -53 304 -53 387.5 -110.5 c 128,-1,19
 471 -168 471 -168 581 -168 c 0,20,21
 676 -168 676 -168 750.5 -132.5 c 128,-1,22
 825 -97 825 -97 884 -20 c 1,23,-1
 959 -78 l 1,24,25
 933 -116 933 -116 899 -150 c 128,-1,26
 865 -184 865 -184 820 -210 c 1,27,28
 753 -261 753 -261 698 -317.5 c 128,-1,29
 643 -374 643 -374 643 -442 c 0,30,31
 643 -476 643 -476 661 -501 c 128,-1,32
 679 -526 679 -526 728 -526 c 0,33,34
 765 -526 765 -526 791 -514.5 c 128,-1,35
 817 -503 817 -503 833 -493 c 1,36,-1
 848 -578 l 1,37,38
 826 -593 826 -593 792 -607.5 c 128,-1,39
 758 -622 758 -622 705 -622 c 0,40,41
 631 -622 631 -622 583 -579.5 c 128,-1,42
 535 -537 535 -537 535 -452 c 0,43,44
 535 -360 535 -360 629 -268 c 1,45,46
 603 -270 603 -270 576 -270 c 0,0,1
554 749 m 0,47,48
 417 749 417 749 325.5 649.5 c 128,-1,49
 234 550 234 550 215 386 c 1,50,-1
 862 386 l 1,51,-1
 862 399 l 2,52,53
 860 490 860 490 825.5 569.5 c 128,-1,54
 791 649 791 649 723.5 699 c 128,-1,55
 656 749 656 749 554 749 c 0,47,48
EndSplineSet
Substitution2: "'locl' Localized Forms in Latin lookup 8 subtable" eogonek.NAV
Substitution2: "'unic' Unicase lookup 2 subtable" Eogonek.unic
Substitution2: "'smcp' Lowercase to Small Capitals lookup 1 subtable" Eogonek.smcp
EndChar

StartChar: equal
Encoding: 61 61 402
Width: 1094
VWidth: 1798
GlyphClass: 2
Flags: W
LayerCount: 2
Fore
SplineSet
946 405 m 1,0,-1
 159 405 l 1,1,-1
 159 504 l 1,2,-1
 946 504 l 1,3,-1
 946 405 l 1,0,-1
946 32 m 1,4,-1
 159 32 l 1,5,-1
 159 131 l 1,6,-1
 946 131 l 1,7,-1
 946 32 l 1,4,-1
EndSplineSet
EndChar

StartChar: estimated
Encoding: 8494 8494 403
Width: 1299
GlyphClass: 2
Flags: W
LayerCount: 2
Fore
SplineSet
1042 198 m 1,0,-1
 1044 94 l 1,1,2
 960 42 960 42 866 11 c 128,-1,3
 772 -20 772 -20 674 -20 c 0,4,5
 565 -20 565 -20 470 24 c 128,-1,6
 375 68 375 68 303 145 c 128,-1,7
 231 222 231 222 190.5 324 c 128,-1,8
 150 426 150 426 150 541 c 0,9,10
 150 657 150 657 194.5 758.5 c 128,-1,11
 239 860 239 860 314 937 c 128,-1,12
 389 1014 389 1014 482.5 1058 c 128,-1,13
 576 1102 576 1102 674 1102 c 0,14,15
 811 1102 811 1102 923.5 1031.5 c 128,-1,16
 1036 961 1036 961 1102.5 839 c 128,-1,17
 1169 717 1169 717 1169 561 c 2,18,-1
 1169 514 l 1,19,-1
 401 514 l 1,20,-1
 401 186 l 1,21,22
 456 135 456 135 526 105.5 c 128,-1,23
 596 76 596 76 674 76 c 0,24,25
 767 76 767 76 860.5 105.5 c 128,-1,26
 954 135 954 135 1042 198 c 1,0,-1
674 1008 m 0,27,28
 599 1008 599 1008 528.5 975 c 128,-1,29
 458 942 458 942 401 886 c 1,30,-1
 401 609 l 1,31,-1
 941 609 l 1,32,-1
 941 895 l 1,33,34
 889 947 889 947 820 977.5 c 128,-1,35
 751 1008 751 1008 674 1008 c 0,27,28
EndSplineSet
EndChar

StartChar: eth
Encoding: 240 240 404
Width: 1192
VWidth: 1798
GlyphClass: 2
Flags: W
LayerCount: 2
Fore
SplineSet
297 1224 m 1,0,-1
 335 1329 l 1,1,2
 581 1257 581 1257 745 1118 c 1,3,-1
 939 1239 l 1,4,-1
 990 1165 l 1,5,-1
 812 1054 l 1,6,7
 931 930 931 930 993.5 760.5 c 128,-1,8
 1056 591 1056 591 1056 374 c 2,9,-1
 1056 285 l 2,10,11
 1056 121 1056 121 999 -4.5 c 128,-1,12
 942 -130 942 -130 843 -200 c 128,-1,13
 744 -270 744 -270 616 -270 c 0,14,15
 479 -270 479 -270 373.5 -205 c 128,-1,16
 268 -140 268 -140 209 -29.5 c 128,-1,17
 150 81 150 81 150 217 c 0,18,19
 150 372 150 372 204.5 483.5 c 128,-1,20
 259 595 259 595 358 655.5 c 128,-1,21
 457 716 457 716 588 716 c 0,22,23
 687 716 687 716 774.5 677.5 c 128,-1,24
 862 639 862 639 920 572 c 1,25,26
 897 707 897 707 842.5 810.5 c 128,-1,27
 788 914 788 914 710 991 c 1,28,-1
 484 850 l 1,29,-1
 434 924 l 1,30,-1
 640 1052 l 1,31,32
 565 1110 565 1110 478.5 1152 c 128,-1,33
 392 1194 392 1194 297 1224 c 1,0,-1
270 217 m 0,34,35
 270 122 270 122 310.5 34.5 c 128,-1,36
 351 -53 351 -53 429.5 -109 c 128,-1,37
 508 -165 508 -165 620 -165 c 0,38,39
 717 -165 717 -165 788 -106.5 c 128,-1,40
 859 -48 859 -48 897.5 54 c 128,-1,41
 936 156 936 156 936 285 c 2,42,-1
 936 376 l 2,43,44
 936 405 936 405 935 433 c 1,45,46
 902 500 902 500 821.5 555.5 c 128,-1,47
 741 611 741 611 610 611 c 0,48,49
 438 611 438 611 354 500.5 c 128,-1,50
 270 390 270 390 270 217 c 0,34,35
EndSplineSet
Substitution2: "'unic' Unicase lookup 2 subtable" Eth
Substitution2: "'smcp' Lowercase to Small Capitals lookup 1 subtable" Eth.smcp
EndChar

StartChar: exclam
Encoding: 33 33 405
Width: 526
VWidth: 1798
GlyphClass: 2
Flags: W
LayerCount: 2
Fore
SplineSet
200 1101 m 1,0,-1
 331 1101 l 1,1,-1
 311 158 l 1,2,-1
 220 158 l 1,3,-1
 200 1101 l 1,0,-1
162 -147 m 0,4,5
 162 -106 162 -106 192 -75.5 c 128,-1,6
 222 -45 222 -45 263 -45 c 256,7,8
 304 -45 304 -45 334.5 -75.5 c 128,-1,9
 365 -106 365 -106 365 -147 c 0,10,11
 365 -189 365 -189 335 -219 c 128,-1,12
 305 -249 305 -249 263 -249 c 0,13,14
 220 -249 220 -249 191 -220 c 128,-1,15
 162 -191 162 -191 162 -147 c 0,4,5
EndSplineSet
EndChar

StartChar: exclamdown
Encoding: 161 161 407
Width: 453
VWidth: 1798
GlyphClass: 2
Flags: W
LayerCount: 2
Fore
SplineSet
306 772 m 256,0,1
 306 738 306 738 284 714.5 c 128,-1,2
 262 691 262 691 224 691 c 256,3,4
 186 691 186 691 163.5 714.5 c 128,-1,5
 141 738 141 738 141 772 c 256,6,7
 141 806 141 806 163.5 829 c 128,-1,8
 186 852 186 852 224 852 c 256,9,10
 262 852 262 852 284 829 c 128,-1,11
 306 806 306 806 306 772 c 256,0,1
168 -610 m 1,12,-1
 175 440 l 1,13,-1
 286 440 l 1,14,-1
 293 -610 l 1,15,-1
 168 -610 l 1,12,-1
EndSplineSet
EndChar

StartChar: f
Encoding: 102 102 408
Width: 679
VWidth: 1798
GlyphClass: 2
Flags: W
AnchorPoint: "Anchor-1" 330 -240 basechar 0
AnchorPoint: "Anchor-0" 502 1504 basechar 0
LayerCount: 2
Fore
SplineSet
363 -250 m 1,0,-1
 243 -250 l 1,1,-1
 243 734 l 1,2,-1
 64 734 l 1,3,-1
 64 832 l 1,4,-1
 243 832 l 1,5,-1
 243 966 l 2,6,7
 243 1131 243 1131 328.5 1219 c 128,-1,8
 414 1307 414 1307 562 1307 c 0,9,10
 629 1307 629 1307 690 1291 c 1,11,-1
 681 1189 l 1,12,13
 632 1201 632 1201 572 1201 c 0,14,15
 474 1201 474 1201 418.5 1140 c 128,-1,16
 363 1079 363 1079 363 966 c 2,17,-1
 363 832 l 1,18,-1
 621 832 l 1,19,-1
 621 734 l 1,20,-1
 363 734 l 1,21,-1
 363 -250 l 1,0,-1
EndSplineSet
Substitution2: "'unic' Unicase lookup 2 subtable" F
Substitution2: "'smcp' Lowercase to Small Capitals lookup 1 subtable" F.smcp
EndChar

StartChar: f_f_i
Encoding: 64259 64259 410
Width: 1696
GlyphClass: 3
Flags: W
LayerCount: 2
Fore
SplineSet
363 0 m 1,0,-1
 243 0 l 1,1,-1
 243 984 l 1,2,-1
 64 984 l 1,3,-1
 64 1082 l 1,4,-1
 243 1082 l 1,5,-1
 243 1216 l 2,6,7
 243 1381 243 1381 328.5 1469 c 128,-1,8
 414 1557 414 1557 562 1557 c 0,9,10
 629 1557 629 1557 690 1541 c 1,11,-1
 681 1439 l 1,12,13
 632 1451 632 1451 572 1451 c 0,14,15
 474 1451 474 1451 418.5 1390 c 128,-1,16
 363 1329 363 1329 363 1216 c 2,17,-1
 363 1082 l 1,18,-1
 824 1082 l 1,19,-1
 824 1196 l 2,20,21
 824 1371 824 1371 920 1464 c 128,-1,22
 1016 1557 1016 1557 1183 1557 c 0,23,24
 1315 1557 1315 1557 1459 1498 c 1,25,-1
 1439 1394 l 1,26,27
 1387 1417 1387 1417 1328.5 1432 c 128,-1,28
 1270 1447 1270 1447 1190 1447 c 0,29,30
 943 1447 943 1447 943 1196 c 2,31,-1
 943 1082 l 1,32,-1
 1197 1082 l 1,33,-1
 1197 984 l 1,34,-1
 943 984 l 1,35,-1
 943 0 l 1,36,-1
 824 0 l 1,37,-1
 824 984 l 1,38,-1
 363 984 l 1,39,-1
 363 0 l 1,0,-1
1524 1082 m 1,40,-1
 1524 0 l 1,41,-1
 1404 0 l 1,42,-1
 1404 1082 l 1,43,-1
 1524 1082 l 1,40,-1
EndSplineSet
Ligature2: "'liga' Standard Ligatures in Latin lookup 10 subtable" f f i
EndChar

StartChar: f_f_l
Encoding: 64260 64260 411
Width: 1696
GlyphClass: 3
Flags: W
LayerCount: 2
Fore
SplineSet
363 0 m 1,0,-1
 243 0 l 1,1,-1
 243 984 l 1,2,-1
 64 984 l 1,3,-1
 64 1082 l 1,4,-1
 243 1082 l 1,5,-1
 243 1216 l 2,6,7
 243 1381 243 1381 328.5 1469 c 128,-1,8
 414 1557 414 1557 562 1557 c 0,9,10
 629 1557 629 1557 690 1541 c 1,11,-1
 681 1439 l 1,12,13
 632 1451 632 1451 572 1451 c 0,14,15
 474 1451 474 1451 418.5 1390 c 128,-1,16
 363 1329 363 1329 363 1216 c 2,17,-1
 363 1082 l 1,18,-1
 824 1082 l 1,19,-1
 824 1216 l 2,20,21
 824 1381 824 1381 910 1469 c 128,-1,22
 996 1557 996 1557 1150 1557 c 0,23,24
 1219 1557 1219 1557 1322.5 1538 c 128,-1,25
 1426 1519 1426 1519 1524 1496 c 1,26,-1
 1524 0 l 1,27,-1
 1404 0 l 1,28,-1
 1404 1421 l 1,29,30
 1335 1434 1335 1434 1273.5 1442.5 c 128,-1,31
 1212 1451 1212 1451 1158 1451 c 0,32,33
 1056 1451 1056 1451 999.5 1390 c 128,-1,34
 943 1329 943 1329 943 1216 c 2,35,-1
 943 1082 l 1,36,-1
 1201 1082 l 1,37,-1
 1201 984 l 1,38,-1
 943 984 l 1,39,-1
 943 0 l 1,40,-1
 824 0 l 1,41,-1
 824 984 l 1,42,-1
 363 984 l 1,43,-1
 363 0 l 1,0,-1
EndSplineSet
Ligature2: "'liga' Standard Ligatures in Latin lookup 11 subtable" f f l
EndChar

StartChar: f_l
Encoding: 64258 64258 412
Width: 1115
GlyphClass: 3
Flags: W
LayerCount: 2
Fore
SplineSet
363 0 m 1,0,-1
 243 0 l 1,1,-1
 243 984 l 1,2,-1
 64 984 l 1,3,-1
 64 1082 l 1,4,-1
 243 1082 l 1,5,-1
 243 1216 l 2,6,7
 243 1381 243 1381 329.5 1469 c 128,-1,8
 416 1557 416 1557 570 1557 c 0,9,10
 639 1557 639 1557 742.5 1538 c 128,-1,11
 846 1519 846 1519 943 1496 c 1,12,-1
 943 0 l 1,13,-1
 824 0 l 1,14,-1
 824 1421 l 1,15,16
 755 1434 755 1434 693.5 1442.5 c 128,-1,17
 632 1451 632 1451 577 1451 c 0,18,19
 475 1451 475 1451 419 1390 c 128,-1,20
 363 1329 363 1329 363 1216 c 2,21,-1
 363 1082 l 1,22,-1
 621 1082 l 1,23,-1
 621 984 l 1,24,-1
 363 984 l 1,25,-1
 363 0 l 1,0,-1
EndSplineSet
Ligature2: "'liga' Standard Ligatures in Latin lookup 11 subtable" f l
EndChar

StartChar: fi
Encoding: 64257 64257 413
Width: 1101
GlyphClass: 3
Flags: W
LayerCount: 2
Fore
SplineSet
348 0 m 1,0,-1
 229 0 l 1,1,-1
 229 984 l 1,2,-1
 49 984 l 1,3,-1
 49 1082 l 1,4,-1
 229 1082 l 1,5,-1
 229 1196 l 2,6,7
 229 1371 229 1371 325.5 1464 c 128,-1,8
 422 1557 422 1557 588 1557 c 0,9,10
 722 1557 722 1557 864 1498 c 1,11,-1
 844 1394 l 1,12,13
 792 1417 792 1417 733.5 1432 c 128,-1,14
 675 1447 675 1447 595 1447 c 0,15,16
 348 1447 348 1447 348 1196 c 2,17,-1
 348 1082 l 1,18,-1
 602 1082 l 1,19,-1
 602 984 l 1,20,-1
 348 984 l 1,21,-1
 348 0 l 1,0,-1
929 1082 m 1,22,-1
 929 0 l 1,23,-1
 809 0 l 1,24,-1
 809 1082 l 1,25,-1
 929 1082 l 1,22,-1
EndSplineSet
Ligature2: "'liga' Standard Ligatures in Latin lookup 10 subtable" f i
EndChar

StartChar: figuredash
Encoding: 8210 8210 414
Width: 1025
GlyphClass: 2
Flags: W
LayerCount: 2
Fore
SplineSet
873 469 m 1,0,-1
 153 469 l 1,1,-1
 153 568 l 1,2,-1
 873 568 l 1,3,-1
 873 469 l 1,0,-1
EndSplineSet
EndChar

StartChar: five
Encoding: 53 53 415
Width: 1136
VWidth: 1798
GlyphClass: 2
Flags: W
LayerCount: 2
Fore
SplineSet
314 470 m 1,0,-1
 219 497 l 1,1,-1
 290 1206 l 1,2,-1
 1018 1206 l 1,3,-1
 1018 1094 l 1,4,-1
 393 1094 l 1,5,-1
 341 604 l 1,6,7
 379 631 379 631 451.5 657.5 c 128,-1,8
 524 684 524 684 615 684 c 0,9,10
 810 684 810 684 928.5 558 c 128,-1,11
 1047 432 1047 432 1047 214 c 0,12,13
 1047 75 1047 75 1001 -34.5 c 128,-1,14
 955 -144 955 -144 859 -207 c 128,-1,15
 763 -270 763 -270 612 -270 c 0,16,17
 496 -270 496 -270 399.5 -226 c 128,-1,18
 303 -182 303 -182 241.5 -92.5 c 128,-1,19
 180 -3 180 -3 168 133 c 1,20,-1
 284 133 l 1,21,22
 301 -13 301 -13 385 -90 c 128,-1,23
 469 -167 469 -167 612 -167 c 0,24,25
 767 -167 767 -167 847 -68 c 128,-1,26
 927 31 927 31 927 212 c 0,27,28
 927 367 927 367 841 470.5 c 128,-1,29
 755 574 755 574 594 574 c 0,30,31
 490 574 490 574 428.5 546 c 128,-1,32
 367 518 367 518 314 470 c 1,0,-1
EndSplineSet
Substitution2: "'ss01' Style Set 1 lookup 35 subtable" uni06F5
Substitution2: "'numr' Numerators lookup 21 subtable" five.frac
Substitution2: "'dnom' Denominators lookup 20 subtable" five.sup
Substitution2: "'frac' Diagonal Fractions lookup 19 subtable" five.frac
Substitution2: "Single Substitution lookup 18 subtable" five.sup
Substitution2: "'onum' Oldstyle Figures lookup 14 subtable" five.tnum
Substitution2: "'c2sc' Capitals to Small Capitals lookup 0 subtable" five.smcp
Position2: "'cpsp' Capital Spacing lookup 0 subtable" dx=36 dy=0 dh=72 dv=0
EndChar

StartChar: five.onum
Encoding: 65737 -1 417
Width: 1131
GlyphClass: 1
Flags: W
LayerCount: 2
Fore
SplineSet
243 397 m 1,0,-1
 143 414 l 1,1,-1
 236 1164 l 1,2,-1
 1007 1164 l 1,3,-1
 1007 1052 l 1,4,-1
 332 1052 l 1,5,-1
 267 557 l 1,6,7
 325 613 325 613 405 638 c 128,-1,8
 485 663 485 663 588 663 c 0,9,10
 721 664 721 664 818 605 c 128,-1,11
 915 546 915 546 968 437.5 c 128,-1,12
 1021 329 1021 329 1021 183 c 0,13,14
 1021 34 1021 34 960 -87.5 c 128,-1,15
 899 -209 899 -209 782.5 -280.5 c 128,-1,16
 666 -352 666 -352 500 -352 c 0,17,18
 394 -352 394 -352 293.5 -324.5 c 128,-1,19
 193 -297 193 -297 101 -238 c 1,20,-1
 143 -146 l 1,21,22
 283 -249 283 -249 500 -249 c 0,23,24
 622 -249 622 -249 712.5 -192.5 c 128,-1,25
 803 -136 803 -136 852.5 -38.5 c 128,-1,26
 902 59 902 59 902 181 c 0,27,28
 902 283 902 283 863 367.5 c 128,-1,29
 824 452 824 452 748 502.5 c 128,-1,30
 672 553 672 553 562 553 c 0,31,32
 456 553 456 553 397 531.5 c 128,-1,33
 338 510 338 510 305 474.5 c 128,-1,34
 272 439 272 439 243 397 c 1,0,-1
EndSplineSet
EndChar

StartChar: five.smcp
Encoding: 65738 -1 418
Width: 1025
GlyphClass: 2
Flags: W
LayerCount: 2
Fore
SplineSet
272 566 m 1,0,-1
 177 593 l 1,1,-1
 247 1165 l 1,2,-1
 913 1165 l 1,3,-1
 913 1056 l 1,4,-1
 347 1056 l 1,5,-1
 300 688 l 1,6,7
 333 708 333 708 398 729 c 128,-1,8
 463 750 463 750 547 750 c 0,9,10
 723 750 723 750 833.5 649 c 128,-1,11
 944 548 944 548 944 372 c 0,12,13
 944 263 944 263 902 175 c 128,-1,14
 860 87 860 87 771 35.5 c 128,-1,15
 682 -16 682 -16 541 -16 c 0,16,17
 445 -16 445 -16 358 20 c 128,-1,18
 271 56 271 56 213.5 128.5 c 128,-1,19
 156 201 156 201 146 309 c 1,20,-1
 262 309 l 1,21,22
 276 200 276 200 354 143 c 128,-1,23
 432 86 432 86 541 86 c 0,24,25
 687 86 687 86 755.5 163 c 128,-1,26
 824 240 824 240 824 374 c 0,27,28
 824 496 824 496 746 571.5 c 128,-1,29
 668 647 668 647 525 647 c 0,30,31
 426 647 426 647 372.5 624.5 c 128,-1,32
 319 602 319 602 272 566 c 1,0,-1
EndSplineSet
EndChar

StartChar: five.sup
Encoding: 65739 -1 419
Width: 740
GlyphClass: 2
Flags: W
LayerCount: 2
Fore
SplineSet
212 375 m 1,0,-1
 129 398 l 1,1,-1
 177 789 l 1,2,-1
 640 789 l 1,3,-1
 640 698 l 1,4,-1
 265 698 l 1,5,-1
 235 471 l 1,6,7
 256 483 256 483 298.5 496 c 128,-1,8
 341 509 341 509 395 509 c 0,9,10
 517 509 517 509 591 441.5 c 128,-1,11
 665 374 665 374 665 255 c 0,12,13
 665 145 665 145 598 67 c 128,-1,14
 531 -11 531 -11 385 -11 c 0,15,16
 318 -11 318 -11 256.5 14.5 c 128,-1,17
 195 40 195 40 154.5 89.5 c 128,-1,18
 114 139 114 139 109 212 c 1,19,-1
 213 212 l 1,20,21
 220 145 220 145 268 111 c 128,-1,22
 316 77 316 77 385 77 c 0,23,24
 477 77 477 77 518.5 125.5 c 128,-1,25
 560 174 560 174 560 256 c 0,26,27
 560 333 560 333 511.5 380 c 128,-1,28
 463 427 463 427 374 427 c 0,29,30
 310 427 310 427 275.5 411.5 c 128,-1,31
 241 396 241 396 212 375 c 1,0,-1
EndSplineSet
EndChar

StartChar: florin
Encoding: 402 402 422
Width: 671
VWidth: 1798
GlyphClass: 2
Flags: W
LayerCount: 2
Fore
SplineSet
601 832 m 1,0,-1
 601 734 l 1,1,-1
 356 734 l 1,2,-1
 356 -339 l 2,3,4
 356 -508 356 -508 275.5 -597.5 c 128,-1,5
 195 -687 195 -687 52 -687 c 0,6,7
 -3 -687 -3 -687 -60 -668 c 1,8,-1
 -46 -568 l 1,9,10
 -31 -574 -31 -574 0 -579 c 128,-1,11
 31 -584 31 -584 52 -584 c 0,12,13
 141 -584 141 -584 189 -519.5 c 128,-1,14
 237 -455 237 -455 237 -339 c 2,15,-1
 237 734 l 1,16,-1
 57 734 l 1,17,-1
 57 832 l 1,18,-1
 237 832 l 1,19,-1
 237 966 l 2,20,21
 237 1131 237 1131 319.5 1219 c 128,-1,22
 402 1307 402 1307 547 1307 c 0,23,24
 617 1307 617 1307 683 1288 c 1,25,-1
 668 1189 l 1,26,27
 644 1195 644 1195 619 1198.5 c 128,-1,28
 594 1202 594 1202 559 1202 c 0,29,30
 462 1202 462 1202 409 1140.5 c 128,-1,31
 356 1079 356 1079 356 966 c 2,32,-1
 356 832 l 1,33,-1
 601 832 l 1,0,-1
EndSplineSet
EndChar

StartChar: four
Encoding: 52 52 423
Width: 1136
VWidth: 1798
GlyphClass: 2
Flags: W
LayerCount: 2
Fore
SplineSet
1100 221 m 1,0,-1
 1100 118 l 1,1,-1
 872 118 l 1,2,-1
 872 -250 l 1,3,-1
 753 -250 l 1,4,-1
 753 118 l 1,5,-1
 68 118 l 1,6,-1
 68 187 l 1,7,-1
 741 1206 l 1,8,-1
 872 1206 l 1,9,-1
 872 221 l 1,10,-1
 1100 221 l 1,0,-1
215 221 m 1,11,-1
 753 221 l 1,12,-1
 753 1052 l 1,13,-1
 699 959 l 1,14,-1
 215 221 l 1,11,-1
EndSplineSet
Substitution2: "'ss01' Style Set 1 lookup 35 subtable" uni06F4
Substitution2: "'numr' Numerators lookup 21 subtable" four.frac
Substitution2: "'dnom' Denominators lookup 20 subtable" four.sup
Substitution2: "'frac' Diagonal Fractions lookup 19 subtable" four.frac
Substitution2: "Single Substitution lookup 18 subtable" four.sup
Substitution2: "'onum' Oldstyle Figures lookup 14 subtable" four.tnum
Substitution2: "'c2sc' Capitals to Small Capitals lookup 0 subtable" four.smcp
Position2: "'cpsp' Capital Spacing lookup 0 subtable" dx=36 dy=0 dh=72 dv=0
EndChar

StartChar: four.onum
Encoding: 65742 -1 425
Width: 1228
GlyphClass: 1
Flags: W
LayerCount: 2
Fore
SplineSet
1184 102 m 1,0,-1
 1184 -1 l 1,1,-1
 987 -1 l 1,2,-1
 987 -330 l 1,3,-1
 868 -330 l 1,4,-1
 868 -1 l 1,5,-1
 62 -1 l 1,6,-1
 62 72 l 1,7,-1
 850 1165 l 1,8,-1
 987 1165 l 1,9,-1
 987 102 l 1,10,-1
 1184 102 l 1,0,-1
212 102 m 1,11,-1
 868 102 l 1,12,-1
 868 1023 l 1,13,-1
 822 943 l 1,14,-1
 212 102 l 1,11,-1
EndSplineSet
EndChar

StartChar: four.smcp
Encoding: 65743 -1 426
Width: 1025
GlyphClass: 2
Flags: W
LayerCount: 2
Fore
SplineSet
991 390 m 1,0,-1
 991 286 l 1,1,-1
 791 286 l 1,2,-1
 791 0 l 1,3,-1
 671 0 l 1,4,-1
 671 286 l 1,5,-1
 62 286 l 1,6,-1
 61 360 l 1,7,-1
 662 1165 l 1,8,-1
 791 1165 l 1,9,-1
 791 390 l 1,10,-1
 991 390 l 1,0,-1
200 390 m 1,11,-1
 671 390 l 1,12,-1
 671 1017 l 1,13,-1
 622 933 l 1,14,-1
 200 390 l 1,11,-1
EndSplineSet
EndChar

StartChar: four.sup
Encoding: 65744 -1 427
Width: 740
GlyphClass: 2
Flags: W
LayerCount: 2
Fore
SplineSet
695 277 m 1,0,-1
 695 187 l 1,1,-1
 567 187 l 1,2,-1
 567 0 l 1,3,-1
 462 0 l 1,4,-1
 462 187 l 1,5,-1
 64 187 l 1,6,-1
 60 254 l 1,7,-1
 457 789 l 1,8,-1
 567 789 l 1,9,-1
 567 277 l 1,10,-1
 695 277 l 1,0,-1
174 277 m 1,11,-1
 462 277 l 1,12,-1
 462 657 l 1,13,-1
 432 608 l 1,14,-1
 174 277 l 1,11,-1
EndSplineSet
EndChar

StartChar: fraction
Encoding: 8260 8260 429
Width: 918
GlyphClass: 2
Flags: W
LayerCount: 2
Fore
SplineSet
848 1259 m 1,0,-1
 137 121 l 1,1,-1
 63 170 l 1,2,-1
 774 1308 l 1,3,-1
 848 1259 l 1,0,-1
EndSplineSet
EndChar

StartChar: g
Encoding: 103 103 431
Width: 1137
VWidth: 1798
GlyphClass: 2
Flags: W
AnchorPoint: "Anchor-1" 554 -697 basechar 0
AnchorPoint: "Anchor-0" 556 1040 basechar 0
LayerCount: 2
Fore
SplineSet
109 280 m 2,0,-1
 109 301 l 2,1,2
 109 553 109 553 220 702.5 c 128,-1,3
 331 852 331 852 527 852 c 0,4,5
 643 852 643 852 726.5 805.5 c 128,-1,6
 810 759 810 759 863 676 c 1,7,-1
 869 832 l 1,8,-1
 980 832 l 1,9,-1
 980 -231 l 2,10,11
 980 -442 980 -442 862 -561.5 c 128,-1,12
 744 -681 744 -681 547 -681 c 0,13,14
 446 -681 446 -681 340.5 -635 c 128,-1,15
 235 -589 235 -589 169 -496 c 1,16,-1
 237 -423 l 1,17,18
 302 -504 302 -504 377 -541.5 c 128,-1,19
 452 -579 452 -579 539 -579 c 0,20,21
 693 -579 693 -579 776.5 -488 c 128,-1,22
 860 -397 860 -397 860 -235 c 2,23,-1
 860 -108 l 1,24,25
 806 -184 806 -184 723 -227 c 128,-1,26
 640 -270 640 -270 525 -270 c 0,27,28
 396 -270 396 -270 303 -200 c 128,-1,29
 210 -130 210 -130 159.5 -5.5 c 128,-1,30
 109 119 109 119 109 280 c 2,0,-1
229 301 m 2,31,-1
 229 280 l 2,32,33
 229 155 229 155 263 54 c 128,-1,34
 297 -47 297 -47 367.5 -106 c 128,-1,35
 438 -165 438 -165 547 -165 c 0,36,37
 670 -165 670 -165 745.5 -108 c 128,-1,38
 821 -51 821 -51 860 35 c 1,39,-1
 860 534 l 1,40,41
 826 618 826 618 753.5 682.5 c 128,-1,42
 681 747 681 747 549 747 c 0,43,44
 439 747 439 747 368 688 c 128,-1,45
 297 629 297 629 263 528 c 128,-1,46
 229 427 229 427 229 301 c 2,31,-1
EndSplineSet
Substitution2: "'salt' Stylistic Alternatives lookup 13 subtable" g.alt
Substitution2: "'unic' Unicase lookup 2 subtable" G
Substitution2: "'smcp' Lowercase to Small Capitals lookup 1 subtable" G.smcp
EndChar

StartChar: g.alt
Encoding: 65746 -1 432
Width: 1079
GlyphClass: 2
Flags: W
LayerCount: 2
Fore
SplineSet
120 731 m 2,0,-1
 120 753 l 2,1,2
 120 855 120 855 172.5 933.5 c 128,-1,3
 225 1012 225 1012 316.5 1057 c 128,-1,4
 408 1102 408 1102 526 1102 c 0,5,6
 603 1102 603 1102 671 1082 c 1,7,-1
 1009 1082 l 1,8,-1
 1011 982 l 1,9,-1
 841 982 l 1,10,11
 932 888 932 888 932 753 c 2,12,-1
 932 731 l 2,13,14
 932 639 932 639 880.5 561.5 c 128,-1,15
 829 484 829 484 738 438 c 128,-1,16
 647 392 647 392 528 392 c 0,17,18
 452 392 452 392 384 412 c 1,19,20
 358 393 358 393 334.5 362 c 128,-1,21
 311 331 311 331 311 284 c 0,22,23
 311 226 311 226 350 206.5 c 128,-1,24
 389 187 389 187 438 187 c 2,25,-1
 619 187 l 2,26,27
 795 187 795 187 902.5 116 c 128,-1,28
 1010 45 1010 45 1010 -102 c 0,29,30
 1010 -178 1010 -178 950 -256 c 128,-1,31
 890 -334 890 -334 774.5 -386 c 128,-1,32
 659 -438 659 -438 494 -438 c 0,33,34
 282 -438 282 -438 171.5 -354.5 c 128,-1,35
 61 -271 61 -271 61 -156 c 0,36,37
 61 -54 61 -54 123 16.5 c 128,-1,38
 185 87 185 87 267 125 c 1,39,40
 237 146 237 146 219 178 c 128,-1,41
 201 210 201 210 201 256 c 0,42,43
 201 325 201 325 233 370.5 c 128,-1,44
 265 416 265 416 303 446 c 1,45,46
 218 491 218 491 169 566.5 c 128,-1,47
 120 642 120 642 120 731 c 2,0,-1
240 753 m 2,48,-1
 240 731 l 2,49,50
 240 673 240 673 275.5 618.5 c 128,-1,51
 311 564 311 564 376 529 c 128,-1,52
 441 494 441 494 528 494 c 256,53,54
 615 494 615 494 679 529 c 128,-1,55
 743 564 743 564 778 618.5 c 128,-1,56
 813 673 813 673 813 731 c 2,57,-1
 813 753 l 2,58,59
 813 819 813 819 777.5 875 c 128,-1,60
 742 931 742 931 677.5 965 c 128,-1,61
 613 999 613 999 526 999 c 0,62,63
 440 999 440 999 375.5 965 c 128,-1,64
 311 931 311 931 275.5 875 c 128,-1,65
 240 819 240 819 240 753 c 2,48,-1
180 -138 m 0,66,67
 180 -219 180 -219 256 -277 c 128,-1,68
 332 -335 332 -335 494 -335 c 0,69,70
 622 -335 622 -335 710 -298.5 c 128,-1,71
 798 -262 798 -262 844 -208 c 128,-1,72
 890 -154 890 -154 890 -102 c 0,73,74
 890 -19 890 -19 828 33 c 128,-1,75
 766 85 766 85 619 85 c 2,76,-1
 420 85 l 2,77,78
 394 85 394 85 370 88 c 1,79,80
 292 67 292 67 236 4 c 128,-1,81
 180 -59 180 -59 180 -138 c 0,66,67
EndSplineSet
EndChar

StartChar: germandbls
Encoding: 223 223 437
Width: 1201
VWidth: 1798
GlyphClass: 2
Flags: W
LayerCount: 2
Fore
SplineSet
271 878 m 2,0,-1
 271 -250 l 1,1,-1
 152 -250 l 1,2,-1
 152 878 l 2,3,4
 152 1082 152 1082 249 1188.5 c 128,-1,5
 346 1295 346 1295 513 1295 c 0,6,7
 607 1295 607 1295 685 1259.5 c 128,-1,8
 763 1224 763 1224 810 1155.5 c 128,-1,9
 857 1087 857 1087 857 987 c 0,10,11
 857 912 857 912 838.5 861.5 c 128,-1,12
 820 811 820 811 795 770 c 128,-1,13
 770 729 770 729 751.5 684.5 c 128,-1,14
 733 640 733 640 733 575 c 0,15,16
 733 516 733 516 769.5 470.5 c 128,-1,17
 806 425 806 425 860.5 384 c 128,-1,18
 915 343 915 343 969 297.5 c 128,-1,19
 1023 252 1023 252 1059.5 194.5 c 128,-1,20
 1096 137 1096 137 1096 57 c 0,21,22
 1096 -50 1096 -50 1042.5 -123 c 128,-1,23
 989 -196 989 -196 903 -233 c 128,-1,24
 817 -270 817 -270 720 -270 c 0,25,26
 664 -270 664 -270 603.5 -258.5 c 128,-1,27
 543 -247 543 -247 492 -229 c 128,-1,28
 441 -211 441 -211 415 -190 c 1,29,-1
 448 -88 l 1,30,31
 486 -115 486 -115 559 -142 c 128,-1,32
 632 -169 632 -169 707 -169 c 0,33,34
 836 -169 836 -169 906.5 -101.5 c 128,-1,35
 977 -34 977 -34 977 57 c 0,36,37
 977 120 977 120 940.5 167.5 c 128,-1,38
 904 215 904 215 850 256.5 c 128,-1,39
 796 298 796 298 741.5 342.5 c 128,-1,40
 687 387 687 387 650.5 443 c 128,-1,41
 614 499 614 499 614 577 c 0,42,43
 614 646 614 646 633 694.5 c 128,-1,44
 652 743 652 743 676.5 784.5 c 128,-1,45
 701 826 701 826 720 872 c 128,-1,46
 739 918 739 918 739 980 c 0,47,48
 739 1077 739 1077 674.5 1134.5 c 128,-1,49
 610 1192 610 1192 523 1192 c 0,50,51
 407 1192 407 1192 339 1118.5 c 128,-1,52
 271 1045 271 1045 271 878 c 2,0,-1
EndSplineSet
Substitution2: "'smcp' Lowercase to Small Capitals lookup 1 subtable" Germandbls.smcp
EndChar

StartChar: grave
Encoding: 96 96 438
Width: 585
VWidth: 1798
GlyphClass: 2
Flags: W
LayerCount: 2
Fore
SplineSet
248 1286 m 1,0,-1
 439 1006 l 1,1,-1
 330 1006 l 1,2,-1
 103 1286 l 1,3,-1
 248 1286 l 1,0,-1
EndSplineSet
EndChar

StartChar: gravecomb
Encoding: 768 768 439
Width: 0
VWidth: 1798
GlyphClass: 4
Flags: W
AnchorPoint: "Anchor-3" -530 1391 basemark 0
AnchorPoint: "Anchor-3" -530 1040 mark 0
AnchorPoint: "Anchor-0" -530 1040 mark 0
LayerCount: 2
Fore
SplineSet
-656 1286 m 1,0,-1
 -465 1006 l 1,1,-1
 -574 1006 l 1,2,-1
 -800 1286 l 1,3,-1
 -656 1286 l 1,0,-1
EndSplineSet
EndChar

StartChar: greater
Encoding: 62 62 440
Width: 1062
VWidth: 1798
GlyphClass: 2
Flags: W
LayerCount: 2
Fore
SplineSet
125 106 m 1,0,-1
 835 410 l 1,1,-1
 125 711 l 1,2,-1
 125 836 l 1,3,-1
 970 458 l 1,4,-1
 970 360 l 1,5,-1
 125 -19 l 1,6,-1
 125 106 l 1,0,-1
EndSplineSet
EndChar

StartChar: greaterequal
Encoding: 8805 8805 441
Width: 1062
GlyphClass: 2
Flags: W
LayerCount: 2
Fore
SplineSet
125 443 m 1,0,-1
 837 736 l 1,1,-1
 125 1026 l 1,2,-1
 125 1142 l 1,3,-1
 970 781 l 1,4,-1
 970 689 l 1,5,-1
 125 327 l 1,6,-1
 125 443 l 1,0,-1
954 103 m 1,7,-1
 954 1 l 1,8,-1
 119 1 l 1,9,-1
 119 103 l 1,10,-1
 954 103 l 1,7,-1
EndSplineSet
EndChar

StartChar: guillemotleft
Encoding: 171 171 442
Width: 888
VWidth: 1798
GlyphClass: 2
Flags: W
LayerCount: 2
Fore
SplineSet
425 -216 m 1,0,-1
 362 -276 l 1,1,2
 250 -140 250 -140 193.5 -34 c 128,-1,3
 137 72 137 72 137 172 c 256,4,5
 137 272 137 272 193.5 378 c 128,-1,6
 250 484 250 484 362 619 c 1,7,-1
 425 558 l 1,8,9
 333 436 333 436 286.5 346 c 128,-1,10
 240 256 240 256 240 172 c 256,11,12
 240 88 240 88 286.5 -3 c 128,-1,13
 333 -94 333 -94 425 -216 c 1,0,-1
758 -216 m 1,14,-1
 695 -276 l 1,15,16
 583 -140 583 -140 526.5 -34 c 128,-1,17
 470 72 470 72 470 172 c 256,18,19
 470 272 470 272 526.5 378 c 128,-1,20
 583 484 583 484 695 619 c 1,21,-1
 758 558 l 1,22,23
 666 436 666 436 619.5 346 c 128,-1,24
 573 256 573 256 573 172 c 256,25,26
 573 88 573 88 619.5 -3 c 128,-1,27
 666 -94 666 -94 758 -216 c 1,14,-1
EndSplineSet
EndChar

StartChar: guillemotright
Encoding: 187 187 443
Width: 888
VWidth: 1798
GlyphClass: 2
Flags: W
LayerCount: 2
Fore
SplineSet
463 -216 m 1,0,1
 555 -94 555 -94 601.5 -3 c 128,-1,2
 648 88 648 88 648 172 c 256,3,4
 648 256 648 256 601.5 346 c 128,-1,5
 555 436 555 436 463 558 c 1,6,-1
 525 619 l 1,7,8
 638 484 638 484 694.5 378 c 128,-1,9
 751 272 751 272 751 172 c 256,10,11
 751 72 751 72 694.5 -34 c 128,-1,12
 638 -140 638 -140 525 -276 c 1,13,-1
 463 -216 l 1,0,1
130 -216 m 1,14,15
 222 -94 222 -94 268.5 -3 c 128,-1,16
 315 88 315 88 315 172 c 256,17,18
 315 256 315 256 268.5 346 c 128,-1,19
 222 436 222 436 130 558 c 1,20,-1
 192 619 l 1,21,22
 305 484 305 484 361.5 378 c 128,-1,23
 418 272 418 272 418 172 c 256,24,25
 418 72 418 72 361.5 -34 c 128,-1,26
 305 -140 305 -140 192 -276 c 1,27,-1
 130 -216 l 1,14,15
EndSplineSet
EndChar

StartChar: guilsinglleft
Encoding: 8249 8249 444
Width: 610
GlyphClass: 2
Flags: W
LayerCount: 2
Fore
SplineSet
509 945 m 1,0,-1
 233 556 l 1,1,-1
 509 167 l 1,2,-1
 403 167 l 1,3,-1
 108 547 l 1,4,-1
 108 566 l 1,5,-1
 403 945 l 1,6,-1
 509 945 l 1,0,-1
EndSplineSet
EndChar

StartChar: guilsinglright
Encoding: 8250 8250 445
Width: 610
GlyphClass: 2
Flags: W
LayerCount: 2
Fore
SplineSet
98 162 m 1,0,-1
 374 551 l 1,1,-1
 98 945 l 1,2,-1
 204 945 l 1,3,-1
 499 560 l 1,4,-1
 499 541 l 1,5,-1
 204 162 l 1,6,-1
 98 162 l 1,0,-1
EndSplineSet
EndChar

StartChar: h
Encoding: 104 104 446
Width: 1125
VWidth: 1798
GlyphClass: 2
Flags: W
AnchorPoint: "Anchor-1" 588 -240 basechar 0
AnchorPoint: "Anchor-0" 501 1361 basechar 0
LayerCount: 2
Fore
SplineSet
276 1286 m 1,0,-1
 276 650 l 1,1,2
 332 741 332 741 422 796.5 c 128,-1,3
 512 852 512 852 628 852 c 0,4,5
 790 852 790 852 881.5 760.5 c 128,-1,6
 973 669 973 669 973 455 c 2,7,-1
 973 -250 l 1,8,-1
 853 -250 l 1,9,-1
 853 456 l 2,10,11
 853 623 853 623 784.5 685.5 c 128,-1,12
 716 748 716 748 599 748 c 0,13,14
 514 748 514 748 450 711 c 128,-1,15
 386 674 386 674 342.5 615.5 c 128,-1,16
 299 557 299 557 276 491 c 1,17,-1
 276 -250 l 1,18,-1
 157 -250 l 1,19,-1
 157 1286 l 1,20,-1
 276 1286 l 1,0,-1
EndSplineSet
Substitution2: "'unic' Unicase lookup 2 subtable" H
Substitution2: "'smcp' Lowercase to Small Capitals lookup 1 subtable" H.smcp
EndChar

StartChar: hbar
Encoding: 295 295 447
Width: 1155
VWidth: 1798
GlyphClass: 2
Flags: W
AnchorPoint: "Anchor-1" 588 -240 basechar 0
AnchorPoint: "Anchor-0" 501 1361 basechar 0
LayerCount: 2
Fore
SplineSet
643 1110 m 1,0,-1
 643 1007 l 1,1,-1
 306 1007 l 1,2,-1
 306 650 l 1,3,4
 362 741 362 741 452 796.5 c 128,-1,5
 542 852 542 852 658 852 c 0,6,7
 820 852 820 852 911.5 760.5 c 128,-1,8
 1003 669 1003 669 1003 455 c 2,9,-1
 1003 -250 l 1,10,-1
 883 -250 l 1,11,-1
 883 456 l 2,12,13
 883 623 883 623 814.5 685.5 c 128,-1,14
 746 748 746 748 629 748 c 0,15,16
 544 748 544 748 480 711 c 128,-1,17
 416 674 416 674 372.5 615.5 c 128,-1,18
 329 557 329 557 306 491 c 1,19,-1
 306 -250 l 1,20,-1
 187 -250 l 1,21,-1
 187 1007 l 1,22,-1
 31 1007 l 1,23,-1
 31 1110 l 1,24,-1
 187 1110 l 1,25,-1
 187 1286 l 1,26,-1
 306 1286 l 1,27,-1
 306 1110 l 1,28,-1
 643 1110 l 1,0,-1
EndSplineSet
Substitution2: "'unic' Unicase lookup 2 subtable" Hbar
Substitution2: "'smcp' Lowercase to Small Capitals lookup 1 subtable" Hbar.smcp
EndChar

StartChar: hook
Encoding: 777 777 449
Width: 0
VWidth: 1798
GlyphClass: 4
Flags: W
AnchorPoint: "Anchor-3" -590 1471 basemark 0
AnchorPoint: "Anchor-3" -590 1024 mark 0
AnchorPoint: "Anchor-0" -590 1024 mark 0
LayerCount: 2
Fore
SplineSet
-535 985 m 1,0,-1
 -625 985 l 1,1,-1
 -626 1110 l 1,2,3
 -539 1117 -539 1117 -499 1137.5 c 128,-1,4
 -459 1158 -459 1158 -459 1205 c 0,5,6
 -459 1258 -459 1258 -522.5 1278 c 128,-1,7
 -586 1298 -586 1298 -660 1298 c 1,8,-1
 -653 1376 l 1,9,10
 -516 1376 -516 1376 -437.5 1329.5 c 128,-1,11
 -359 1283 -359 1283 -359 1203 c 0,12,13
 -359 1124 -359 1124 -411.5 1089 c 128,-1,14
 -464 1054 -464 1054 -534 1047 c 1,15,-1
 -535 985 l 1,0,-1
EndSplineSet
EndChar

StartChar: hungarumlaut
Encoding: 733 733 450
Width: 774
VWidth: 1798
GlyphClass: 2
Flags: W
LayerCount: 2
Fore
SplineSet
378 982 m 1,0,-1
 634 1286 l 1,1,-1
 777 1286 l 1,2,-1
 499 982 l 1,3,-1
 378 982 l 1,0,-1
121 982 m 1,4,-1
 324 1286 l 1,5,-1
 461 1286 l 1,6,-1
 230 982 l 1,7,-1
 121 982 l 1,4,-1
EndSplineSet
EndChar

StartChar: hyphen
Encoding: 45 45 451
Width: 928
VWidth: 1798
GlyphClass: 2
Flags: W
LayerCount: 2
Fore
SplineSet
776 219 m 1,0,-1
 153 219 l 1,1,-1
 153 318 l 1,2,-1
 776 318 l 1,3,-1
 776 219 l 1,0,-1
EndSplineSet
EndChar

StartChar: hyphendot
Encoding: 8231 8231 453
Width: 347
GlyphClass: 2
Flags: W
LayerCount: 2
Fore
SplineSet
91 643 m 256,0,1
 91 677 91 677 113 700.5 c 128,-1,2
 135 724 135 724 173 724 c 0,3,4
 212 724 212 724 234 700.5 c 128,-1,5
 256 677 256 677 256 643 c 256,6,7
 256 609 256 609 234 586 c 128,-1,8
 212 563 212 563 173 563 c 0,9,10
 135 563 135 563 113 586 c 128,-1,11
 91 609 91 609 91 643 c 256,0,1
EndSplineSet
EndChar

StartChar: i
Encoding: 105 105 455
Width: 460
VWidth: 1798
GlyphClass: 2
Flags: W
AnchorPoint: "Anchor-1" 249 -240 basechar 0
AnchorPoint: "Anchor-0" 251 1350 basechar 0
LayerCount: 2
Fore
SplineSet
150 1145 m 256,0,1
 150 1179 150 1179 171.5 1202.5 c 128,-1,2
 193 1226 193 1226 232 1226 c 0,3,4
 270 1226 270 1226 292.5 1202.5 c 128,-1,5
 315 1179 315 1179 315 1145 c 256,6,7
 315 1111 315 1111 292.5 1088 c 128,-1,8
 270 1065 270 1065 232 1065 c 0,9,10
 193 1065 193 1065 171.5 1088 c 128,-1,11
 150 1111 150 1111 150 1145 c 256,0,1
291 832 m 1,12,-1
 291 -250 l 1,13,-1
 171 -250 l 1,14,-1
 171 832 l 1,15,-1
 291 832 l 1,12,-1
EndSplineSet
Substitution2: "Single Substitution lookup 3 subtable" uni0069.ccmp
Substitution2: "'unic' Unicase lookup 2 subtable" I
Substitution2: "'smcp' Lowercase to Small Capitals lookup 1 subtable" I.smcp
EndChar

StartChar: infinity
Encoding: 8734 8734 463
Width: 2165
GlyphClass: 2
Flags: W
LayerCount: 2
Fore
SplineSet
120 522 m 2,0,-1
 120 560 l 2,1,2
 120 705 120 705 177.5 828.5 c 128,-1,3
 235 952 235 952 340 1027 c 128,-1,4
 445 1102 445 1102 588 1102 c 0,5,6
 691 1102 691 1102 770 1061.5 c 128,-1,7
 849 1021 849 1021 908 957.5 c 128,-1,8
 967 894 967 894 1008.5 821.5 c 128,-1,9
 1050 749 1050 749 1076 686 c 1,10,11
 1101 749 1101 749 1142.5 821.5 c 128,-1,12
 1184 894 1184 894 1243 957.5 c 128,-1,13
 1302 1021 1302 1021 1381.5 1061.5 c 128,-1,14
 1461 1102 1461 1102 1564 1102 c 0,15,16
 1706 1102 1706 1102 1811 1027 c 128,-1,17
 1916 952 1916 952 1974 828.5 c 128,-1,18
 2032 705 2032 705 2032 560 c 2,19,-1
 2032 522 l 2,20,21
 2032 377 2032 377 1974 253.5 c 128,-1,22
 1916 130 1916 130 1810.5 54.5 c 128,-1,23
 1705 -21 1705 -21 1562 -21 c 0,24,25
 1460 -21 1460 -21 1380.5 19.5 c 128,-1,26
 1301 60 1301 60 1242 124 c 128,-1,27
 1183 188 1183 188 1142 260.5 c 128,-1,28
 1101 333 1101 333 1076 396 c 1,29,30
 1050 333 1050 333 1009 260.5 c 128,-1,31
 968 188 968 188 909.5 124 c 128,-1,32
 851 60 851 60 771.5 19.5 c 128,-1,33
 692 -21 692 -21 590 -21 c 0,34,35
 447 -21 447 -21 341 54.5 c 128,-1,36
 235 130 235 130 177.5 253.5 c 128,-1,37
 120 377 120 377 120 522 c 2,0,-1
239 560 m 2,38,-1
 239 522 l 2,39,40
 239 410 239 410 278.5 309 c 128,-1,41
 318 208 318 208 396.5 145 c 128,-1,42
 475 82 475 82 590 82 c 0,43,44
 677 82 677 82 744.5 122.5 c 128,-1,45
 812 163 812 163 860.5 224 c 128,-1,46
 909 285 909 285 941 348.5 c 128,-1,47
 973 412 973 412 989.5 460 c 128,-1,48
 1006 508 1006 508 1009 520 c 2,49,-1
 1009 562 l 2,50,51
 1006 574 1006 574 989.5 621.5 c 128,-1,52
 973 669 973 669 941 732.5 c 128,-1,53
 909 796 909 796 860 857 c 128,-1,54
 811 918 811 918 743.5 958.5 c 128,-1,55
 676 999 676 999 588 999 c 0,56,57
 474 999 474 999 396 935.5 c 128,-1,58
 318 872 318 872 278.5 771.5 c 128,-1,59
 239 671 239 671 239 560 c 2,38,-1
1912 522 m 2,60,-1
 1912 560 l 2,61,62
 1912 671 1912 671 1872.5 771.5 c 128,-1,63
 1833 872 1833 872 1755.5 935.5 c 128,-1,64
 1678 999 1678 999 1564 999 c 0,65,66
 1476 999 1476 999 1408 958.5 c 128,-1,67
 1340 918 1340 918 1291 857 c 128,-1,68
 1242 796 1242 796 1210 732.5 c 128,-1,69
 1178 669 1178 669 1161.5 621.5 c 128,-1,70
 1145 574 1145 574 1142 562 c 2,71,-1
 1142 520 l 2,72,73
 1145 508 1145 508 1161.5 460 c 128,-1,74
 1178 412 1178 412 1210 348.5 c 128,-1,75
 1242 285 1242 285 1290.5 224 c 128,-1,76
 1339 163 1339 163 1406.5 122.5 c 128,-1,77
 1474 82 1474 82 1562 82 c 0,78,79
 1677 82 1677 82 1755 145 c 128,-1,80
 1833 208 1833 208 1872.5 309 c 128,-1,81
 1912 410 1912 410 1912 522 c 2,60,-1
EndSplineSet
EndChar

StartChar: integral
Encoding: 8747 8747 464
Width: 520
GlyphClass: 2
Flags: W
LayerCount: 2
Fore
SplineSet
298 -98 m 2,0,1
 298 -267 298 -267 217.5 -352 c 128,-1,2
 137 -437 137 -437 -6 -437 c 0,3,4
 -37 -437 -37 -437 -64 -432 c 128,-1,5
 -91 -427 -91 -427 -120 -417 c 1,6,-1
 -104 -318 l 1,7,8
 -89 -323 -89 -323 -63 -328.5 c 128,-1,9
 -37 -334 -37 -334 -15 -334 c 0,10,11
 77 -334 77 -334 127.5 -274 c 128,-1,12
 178 -214 178 -214 178 -98 c 2,13,-1
 178 1217 l 2,14,15
 178 1382 178 1382 261 1469.5 c 128,-1,16
 344 1557 344 1557 489 1557 c 0,17,18
 560 1557 560 1557 624 1538 c 1,19,-1
 609 1441 l 1,20,21
 587 1447 587 1447 563 1450.5 c 128,-1,22
 539 1454 539 1454 504 1454 c 0,23,24
 406 1454 406 1454 352 1392 c 128,-1,25
 298 1330 298 1330 298 1217 c 2,26,-1
 298 -98 l 2,0,1
EndSplineSet
EndChar

StartChar: j
Encoding: 106 106 467
Width: 468
VWidth: 1798
GlyphClass: 2
Flags: W
AnchorPoint: "Anchor-1" 190 -709 basechar 0
AnchorPoint: "Anchor-0" 223 1350 basechar 0
LayerCount: 2
Fore
SplineSet
145 1145 m 256,0,1
 145 1179 145 1179 167 1202.5 c 128,-1,2
 189 1226 189 1226 227 1226 c 0,3,4
 266 1226 266 1226 288 1202.5 c 128,-1,5
 310 1179 310 1179 310 1145 c 256,6,7
 310 1111 310 1111 288 1088 c 128,-1,8
 266 1065 266 1065 227 1065 c 0,9,10
 189 1065 189 1065 167 1088 c 128,-1,11
 145 1111 145 1111 145 1145 c 256,0,1
166 832 m 1,12,-1
 286 832 l 1,13,-1
 286 -379 l 2,14,15
 286 -528 286 -528 213 -607.5 c 128,-1,16
 140 -687 140 -687 2 -687 c 0,17,18
 -55 -687 -55 -687 -104 -668 c 1,19,-1
 -102 -568 l 1,20,21
 -85 -573 -85 -573 -60 -577 c 128,-1,22
 -35 -581 -35 -581 -13 -581 c 0,23,24
 166 -581 166 -581 166 -379 c 2,25,-1
 166 832 l 1,12,-1
EndSplineSet
Substitution2: "Single Substitution lookup 3 subtable" uni006A.ccmp
Substitution2: "'unic' Unicase lookup 2 subtable" J
Substitution2: "'smcp' Lowercase to Small Capitals lookup 1 subtable" J.smcp
EndChar

StartChar: k
Encoding: 107 107 469
Width: 1004
VWidth: 1798
GlyphClass: 2
Flags: W
AnchorPoint: "Anchor-1" 529 -179 basechar 0
AnchorPoint: "Anchor-0" 549 1361 basechar 0
LayerCount: 2
Fore
SplineSet
851 -250 m 1,0,-1
 414 295 l 1,1,-1
 277 163 l 1,2,-1
 277 -250 l 1,3,-1
 157 -250 l 1,4,-1
 157 1286 l 1,5,-1
 277 1286 l 1,6,-1
 277 305 l 1,7,-1
 390 427 l 1,8,-1
 804 832 l 1,9,-1
 955 832 l 1,10,-1
 497 376 l 1,11,-1
 995 -250 l 1,12,-1
 851 -250 l 1,0,-1
EndSplineSet
Substitution2: "'unic' Unicase lookup 2 subtable" K
Substitution2: "'smcp' Lowercase to Small Capitals lookup 1 subtable" K.smcp
EndChar

StartChar: kgreenlandic
Encoding: 312 312 471
Width: 1112
VWidth: 1798
GlyphClass: 2
Flags: W
AnchorPoint: "Anchor-1" 590 -240 basechar 0
AnchorPoint: "Anchor-0" 590 1040 basechar 0
LayerCount: 2
Fore
SplineSet
904 -250 m 1,0,-1
 423 246 l 1,1,-1
 283 246 l 1,2,-1
 283 -250 l 1,3,-1
 163 -250 l 1,4,-1
 163 832 l 1,5,-1
 283 832 l 1,6,-1
 283 353 l 1,7,-1
 418 353 l 1,8,-1
 861 832 l 1,9,-1
 1007 832 l 1,10,-1
 528 306 l 1,11,-1
 1057 -250 l 1,12,-1
 904 -250 l 1,0,-1
EndSplineSet
EndChar

StartChar: l
Encoding: 108 108 472
Width: 460
VWidth: 1798
GlyphClass: 2
Flags: W
AnchorPoint: "Anchor-1" 249 -240 basechar 0
AnchorPoint: "Anchor-0" 249 1447 basechar 0
LayerCount: 2
Fore
SplineSet
291 1286 m 1,0,-1
 291 -250 l 1,1,-1
 171 -250 l 1,2,-1
 171 1286 l 1,3,-1
 291 1286 l 1,0,-1
EndSplineSet
Substitution2: "'unic' Unicase lookup 2 subtable" L
Substitution2: "'smcp' Lowercase to Small Capitals lookup 1 subtable" L.smcp
EndChar

StartChar: less
Encoding: 60 60 478
Width: 1047
VWidth: 1798
GlyphClass: 2
Flags: W
LayerCount: 2
Fore
SplineSet
905 707 m 1,0,-1
 210 406 l 1,1,-1
 905 107 l 1,2,-1
 905 -21 l 1,3,-1
 77 358 l 1,4,-1
 77 456 l 1,5,-1
 905 834 l 1,6,-1
 905 707 l 1,0,-1
EndSplineSet
EndChar

StartChar: lessequal
Encoding: 8804 8804 479
Width: 1047
GlyphClass: 2
Flags: W
LayerCount: 2
Fore
SplineSet
905 1011 m 1,0,-1
 209 721 l 1,1,-1
 905 433 l 1,2,-1
 905 314 l 1,3,-1
 77 677 l 1,4,-1
 77 768 l 1,5,-1
 905 1129 l 1,6,-1
 905 1011 l 1,0,-1
903 103 m 1,7,-1
 903 0 l 1,8,-1
 68 0 l 1,9,-1
 68 103 l 1,10,-1
 903 103 l 1,7,-1
EndSplineSet
EndChar

StartChar: lira
Encoding: 8356 8356 480
Width: 1171
GlyphClass: 2
Flags: W
LayerCount: 2
Fore
SplineSet
758 567 m 1,0,-1
 758 477 l 1,1,-1
 410 477 l 1,2,-1
 414 369 l 2,3,4
 417 197 417 197 349 105 c 1,5,-1
 1094 105 l 1,6,-1
 1095 0 l 1,7,-1
 97 0 l 1,8,-1
 97 105 l 1,9,-1
 196 105 l 1,10,11
 232 115 232 115 252.5 158.5 c 128,-1,12
 273 202 273 202 282.5 259.5 c 128,-1,13
 292 317 292 317 291 369 c 2,14,-1
 287 477 l 1,15,-1
 97 477 l 1,16,-1
 97 567 l 1,17,-1
 284 567 l 1,18,-1
 279 736 l 1,19,-1
 97 736 l 1,20,-1
 97 827 l 1,21,-1
 276 827 l 1,22,-1
 269 1039 l 1,23,24
 269 1246 269 1246 382.5 1361 c 128,-1,25
 496 1476 496 1476 674 1476 c 0,26,27
 862 1476 862 1476 965 1368.5 c 128,-1,28
 1068 1261 1068 1261 1068 1088 c 1,29,-1
 945 1088 l 1,30,31
 945 1189 945 1189 906.5 1251.5 c 128,-1,32
 868 1314 868 1314 804.5 1342.5 c 128,-1,33
 741 1371 741 1371 666 1371 c 0,34,35
 545 1371 545 1371 468.5 1285.5 c 128,-1,36
 392 1200 392 1200 392 1039 c 1,37,-1
 399 827 l 1,38,-1
 758 827 l 1,39,-1
 758 736 l 1,40,-1
 402 736 l 1,41,-1
 407 567 l 1,42,-1
 758 567 l 1,0,-1
EndSplineSet
Substitution2: "'c2sc' Capitals to Small Capitals lookup 0 subtable" lira.smcp
Position2: "'cpsp' Capital Spacing lookup 0 subtable" dx=36 dy=0 dh=72 dv=0
EndChar

StartChar: lira.smcp
Encoding: 65749 -1 481
Width: 1031
GlyphClass: 2
Flags: W
LayerCount: 2
Fore
SplineSet
345 744 m 2,0,-1
 347 678 l 1,1,-1
 763 678 l 1,2,-1
 763 590 l 1,3,-1
 350 590 l 1,4,-1
 354 466 l 2,5,6
 354 462 354 462 354 458 c 1,7,-1
 763 458 l 1,8,-1
 763 370 l 1,9,-1
 353 370 l 1,10,11
 349 292 349 292 330.5 223 c 128,-1,12
 312 154 312 154 273 103 c 1,13,-1
 969 103 l 1,14,-1
 969 0 l 1,15,-1
 97 0 l 1,16,-1
 97 103 l 1,17,-1
 107 103 l 1,18,19
 147 115 147 115 173 156.5 c 128,-1,20
 199 198 199 198 213.5 255 c 128,-1,21
 228 312 228 312 233 370 c 1,22,-1
 42 370 l 1,23,-1
 42 458 l 1,24,-1
 235 458 l 1,25,26
 235 462 235 462 235 466 c 2,27,-1
 231 590 l 1,28,-1
 42 590 l 1,29,-1
 42 678 l 1,30,-1
 227 678 l 1,31,-1
 225 744 l 2,32,33
 218 950 218 950 313 1065.5 c 128,-1,34
 408 1181 408 1181 579 1181 c 0,35,36
 767 1181 767 1181 849.5 1074 c 128,-1,37
 932 967 932 967 932 794 c 1,38,-1
 812 794 l 1,39,40
 812 950 812 950 749 1013.5 c 128,-1,41
 686 1077 686 1077 579 1077 c 0,42,43
 461 1077 461 1077 400 992.5 c 128,-1,44
 339 908 339 908 345 744 c 2,0,-1
EndSplineSet
EndChar

StartChar: logicalnot
Encoding: 172 172 482
Width: 1118
VWidth: 1798
GlyphClass: 2
Flags: W
LayerCount: 2
Fore
SplineSet
937 527 m 1,0,-1
 937 136 l 1,1,-1
 817 136 l 1,2,-1
 817 420 l 1,3,-1
 125 420 l 1,4,-1
 125 527 l 1,5,-1
 937 527 l 1,0,-1
EndSplineSet
EndChar

StartChar: longs
Encoding: 383 383 483
Width: 465
VWidth: 1798
GlyphClass: 2
Flags: W
AnchorPoint: "Anchor-1" 248 -240 basechar 0
AnchorPoint: "Anchor-0" 428 1504 basechar 0
LayerCount: 2
Fore
SplineSet
287 -250 m 1,0,-1
 168 -250 l 1,1,-1
 168 966 l 2,2,3
 168 1131 168 1131 250.5 1219 c 128,-1,4
 333 1307 333 1307 478 1307 c 0,5,6
 548 1307 548 1307 614 1288 c 1,7,-1
 598 1191 l 1,8,9
 576 1197 576 1197 552 1200.5 c 128,-1,10
 528 1204 528 1204 493 1204 c 0,11,12
 396 1204 396 1204 341.5 1141.5 c 128,-1,13
 287 1079 287 1079 287 966 c 2,14,-1
 287 -250 l 1,0,-1
EndSplineSet
EndChar

StartChar: longst
Encoding: 65750 -1 484
Width: 1215
GlyphClass: 3
Flags: W
LayerCount: 2
Fore
SplineSet
1116 1082 m 1,0,-1
 1116 984 l 1,1,-1
 892 984 l 1,2,-1
 892 264 l 2,3,4
 892 189 892 189 912 150.5 c 128,-1,5
 932 112 932 112 964 99 c 128,-1,6
 996 86 996 86 1033 86 c 0,7,8
 1060 86 1060 86 1085 89.5 c 128,-1,9
 1110 93 1110 93 1130 97 c 1,10,-1
 1135 -4 l 1,11,12
 1083 -20 1083 -20 1008 -20 c 0,13,14
 905 -20 905 -20 838.5 40.5 c 128,-1,15
 772 101 772 101 772 264 c 2,16,-1
 772 984 l 1,17,-1
 573 984 l 1,18,-1
 573 1082 l 1,19,-1
 772 1082 l 1,20,-1
 772 1411 l 1,21,22
 738 1430 738 1430 678 1442 c 128,-1,23
 618 1454 618 1454 568 1454 c 0,24,25
 471 1454 471 1454 417 1391.5 c 128,-1,26
 363 1329 363 1329 363 1216 c 2,27,-1
 363 0 l 1,28,-1
 243 0 l 1,29,-1
 243 984 l 1,30,-1
 64 984 l 1,31,-1
 64 1082 l 1,32,-1
 243 1082 l 1,33,-1
 243 1216 l 2,34,35
 243 1381 243 1381 325.5 1469 c 128,-1,36
 408 1557 408 1557 553 1557 c 0,37,38
 635 1557 635 1557 727 1533.5 c 128,-1,39
 819 1510 819 1510 892 1473 c 1,40,-1
 892 1082 l 1,41,-1
 1116 1082 l 1,0,-1
EndSplineSet
Ligature2: "'dlig' Discretionary Ligatures lookup 12 subtable" longs t
EndChar

StartChar: lozenge
Encoding: 9674 9674 485
Width: 1034
GlyphClass: 2
Flags: W
LayerCount: 2
Fore
SplineSet
56 727 m 1,0,-1
 467 1456 l 1,1,-1
 563 1456 l 1,2,-1
 975 727 l 1,3,-1
 565 0 l 1,4,-1
 469 0 l 1,5,-1
 56 727 l 1,0,-1
186 727 m 1,6,-1
 516 131 l 1,7,-1
 845 727 l 1,8,-1
 514 1323 l 1,9,-1
 186 727 l 1,6,-1
EndSplineSet
EndChar

StartChar: lslash
Encoding: 322 322 486
Width: 530
VWidth: 1798
GlyphClass: 2
Flags: W
AnchorPoint: "Anchor-1" 280 -240 basechar 0
AnchorPoint: "Anchor-0" 280 1447 basechar 0
LayerCount: 2
Fore
SplineSet
505 680 m 1,0,-1
 505 590 l 1,1,-1
 325 520 l 1,2,-1
 325 -250 l 1,3,-1
 206 -250 l 1,4,-1
 206 473 l 1,5,-1
 26 403 l 1,6,-1
 26 493 l 1,7,-1
 206 563 l 1,8,-1
 206 1286 l 1,9,-1
 325 1286 l 1,10,-1
 325 610 l 1,11,-1
 505 680 l 1,0,-1
EndSplineSet
Substitution2: "'smcp' Lowercase to Small Capitals lookup 1 subtable" Lslash.smcp
EndChar

StartChar: m
Encoding: 109 109 487
Width: 1816
VWidth: 1798
GlyphClass: 2
Flags: W
AnchorPoint: "Anchor-1" 897 -240 basechar 0
AnchorPoint: "Anchor-0" 911 1040 basechar 0
LayerCount: 2
Fore
SplineSet
585 748 m 0,0,1
 495 748 495 748 432.5 712 c 128,-1,2
 370 676 370 676 330.5 618.5 c 128,-1,3
 291 561 291 561 271 496 c 1,4,-1
 271 -250 l 1,5,-1
 150 -250 l 1,6,-1
 150 832 l 1,7,-1
 266 832 l 1,8,-1
 270 657 l 1,9,10
 324 745 324 745 412.5 798.5 c 128,-1,11
 501 852 501 852 620 852 c 256,12,13
 739 852 739 852 823.5 802.5 c 128,-1,14
 908 753 908 753 944 642 c 1,15,16
 996 733 996 733 1090 792.5 c 128,-1,17
 1184 852 1184 852 1314 852 c 0,18,19
 1483 852 1483 852 1576 759 c 128,-1,20
 1669 666 1669 666 1669 456 c 2,21,-1
 1669 -250 l 1,22,-1
 1549 -250 l 1,23,-1
 1549 457 l 2,24,25
 1549 571 1549 571 1515.5 634.5 c 128,-1,26
 1482 698 1482 698 1423 723.5 c 128,-1,27
 1364 749 1364 749 1285 748 c 0,28,29
 1184 747 1184 747 1116 703 c 128,-1,30
 1048 659 1048 659 1011 594 c 128,-1,31
 974 529 974 529 968 466 c 1,32,-1
 968 -250 l 1,33,-1
 849 -250 l 1,34,-1
 849 466 l 2,35,36
 849 627 849 627 775.5 687.5 c 128,-1,37
 702 748 702 748 585 748 c 0,0,1
EndSplineSet
Substitution2: "'unic' Unicase lookup 2 subtable" M.unic
Substitution2: "'smcp' Lowercase to Small Capitals lookup 1 subtable" M.smcp
EndChar

StartChar: macron
Encoding: 175 175 488
Width: 875
VWidth: 1798
GlyphClass: 2
Flags: W
LayerCount: 2
Fore
SplineSet
757 1191 m 1,0,-1
 757 1093 l 1,1,-1
 138 1093 l 1,2,-1
 138 1191 l 1,3,-1
 757 1191 l 1,0,-1
EndSplineSet
EndChar

StartChar: mu
Encoding: 181 181 491
Width: 1141
VWidth: 1798
GlyphClass: 2
Flags: W
LayerCount: 2
Fore
SplineSet
163 832 m 1,0,-1
 281 832 l 1,1,-1
 281 200 l 2,2,3
 281 51 281 51 318 -28.5 c 128,-1,4
 355 -108 355 -108 415 -138 c 128,-1,5
 475 -168 475 -168 545 -168 c 0,6,7
 691 -168 691 -168 763 -103.5 c 128,-1,8
 835 -39 835 -39 860 67 c 1,9,-1
 860 832 l 1,10,-1
 980 832 l 1,11,-1
 980 -250 l 1,12,-1
 871 -250 l 1,13,-1
 864 -95 l 1,14,15
 818 -177 818 -177 741.5 -223.5 c 128,-1,16
 665 -270 665 -270 553 -270 c 0,17,18
 470 -270 470 -270 399.5 -241.5 c 128,-1,19
 329 -213 329 -213 281 -144 c 1,20,-1
 281 -666 l 1,21,-1
 163 -666 l 1,22,-1
 163 832 l 1,0,-1
EndSplineSet
EndChar

StartChar: multiply
Encoding: 215 215 492
Width: 980
VWidth: 1798
GlyphClass: 2
Flags: W
LayerCount: 2
Fore
SplineSet
420 265 m 1,0,-1
 154 536 l 1,1,-1
 224 609 l 1,2,-1
 490 337 l 1,3,-1
 757 609 l 1,4,-1
 826 536 l 1,5,-1
 561 265 l 1,6,-1
 828 -7 l 1,7,-1
 758 -79 l 1,8,-1
 490 194 l 1,9,-1
 222 -79 l 1,10,-1
 153 -7 l 1,11,-1
 420 265 l 1,0,-1
EndSplineSet
EndChar

StartChar: n
Encoding: 110 110 493
Width: 1126
VWidth: 1798
GlyphClass: 2
Flags: W
AnchorPoint: "Anchor-1" 563 -240 basechar 0
AnchorPoint: "Anchor-0" 573 1040 basechar 0
LayerCount: 2
Fore
SplineSet
599 748 m 0,0,1
 514 748 514 748 450 711 c 128,-1,2
 386 674 386 674 342.5 615.5 c 128,-1,3
 299 557 299 557 276 491 c 1,4,-1
 276 -250 l 1,5,-1
 157 -250 l 1,6,-1
 157 832 l 1,7,-1
 271 832 l 1,8,-1
 275 648 l 1,9,10
 331 740 331 740 421.5 796 c 128,-1,11
 512 852 512 852 628 852 c 0,12,13
 790 852 790 852 881.5 760.5 c 128,-1,14
 973 669 973 669 973 455 c 2,15,-1
 973 -250 l 1,16,-1
 853 -250 l 1,17,-1
 853 456 l 2,18,19
 853 623 853 623 784.5 685.5 c 128,-1,20
 716 748 716 748 599 748 c 0,0,1
EndSplineSet
Substitution2: "'unic' Unicase lookup 2 subtable" N.unic
Substitution2: "'smcp' Lowercase to Small Capitals lookup 1 subtable" N.smcp
EndChar

StartChar: naira
Encoding: 8358 8358 495
Width: 1576
GlyphClass: 2
Flags: W
LayerCount: 2
Fore
SplineSet
1540 615 m 1,0,-1
 1540 512 l 1,1,-1
 1328 512 l 1,2,-1
 1328 0 l 1,3,-1
 1205 0 l 1,4,-1
 861 512 l 1,5,-1
 368 512 l 1,6,-1
 368 0 l 1,7,-1
 244 0 l 1,8,-1
 244 512 l 1,9,-1
 36 512 l 1,10,-1
 36 615 l 1,11,-1
 244 615 l 1,12,-1
 244 812 l 1,13,-1
 36 812 l 1,14,-1
 36 915 l 1,15,-1
 244 915 l 1,16,-1
 244 1456 l 1,17,-1
 368 1456 l 1,18,-1
 732 915 l 1,19,-1
 1206 915 l 1,20,-1
 1206 1456 l 1,21,-1
 1328 1456 l 1,22,-1
 1328 915 l 1,23,-1
 1540 915 l 1,24,-1
 1540 812 l 1,25,-1
 1328 812 l 1,26,-1
 1328 615 l 1,27,-1
 1540 615 l 1,0,-1
368 1244 m 1,28,-1
 368 915 l 1,29,-1
 589 915 l 1,30,-1
 368 1244 l 1,28,-1
368 615 m 1,31,-1
 791 615 l 1,32,-1
 659 812 l 1,33,-1
 368 812 l 1,34,-1
 368 615 l 1,31,-1
935 615 m 1,35,-1
 1206 615 l 1,36,-1
 1206 812 l 1,37,-1
 802 812 l 1,38,-1
 935 615 l 1,35,-1
1206 212 m 1,39,-1
 1206 512 l 1,40,-1
 1004 512 l 1,41,-1
 1206 212 l 1,39,-1
EndSplineSet
EndChar

StartChar: nine
Encoding: 57 57 500
Width: 1136
VWidth: 1798
GlyphClass: 2
Flags: W
LayerCount: 2
Fore
SplineSet
303 -156 m 1,0,-1
 328 -156 l 2,1,2
 534 -156 534 -156 655 -79.5 c 128,-1,3
 776 -3 776 -3 829 129 c 128,-1,4
 882 261 882 261 886 427 c 1,5,6
 826 338 826 338 731 283 c 128,-1,7
 636 228 636 228 520 228 c 0,8,9
 384 228 384 228 290.5 297.5 c 128,-1,10
 197 367 197 367 149.5 479 c 128,-1,11
 102 591 102 591 102 716 c 0,12,13
 102 856 102 856 154.5 971.5 c 128,-1,14
 207 1087 207 1087 305.5 1156.5 c 128,-1,15
 404 1226 404 1226 542 1226 c 0,16,17
 698 1226 698 1226 800.5 1151.5 c 128,-1,18
 903 1077 903 1077 954 946 c 128,-1,19
 1005 815 1005 815 1005 645 c 2,20,-1
 1005 530 l 2,21,22
 1005 368 1005 368 972.5 225 c 128,-1,23
 940 82 940 82 863.5 -27.5 c 128,-1,24
 787 -137 787 -137 656 -199 c 128,-1,25
 525 -261 525 -261 328 -261 c 2,26,-1
 302 -261 l 1,27,-1
 303 -156 l 1,0,-1
220 721 m 0,28,29
 220 622 220 622 256 533 c 128,-1,30
 292 444 292 444 362.5 388 c 128,-1,31
 433 332 433 332 535 332 c 0,32,33
 626 332 626 332 697 369.5 c 128,-1,34
 768 407 768 407 816 465.5 c 128,-1,35
 864 524 864 524 886 589 c 1,36,-1
 886 657 l 2,37,38
 886 887 886 887 790.5 1005 c 128,-1,39
 695 1123 695 1123 544 1123 c 0,40,41
 443 1123 443 1123 370.5 1067.5 c 128,-1,42
 298 1012 298 1012 259 920.5 c 128,-1,43
 220 829 220 829 220 721 c 0,28,29
EndSplineSet
Substitution2: "'ss01' Style Set 1 lookup 35 subtable" uni06F9
Substitution2: "'numr' Numerators lookup 21 subtable" nine.frac
Substitution2: "'dnom' Denominators lookup 20 subtable" nine.sup
Substitution2: "'frac' Diagonal Fractions lookup 19 subtable" nine.frac
Substitution2: "Single Substitution lookup 18 subtable" nine.sup
Substitution2: "'onum' Oldstyle Figures lookup 14 subtable" nine.tnum
Substitution2: "'c2sc' Capitals to Small Capitals lookup 0 subtable" nine.smcp
Position2: "'cpsp' Capital Spacing lookup 0 subtable" dx=36 dy=0 dh=72 dv=0
EndChar

StartChar: nine.onum
Encoding: 65752 -1 502
Width: 1181
GlyphClass: 1
Flags: W
LayerCount: 2
Fore
SplineSet
471 -243 m 0,0,1
 602 -243 602 -243 703 -174 c 128,-1,2
 804 -105 804 -105 861.5 25.5 c 128,-1,3
 919 156 919 156 921 341 c 1,4,5
 861 260 861 260 766.5 216 c 128,-1,6
 672 172 672 172 560 172 c 0,7,8
 424 172 424 172 323.5 238 c 128,-1,9
 223 304 223 304 168 416.5 c 128,-1,10
 113 529 113 529 113 668 c 0,11,12
 113 822 113 822 171.5 938.5 c 128,-1,13
 230 1055 230 1055 331.5 1120.5 c 128,-1,14
 433 1186 433 1186 561 1186 c 0,15,16
 781 1186 781 1186 911 1044.5 c 128,-1,17
 1041 903 1041 903 1041 616 c 2,18,-1
 1041 354 l 2,19,20
 1041 131 1041 131 968 -25.5 c 128,-1,21
 895 -182 895 -182 768.5 -264 c 128,-1,22
 642 -346 642 -346 480 -346 c 0,23,24
 413 -346 413 -346 341 -330.5 c 128,-1,25
 269 -315 269 -315 204 -283 c 1,26,-1
 232 -187 l 1,27,28
 288 -212 288 -212 344.5 -227.5 c 128,-1,29
 401 -243 401 -243 471 -243 c 0,0,1
237 668 m 0,30,31
 237 566 237 566 276 476 c 128,-1,32
 315 386 315 386 388.5 330 c 128,-1,33
 462 274 462 274 564 274 c 0,34,35
 665 274 665 274 738 310.5 c 128,-1,36
 811 347 811 347 856.5 404 c 128,-1,37
 902 461 902 461 921 520 c 1,38,-1
 921 626 l 2,39,40
 921 853 921 853 827 968 c 128,-1,41
 733 1083 733 1083 565 1083 c 0,42,43
 468 1083 468 1083 394 1029 c 128,-1,44
 320 975 320 975 278.5 881.5 c 128,-1,45
 237 788 237 788 237 668 c 0,30,31
EndSplineSet
EndChar

StartChar: nine.smcp
Encoding: 65753 -1 503
Width: 1025
GlyphClass: 2
Flags: W
LayerCount: 2
Fore
SplineSet
272 93 m 1,0,-1
 295 93 l 2,1,2
 465 93 465 93 570.5 148.5 c 128,-1,3
 676 204 676 204 726 302 c 128,-1,4
 776 400 776 400 781 528 c 1,5,6
 734 463 734 463 653.5 421 c 128,-1,7
 573 379 573 379 467 379 c 0,8,9
 345 379 345 379 260 433.5 c 128,-1,10
 175 488 175 488 130.5 577.5 c 128,-1,11
 86 667 86 667 86 771 c 0,12,13
 86 883 86 883 135 976 c 128,-1,14
 184 1069 184 1069 274.5 1125 c 128,-1,15
 365 1181 365 1181 490 1181 c 0,16,17
 693 1181 693 1181 796.5 1052.5 c 128,-1,18
 900 924 900 924 900 714 c 2,19,-1
 900 620 l 2,20,21
 900 440 900 440 841.5 297.5 c 128,-1,22
 783 155 783 155 650.5 72.5 c 128,-1,23
 518 -10 518 -10 295 -10 c 2,24,-1
 271 -10 l 1,25,-1
 272 93 l 1,0,-1
208 773 m 0,26,27
 208 698 208 698 240 631 c 128,-1,28
 272 564 272 564 333.5 522 c 128,-1,29
 395 480 395 480 485 480 c 0,30,31
 602 480 602 480 678 540.5 c 128,-1,32
 754 601 754 601 781 674 c 1,33,-1
 781 731 l 2,34,35
 781 902 781 902 700 989.5 c 128,-1,36
 619 1077 619 1077 491 1077 c 0,37,38
 403 1077 403 1077 339.5 1034.5 c 128,-1,39
 276 992 276 992 242 922.5 c 128,-1,40
 208 853 208 853 208 773 c 0,26,27
EndSplineSet
EndChar

StartChar: nine.sup
Encoding: 65754 -1 504
Width: 740
GlyphClass: 2
Flags: W
LayerCount: 2
Fore
SplineSet
206 80 m 1,0,-1
 222 80 l 2,1,2
 379 80 379 80 453.5 149.5 c 128,-1,3
 528 219 528 219 535 345 c 1,4,5
 503 305 503 305 451.5 280 c 128,-1,6
 400 255 400 255 335 255 c 0,7,8
 212 255 212 255 144 332 c 128,-1,9
 76 409 76 409 76 520 c 0,10,11
 76 597 76 597 110.5 660.5 c 128,-1,12
 145 724 145 724 208.5 762 c 128,-1,13
 272 800 272 800 357 800 c 0,14,15
 493 800 493 800 567 716 c 128,-1,16
 641 632 641 632 641 482 c 2,17,-1
 641 419 l 2,18,19
 641 221 641 221 541 107 c 128,-1,20
 441 -7 441 -7 223 -7 c 2,21,-1
 206 -7 l 1,22,-1
 206 80 l 1,0,-1
182 521 m 0,23,24
 182 448 182 448 226.5 394.5 c 128,-1,25
 271 341 271 341 355 341 c 0,26,27
 427 341 427 341 473 375 c 128,-1,28
 519 409 519 409 536 451 c 1,29,-1
 536 500 l 2,30,31
 536 606 536 606 486.5 658.5 c 128,-1,32
 437 711 437 711 357 711 c 0,33,34
 276 711 276 711 229 653.5 c 128,-1,35
 182 596 182 596 182 521 c 0,23,24
EndSplineSet
EndChar

StartChar: notequal
Encoding: 8800 8800 506
Width: 1133
GlyphClass: 2
Flags: W
LayerCount: 2
Fore
SplineSet
984 525 m 1,0,-1
 984 418 l 1,1,-1
 455 418 l 1,2,-1
 303 154 l 1,3,-1
 232 196 l 1,4,-1
 360 418 l 1,5,-1
 150 418 l 1,6,-1
 150 525 l 1,7,-1
 421 525 l 1,8,-1
 596 829 l 1,9,-1
 150 829 l 1,10,-1
 150 936 l 1,11,-1
 658 936 l 1,12,-1
 815 1209 l 1,13,-1
 886 1167 l 1,14,-1
 753 936 l 1,15,-1
 984 936 l 1,16,-1
 984 829 l 1,17,-1
 691 829 l 1,18,-1
 517 525 l 1,19,-1
 984 525 l 1,0,-1
EndSplineSet
EndChar

StartChar: nsuperior
Encoding: 8319 8319 507
Width: 863
GlyphClass: 2
Flags: W
LayerCount: 2
Fore
SplineSet
447 1370 m 0,0,1
 365 1370 365 1370 312.5 1325.5 c 128,-1,2
 260 1281 260 1281 236 1208 c 1,3,-1
 236 651 l 1,4,-1
 123 651 l 1,5,-1
 123 1454 l 1,6,-1
 210 1454 l 1,7,-1
 231 1317 l 1,8,9
 269 1386 269 1386 331 1426 c 128,-1,10
 393 1466 393 1466 474 1466 c 0,11,12
 601 1466 601 1466 675.5 1393.5 c 128,-1,13
 750 1321 750 1321 750 1159 c 2,14,-1
 750 651 l 1,15,-1
 639 651 l 1,16,-1
 639 1146 l 2,17,18
 639 1271 639 1271 586 1320.5 c 128,-1,19
 533 1370 533 1370 447 1370 c 0,0,1
EndSplineSet
EndChar

StartChar: numbersign
Encoding: 35 35 509
Width: 1191
VWidth: 1798
GlyphClass: 2
Flags: W
LayerCount: 2
Fore
SplineSet
264 -250 m 1,0,-1
 341 160 l 1,1,-1
 85 160 l 1,2,-1
 85 255 l 1,3,-1
 359 255 l 1,4,-1
 441 694 l 1,5,-1
 161 694 l 1,6,-1
 161 790 l 1,7,-1
 459 790 l 1,8,-1
 537 1206 l 1,9,-1
 637 1206 l 1,10,-1
 559 790 l 1,11,-1
 873 790 l 1,12,-1
 952 1206 l 1,13,-1
 1051 1206 l 1,14,-1
 972 790 l 1,15,-1
 1201 790 l 1,16,-1
 1201 694 l 1,17,-1
 954 694 l 1,18,-1
 871 255 l 1,19,-1
 1126 255 l 1,20,-1
 1126 160 l 1,21,-1
 853 160 l 1,22,-1
 776 -250 l 1,23,-1
 677 -250 l 1,24,-1
 754 160 l 1,25,-1
 440 160 l 1,26,-1
 363 -250 l 1,27,-1
 264 -250 l 1,0,-1
458 255 m 1,28,-1
 772 255 l 1,29,-1
 855 694 l 1,30,-1
 541 694 l 1,31,-1
 458 255 l 1,28,-1
EndSplineSet
EndChar

StartChar: o
Encoding: 111 111 510
Width: 1148
VWidth: 1798
GlyphClass: 2
Flags: W
AnchorPoint: "Anchor-1" 584 -251 basechar 0
AnchorPoint: "Anchor-0" 575 1040 basechar 0
LayerCount: 2
Fore
SplineSet
91 275 m 2,0,-1
 91 307 l 2,1,2
 91 465 91 465 151 588 c 128,-1,3
 211 711 211 711 319.5 781.5 c 128,-1,4
 428 852 428 852 573 852 c 0,5,6
 720 852 720 852 829 781.5 c 128,-1,7
 938 711 938 711 997.5 588 c 128,-1,8
 1057 465 1057 465 1057 307 c 2,9,-1
 1057 275 l 2,10,11
 1057 118 1057 118 997.5 -5.5 c 128,-1,12
 938 -129 938 -129 829.5 -199.5 c 128,-1,13
 721 -270 721 -270 575 -270 c 256,14,15
 429 -270 429 -270 320 -199.5 c 128,-1,16
 211 -129 211 -129 151 -5.5 c 128,-1,17
 91 118 91 118 91 275 c 2,0,-1
211 307 m 2,18,-1
 211 275 l 2,19,20
 211 157 211 157 253 56 c 128,-1,21
 295 -45 295 -45 376 -106 c 128,-1,22
 457 -167 457 -167 575 -167 c 0,23,24
 692 -167 692 -167 772.5 -106 c 128,-1,25
 853 -45 853 -45 895 56 c 128,-1,26
 937 157 937 157 937 275 c 2,27,-1
 937 307 l 2,28,29
 937 424 937 424 895 524.5 c 128,-1,30
 853 625 853 625 772 687 c 128,-1,31
 691 749 691 749 573 749 c 0,32,33
 456 749 456 749 375.5 687 c 128,-1,34
 295 625 295 625 253 524.5 c 128,-1,35
 211 424 211 424 211 307 c 2,18,-1
EndSplineSet
Substitution2: "'unic' Unicase lookup 2 subtable" O
Substitution2: "'smcp' Lowercase to Small Capitals lookup 1 subtable" O.smcp
EndChar

StartChar: oe
Encoding: 339 339 515
Width: 1892
VWidth: 1798
GlyphClass: 2
Flags: W
AnchorPoint: "Anchor-1" 945 -251 basechar 0
AnchorPoint: "Anchor-0" 945 1040 basechar 0
LayerCount: 2
Fore
SplineSet
95 275 m 2,0,-1
 95 307 l 2,1,2
 95 465 95 465 154 588 c 128,-1,3
 213 711 213 711 320 781.5 c 128,-1,4
 427 852 427 852 572 852 c 0,5,6
 722 852 722 852 831 778.5 c 128,-1,7
 940 705 940 705 997 581 c 1,8,9
 1056 706 1056 706 1162.5 779.5 c 128,-1,10
 1269 853 1269 853 1396 852 c 0,11,12
 1598 852 1598 852 1711 725.5 c 128,-1,13
 1824 599 1824 599 1824 390 c 2,14,-1
 1824 288 l 1,15,-1
 1060 288 l 1,16,-1
 1060 260 l 2,17,18
 1060 142 1060 142 1103.5 44.5 c 128,-1,19
 1147 -53 1147 -53 1226 -110.5 c 128,-1,20
 1305 -168 1305 -168 1412 -168 c 0,21,22
 1530 -168 1530 -168 1607.5 -135 c 128,-1,23
 1685 -102 1685 -102 1737 -48 c 1,24,-1
 1788 -132 l 1,25,26
 1733 -190 1733 -190 1641 -230 c 128,-1,27
 1549 -270 1549 -270 1412 -270 c 0,28,29
 1273 -270 1273 -270 1163.5 -197 c 128,-1,30
 1054 -124 1054 -124 996 -1 c 1,31,32
 939 -124 939 -124 830.5 -197 c 128,-1,33
 722 -270 722 -270 574 -270 c 0,34,35
 428 -270 428 -270 320.5 -199.5 c 128,-1,36
 213 -129 213 -129 154 -5.5 c 128,-1,37
 95 118 95 118 95 275 c 2,0,-1
1396 749 m 0,38,39
 1307 749 1307 749 1237 702 c 128,-1,40
 1167 655 1167 655 1122 573.5 c 128,-1,41
 1077 492 1077 492 1065 390 c 1,42,-1
 1704 390 l 1,43,-1
 1704 420 l 2,44,45
 1704 511 1704 511 1668 585.5 c 128,-1,46
 1632 660 1632 660 1563.5 704.5 c 128,-1,47
 1495 749 1495 749 1396 749 c 0,38,39
215 307 m 2,48,-1
 215 275 l 2,49,50
 215 157 215 157 256 56 c 128,-1,51
 297 -45 297 -45 377 -106.5 c 128,-1,52
 457 -168 457 -168 574 -168 c 256,53,54
 691 -168 691 -168 771 -106.5 c 128,-1,55
 851 -45 851 -45 891.5 56 c 128,-1,56
 932 157 932 157 932 275 c 2,57,-1
 932 307 l 2,58,59
 932 424 932 424 891 524.5 c 128,-1,60
 850 625 850 625 770 687 c 128,-1,61
 690 749 690 749 572 749 c 0,62,63
 456 749 456 749 376 687 c 128,-1,64
 296 625 296 625 255.5 524.5 c 128,-1,65
 215 424 215 424 215 307 c 2,48,-1
EndSplineSet
Substitution2: "'unic' Unicase lookup 2 subtable" OE
Substitution2: "'smcp' Lowercase to Small Capitals lookup 1 subtable" OE.smcp
EndChar

StartChar: ogonek
Encoding: 731 731 516
Width: 513
VWidth: 1798
GlyphClass: 2
Flags: W
LayerCount: 2
Fore
SplineSet
289 -211 m 1,0,-1
 348 -250 l 1,1,2
 280 -302 280 -302 224 -358.5 c 128,-1,3
 168 -415 168 -415 168 -484 c 0,4,5
 168 -518 168 -518 186.5 -543 c 128,-1,6
 205 -568 205 -568 254 -568 c 0,7,8
 290 -568 290 -568 316.5 -556.5 c 128,-1,9
 343 -545 343 -545 359 -535 c 1,10,-1
 374 -620 l 1,11,12
 352 -635 352 -635 317.5 -649.5 c 128,-1,13
 283 -664 283 -664 230 -664 c 0,14,15
 157 -664 157 -664 109 -621.5 c 128,-1,16
 61 -579 61 -579 61 -494 c 0,17,18
 61 -419 61 -419 123 -344.5 c 128,-1,19
 185 -270 185 -270 289 -211 c 1,0,-1
EndSplineSet
EndChar

StartChar: ohorn
Encoding: 417 417 518
Width: 1147
VWidth: 1798
GlyphClass: 2
Flags: W
AnchorPoint: "Anchor-1" 502 -250 basechar 0
AnchorPoint: "Anchor-0" 582 1040 basechar 0
LayerCount: 2
Fore
SplineSet
90 275 m 2,0,-1
 90 307 l 2,1,2
 90 465 90 465 150 588 c 128,-1,3
 210 711 210 711 318.5 781.5 c 128,-1,4
 427 852 427 852 572 852 c 0,5,6
 678 852 678 852 764.5 814 c 128,-1,7
 851 776 851 776 914 709 c 1,8,9
 1021 716 1021 716 1051.5 779.5 c 128,-1,10
 1082 843 1082 843 1082 949 c 1,11,-1
 1184 949 l 1,12,13
 1184 815 1184 815 1137.5 733 c 128,-1,14
 1091 651 1091 651 973 630 c 1,15,16
 1055 493 1055 493 1055 307 c 2,17,-1
 1055 275 l 2,18,19
 1055 118 1055 118 995.5 -5.5 c 128,-1,20
 936 -129 936 -129 828 -199.5 c 128,-1,21
 720 -270 720 -270 574 -270 c 256,22,23
 428 -270 428 -270 319 -199.5 c 128,-1,24
 210 -129 210 -129 150 -5.5 c 128,-1,25
 90 118 90 118 90 275 c 2,0,-1
209 307 m 2,26,-1
 209 275 l 2,27,28
 209 157 209 157 251 56 c 128,-1,29
 293 -45 293 -45 374.5 -106 c 128,-1,30
 456 -167 456 -167 574 -167 c 0,31,32
 691 -167 691 -167 771.5 -106 c 128,-1,33
 852 -45 852 -45 894 56 c 128,-1,34
 936 157 936 157 936 275 c 2,35,-1
 936 307 l 2,36,37
 936 424 936 424 894 524.5 c 128,-1,38
 852 625 852 625 771 687 c 128,-1,39
 690 749 690 749 572 749 c 0,40,41
 455 749 455 749 374 687 c 128,-1,42
 293 625 293 625 251 524.5 c 128,-1,43
 209 424 209 424 209 307 c 2,26,-1
EndSplineSet
EndChar

StartChar: one
Encoding: 49 49 521
Width: 1136
VWidth: 1798
GlyphClass: 2
Flags: W
LayerCount: 2
Fore
SplineSet
694 1212 m 1,0,-1
 694 -250 l 1,1,-1
 575 -250 l 1,2,-1
 575 1061 l 1,3,-1
 179 914 l 1,4,-1
 179 1027 l 1,5,-1
 674 1212 l 1,6,-1
 694 1212 l 1,0,-1
EndSplineSet
Substitution2: "'ss01' Style Set 1 lookup 35 subtable" uni06F1
Substitution2: "'numr' Numerators lookup 21 subtable" onesuperior
Substitution2: "'dnom' Denominators lookup 20 subtable" one.sup
Substitution2: "'frac' Diagonal Fractions lookup 19 subtable" onesuperior
Substitution2: "Single Substitution lookup 18 subtable" one.sup
Substitution2: "'onum' Oldstyle Figures lookup 14 subtable" one.tnum
Substitution2: "'c2sc' Capitals to Small Capitals lookup 0 subtable" one.smcp
Position2: "'cpsp' Capital Spacing lookup 0 subtable" dx=36 dy=0 dh=72 dv=0
EndChar

StartChar: one.onum
Encoding: 65756 -1 522
Width: 981
GlyphClass: 1
Flags: W
LayerCount: 2
Fore
SplineSet
648 1165 m 1,0,-1
 648 0 l 1,1,-1
 528 0 l 1,2,-1
 528 1015 l 1,3,-1
 160 853 l 1,4,-1
 160 963 l 1,5,-1
 617 1165 l 1,6,-1
 648 1165 l 1,0,-1
EndSplineSet
EndChar

StartChar: one.smcp
Encoding: 65757 -1 523
Width: 1025
GlyphClass: 2
Flags: W
LayerCount: 2
Fore
SplineSet
633 1168 m 1,0,-1
 633 0 l 1,1,-1
 513 0 l 1,2,-1
 513 1018 l 1,3,-1
 160 908 l 1,4,-1
 160 1016 l 1,5,-1
 615 1168 l 1,6,-1
 633 1168 l 1,0,-1
EndSplineSet
EndChar

StartChar: one.sup
Encoding: 65758 -1 524
Width: 740
GlyphClass: 2
Flags: W
LayerCount: 2
Fore
SplineSet
464 790 m 1,0,-1
 464 0 l 1,1,-1
 359 0 l 1,2,-1
 359 662 l 1,3,-1
 127 593 l 1,4,-1
 127 684 l 1,5,-1
 451 790 l 1,6,-1
 464 790 l 1,0,-1
EndSplineSet
EndChar

StartChar: onesuperior
Encoding: 185 185 529
Width: 740
VWidth: 1798
GlyphClass: 2
Flags: W
LayerCount: 2
Fore
SplineSet
464 1206 m 1,0,-1
 464 416 l 1,1,-1
 359 416 l 1,2,-1
 359 1077 l 1,3,-1
 127 1008 l 1,4,-1
 127 1099 l 1,5,-1
 451 1206 l 1,6,-1
 464 1206 l 1,0,-1
EndSplineSet
EndChar

StartChar: ordfeminine
Encoding: 170 170 530
Width: 907
VWidth: 1798
GlyphClass: 2
Flags: W
LayerCount: 2
Fore
SplineSet
650 456 m 1,0,1
 636 501 636 501 630 549 c 1,2,3
 597 507 597 507 540 474.5 c 128,-1,4
 483 442 483 442 407 442 c 0,5,6
 286 442 286 442 222 501.5 c 128,-1,7
 158 561 158 561 158 659 c 0,8,9
 158 769 158 769 242 830 c 128,-1,10
 326 891 326 891 487 891 c 2,11,-1
 626 891 l 1,12,-1
 626 952 l 2,13,14
 626 1036 626 1036 585.5 1082.5 c 128,-1,15
 545 1129 545 1129 465 1129 c 0,16,17
 376 1129 376 1129 324 1093.5 c 128,-1,18
 272 1058 272 1058 272 987 c 1,19,-1
 165 994 l 1,20,21
 165 1095 165 1095 247 1161 c 128,-1,22
 329 1227 329 1227 465 1227 c 0,23,24
 585 1227 585 1227 660 1157.5 c 128,-1,25
 735 1088 735 1088 735 951 c 2,26,-1
 735 637 l 2,27,28
 735 540 735 540 761 456 c 1,29,-1
 650 456 l 1,0,1
427 538 m 0,30,31
 486 538 486 538 542.5 570 c 128,-1,32
 599 602 599 602 626 641 c 1,33,-1
 626 808 l 1,34,-1
 488 808 l 2,35,36
 379 808 379 808 322.5 770 c 128,-1,37
 266 732 266 732 266 663 c 0,38,39
 266 606 266 606 304 572 c 128,-1,40
 342 538 342 538 427 538 c 0,30,31
EndSplineSet
EndChar

StartChar: ordmasculine
Encoding: 186 186 531
Width: 923
VWidth: 1798
GlyphClass: 2
Flags: W
LayerCount: 2
Fore
SplineSet
136 784 m 2,0,-1
 136 883 l 2,1,2
 136 1033 136 1033 223 1130 c 128,-1,3
 310 1227 310 1227 459 1227 c 0,4,5
 610 1227 610 1227 696 1130 c 128,-1,6
 782 1033 782 1033 782 883 c 2,7,-1
 782 784 l 2,8,9
 782 633 782 633 696 537 c 128,-1,10
 610 441 610 441 461 441 c 0,11,12
 310 441 310 441 223 537 c 128,-1,13
 136 633 136 633 136 784 c 2,0,-1
244 883 m 2,14,-1
 244 784 l 2,15,16
 244 680 244 680 296.5 608.5 c 128,-1,17
 349 537 349 537 461 537 c 0,18,19
 568 537 568 537 621.5 608.5 c 128,-1,20
 675 680 675 680 675 784 c 2,21,-1
 675 883 l 2,22,23
 675 985 675 985 621.5 1057 c 128,-1,24
 568 1129 568 1129 459 1129 c 256,25,26
 350 1129 350 1129 297 1057 c 128,-1,27
 244 985 244 985 244 883 c 2,14,-1
EndSplineSet
EndChar

